%FSLAX25Y25*%
%MOIN*%
G70*
G01*
G75*
G04 Layer_Physical_Order=2*
G04 Layer_Color=36540*
%ADD10C,0.00800*%
%ADD11R,0.01969X0.01969*%
%ADD12R,0.01969X0.01969*%
%ADD13R,0.02756X0.05118*%
%ADD14R,0.09370X0.06496*%
%ADD15R,0.00984X0.02756*%
%ADD16R,0.01929X0.01181*%
%ADD17R,0.02047X0.01181*%
%ADD18R,0.06299X0.03543*%
%ADD19R,0.01102X0.01969*%
%ADD20R,0.12205X0.12205*%
%ADD21R,0.00984X0.02362*%
%ADD22R,0.02362X0.00984*%
%ADD23R,0.10709X0.05079*%
%ADD24R,0.05787X0.04449*%
%ADD25R,0.03000X0.03000*%
%ADD26R,0.04449X0.05787*%
%ADD27R,0.03000X0.03000*%
%ADD28R,0.04331X0.03543*%
%ADD29C,0.02000*%
%ADD30C,0.00600*%
%ADD31C,0.01200*%
%ADD32C,0.01000*%
%ADD33C,0.00500*%
%ADD34C,0.05118*%
%ADD35C,0.01400*%
%ADD36C,0.01969*%
G36*
X3802Y64000D02*
X4196Y63500D01*
X4177Y63400D01*
X4270Y62932D01*
X4535Y62535D01*
X4932Y62270D01*
X5400Y62177D01*
X5868Y62270D01*
X6265Y62535D01*
X6530Y62932D01*
X6623Y63400D01*
X6604Y63500D01*
X6998Y64000D01*
X19585Y64000D01*
X19737Y63500D01*
X19535Y63365D01*
X19270Y62968D01*
X19176Y62500D01*
X19270Y62032D01*
X19535Y61635D01*
X19932Y61370D01*
X20400Y61277D01*
X20868Y61370D01*
X21265Y61635D01*
X21530Y62032D01*
X21623Y62500D01*
X21530Y62968D01*
X21265Y63365D01*
X21063Y63500D01*
X21215Y64000D01*
X35635Y64000D01*
X35787Y63500D01*
X35735Y63465D01*
X35470Y63068D01*
X35377Y62600D01*
X35470Y62132D01*
X35735Y61735D01*
X36132Y61470D01*
X36600Y61377D01*
X37068Y61470D01*
X37465Y61735D01*
X37730Y62132D01*
X37824Y62600D01*
X37730Y63068D01*
X37465Y63465D01*
X37413Y63500D01*
X37565Y64000D01*
X50000Y64000D01*
X50000Y1354D01*
X49646Y1000D01*
X48597D01*
X48594Y1003D01*
X48375Y1500D01*
X48530Y1732D01*
X48623Y2200D01*
X48530Y2668D01*
X48265Y3065D01*
X47868Y3330D01*
X47400Y3424D01*
X46932Y3330D01*
X46535Y3065D01*
X46270Y2668D01*
X46176Y2200D01*
X46270Y1732D01*
X46424Y1500D01*
X46206Y1003D01*
X46203Y1000D01*
X1000Y1000D01*
Y8585D01*
X1500Y8737D01*
X1635Y8535D01*
X2032Y8270D01*
X2500Y8177D01*
X2968Y8270D01*
X3365Y8535D01*
X3630Y8932D01*
X3723Y9400D01*
X3630Y9868D01*
X3365Y10265D01*
X2968Y10530D01*
X2500Y10623D01*
X2032Y10530D01*
X1635Y10265D01*
X1500Y10063D01*
X1000Y10215D01*
X1000Y55603D01*
X1003Y55606D01*
X1500Y55825D01*
X1732Y55670D01*
X2200Y55576D01*
X2668Y55670D01*
X3065Y55935D01*
X3284Y56263D01*
X3590Y56366D01*
X3854Y56400D01*
X5375Y54879D01*
X5706Y54658D01*
X6096Y54580D01*
X8544D01*
X8680Y54408D01*
X8852Y54080D01*
X8777Y53700D01*
X8870Y53232D01*
X9135Y52835D01*
X9532Y52570D01*
X10000Y52477D01*
X10468Y52570D01*
X10865Y52835D01*
X11130Y53232D01*
X11224Y53700D01*
X11130Y54168D01*
X10865Y54565D01*
X10579Y54756D01*
X10830Y55132D01*
X10924Y55600D01*
X10830Y56068D01*
X10565Y56465D01*
X10168Y56730D01*
X9700Y56823D01*
X9232Y56730D01*
X9066Y56620D01*
X6518D01*
X5311Y57827D01*
X5412Y58433D01*
X5565Y58535D01*
X5830Y58932D01*
X5923Y59400D01*
X5830Y59868D01*
X5565Y60265D01*
X5168Y60530D01*
X4700Y60624D01*
X4232Y60530D01*
X3835Y60265D01*
X3834Y60264D01*
X3233D01*
X3165Y60365D01*
X3088Y60417D01*
X2830Y60932D01*
X2923Y61400D01*
X2830Y61868D01*
X2565Y62265D01*
X2168Y62530D01*
X1700Y62624D01*
X1500Y62584D01*
X1000Y62931D01*
Y63647D01*
X1354Y64000D01*
X3802D01*
D02*
G37*
%LPC*%
G36*
X39300Y14024D02*
X38832Y13930D01*
X38435Y13665D01*
X38170Y13268D01*
X38076Y12800D01*
X38170Y12332D01*
X38435Y11935D01*
X38832Y11670D01*
X39300Y11576D01*
X39768Y11670D01*
X40165Y11935D01*
X40430Y12332D01*
X40523Y12800D01*
X40430Y13268D01*
X40165Y13665D01*
X39768Y13930D01*
X39300Y14024D01*
D02*
G37*
G36*
X26100Y14085D02*
X25301Y13980D01*
X24557Y13672D01*
X23918Y13182D01*
X23428Y12543D01*
X23120Y11799D01*
X23015Y11000D01*
X23120Y10201D01*
X23428Y9457D01*
X23918Y8818D01*
X24557Y8328D01*
X25301Y8020D01*
X26100Y7914D01*
X26899Y8020D01*
X27643Y8328D01*
X28282Y8818D01*
X28772Y9457D01*
X29080Y10201D01*
X29185Y11000D01*
X29122Y11481D01*
D01*
X29107Y11592D01*
X29109Y11592D01*
X29120Y11596D01*
X29139Y11601D01*
X29535Y11721D01*
X29570Y11732D01*
X29642Y11623D01*
Y11623D01*
X29835Y11335D01*
X30232Y11070D01*
X30700Y10977D01*
X31168Y11070D01*
X31565Y11335D01*
X31830Y11732D01*
X31923Y12200D01*
X31830Y12668D01*
X31565Y13065D01*
X31168Y13330D01*
X30700Y13423D01*
X30232Y13330D01*
X29835Y13065D01*
X29570Y12668D01*
X29476Y12200D01*
D01*
X29476Y12200D01*
Y12200D01*
X29073Y11973D01*
X29041Y11963D01*
X29024Y11958D01*
X29016Y11956D01*
X29015Y11955D01*
X28967Y12072D01*
Y12072D01*
X28772Y12543D01*
X28282Y13182D01*
X27643Y13672D01*
X26899Y13980D01*
X26100Y14085D01*
D02*
G37*
G36*
X46000Y21124D02*
X45532Y21030D01*
X45135Y20765D01*
X44870Y20368D01*
X44776Y19900D01*
X44870Y19432D01*
X45135Y19035D01*
X45532Y18770D01*
X46000Y18677D01*
X46468Y18770D01*
X46865Y19035D01*
X47130Y19432D01*
X47223Y19900D01*
X47130Y20368D01*
X46865Y20765D01*
X46468Y21030D01*
X46000Y21124D01*
D02*
G37*
G36*
X38400Y31723D02*
X37932Y31630D01*
X37535Y31365D01*
X37270Y30968D01*
X37176Y30500D01*
X37270Y30032D01*
X37459Y29749D01*
X37530Y29554D01*
X37497Y29059D01*
X37370Y28868D01*
X37277Y28400D01*
X37370Y27932D01*
X37635Y27535D01*
X38032Y27270D01*
X38500Y27176D01*
X38968Y27270D01*
X39365Y27535D01*
X39630Y27932D01*
X39724Y28400D01*
X39630Y28868D01*
X39441Y29151D01*
X39370Y29346D01*
X39403Y29841D01*
X39530Y30032D01*
X39623Y30500D01*
X39530Y30968D01*
X39265Y31365D01*
X38868Y31630D01*
X38400Y31723D01*
D02*
G37*
G36*
X24100Y27123D02*
X23632Y27030D01*
X23235Y26765D01*
X22970Y26368D01*
X22876Y25900D01*
X22970Y25432D01*
X23235Y25035D01*
X23632Y24770D01*
X24100Y24677D01*
X24568Y24770D01*
X24965Y25035D01*
X25230Y25432D01*
X25324Y25900D01*
X25230Y26368D01*
X24965Y26765D01*
X24568Y27030D01*
X24100Y27123D01*
D02*
G37*
G36*
X29100Y25923D02*
X28632Y25830D01*
X28235Y25565D01*
X27970Y25168D01*
X27876Y24700D01*
X27970Y24232D01*
X28235Y23835D01*
X28632Y23570D01*
X29100Y23476D01*
X29568Y23570D01*
X29965Y23835D01*
X30230Y24232D01*
X30323Y24700D01*
X30230Y25168D01*
X29965Y25565D01*
X29568Y25830D01*
X29100Y25923D01*
D02*
G37*
G36*
X47269Y11382D02*
X46689Y11267D01*
X46198Y10939D01*
X45870Y10448D01*
X45755Y9868D01*
X45870Y9289D01*
X46198Y8798D01*
X46689Y8470D01*
X47269Y8355D01*
X47848Y8470D01*
X48339Y8798D01*
X48667Y9289D01*
X48782Y9868D01*
X48667Y10448D01*
X48339Y10939D01*
X47848Y11267D01*
X47269Y11382D01*
D02*
G37*
G36*
Y7445D02*
X46689Y7330D01*
X46198Y7002D01*
X45870Y6511D01*
X45755Y5931D01*
X45870Y5352D01*
X46198Y4861D01*
X46689Y4533D01*
X47269Y4418D01*
X47848Y4533D01*
X48339Y4861D01*
X48667Y5352D01*
X48782Y5931D01*
X48667Y6511D01*
X48339Y7002D01*
X47848Y7330D01*
X47269Y7445D01*
D02*
G37*
G36*
X43332D02*
X42752Y7330D01*
X42261Y7002D01*
X41933Y6511D01*
X41818Y5931D01*
X41933Y5352D01*
X42261Y4861D01*
X42752Y4533D01*
X43332Y4418D01*
X43911Y4533D01*
X44402Y4861D01*
X44730Y5352D01*
X44845Y5931D01*
X44730Y6511D01*
X44402Y7002D01*
X43911Y7330D01*
X43332Y7445D01*
D02*
G37*
G36*
X33800Y31723D02*
X33332Y31630D01*
X32935Y31365D01*
X32670Y30968D01*
X32577Y30500D01*
X32670Y30032D01*
X32935Y29635D01*
X32984Y29602D01*
Y9900D01*
X32984Y9900D01*
X33046Y9588D01*
X33223Y9323D01*
X33694Y8852D01*
X33668Y8632D01*
X33558Y8281D01*
X33235Y8065D01*
X32970Y7668D01*
X32877Y7200D01*
X32970Y6732D01*
X33235Y6335D01*
X33632Y6070D01*
X34100Y5976D01*
X34568Y6070D01*
X34965Y6335D01*
X35181Y6658D01*
X35532Y6768D01*
X35752Y6794D01*
X38173Y4373D01*
X38170Y4368D01*
X38076Y3900D01*
X38170Y3432D01*
X38435Y3035D01*
X38832Y2770D01*
X39300Y2677D01*
X39768Y2770D01*
X40165Y3035D01*
X40430Y3432D01*
X40523Y3900D01*
X40430Y4368D01*
X40165Y4765D01*
X39900Y4943D01*
X39877Y4977D01*
X39877Y4977D01*
X37740Y7113D01*
X37862Y7699D01*
X38065Y7835D01*
X38330Y8232D01*
X38423Y8700D01*
X38330Y9168D01*
X38065Y9565D01*
X37668Y9830D01*
X37200Y9923D01*
X36732Y9830D01*
X36335Y9565D01*
X36199Y9362D01*
X35613Y9240D01*
X34616Y10238D01*
Y29602D01*
X34665Y29635D01*
X34930Y30032D01*
X35023Y30500D01*
X34930Y30968D01*
X34665Y31365D01*
X34268Y31630D01*
X33800Y31723D01*
D02*
G37*
G36*
X43332Y11382D02*
X42752Y11267D01*
X42261Y10939D01*
X41933Y10448D01*
X41818Y9868D01*
X41933Y9289D01*
X42261Y8798D01*
X42752Y8470D01*
X43332Y8355D01*
X43911Y8470D01*
X44402Y8798D01*
X44730Y9289D01*
X44845Y9868D01*
X44730Y10448D01*
X44402Y10939D01*
X43911Y11267D01*
X43332Y11382D01*
D02*
G37*
G36*
X6368Y8655D02*
X5900Y8562D01*
X5503Y8297D01*
X5238Y7900D01*
X5145Y7431D01*
X5238Y6963D01*
X5503Y6566D01*
X5900Y6301D01*
X6368Y6208D01*
X6837Y6301D01*
X7234Y6566D01*
X7499Y6963D01*
X7592Y7431D01*
X7499Y7900D01*
X7234Y8297D01*
X6837Y8562D01*
X6368Y8655D01*
D02*
G37*
G36*
X30900Y8423D02*
X30432Y8330D01*
X30035Y8065D01*
X29770Y7668D01*
X29676Y7200D01*
X29770Y6732D01*
X30035Y6335D01*
X30432Y6070D01*
X30900Y5976D01*
X31368Y6070D01*
X31765Y6335D01*
X32030Y6732D01*
X32124Y7200D01*
X32030Y7668D01*
X31765Y8065D01*
X31368Y8330D01*
X30900Y8423D01*
D02*
G37*
G36*
X10300Y30024D02*
X9832Y29930D01*
X9435Y29665D01*
X9170Y29268D01*
X9076Y28800D01*
X9170Y28332D01*
X9435Y27935D01*
X9832Y27670D01*
X10300Y27577D01*
X10768Y27670D01*
X11165Y27935D01*
X11430Y28332D01*
X11524Y28800D01*
X11430Y29268D01*
X11165Y29665D01*
X10768Y29930D01*
X10300Y30024D01*
D02*
G37*
G36*
X26700Y54923D02*
X26232Y54830D01*
X25835Y54565D01*
X25570Y54168D01*
X25477Y53700D01*
X25570Y53232D01*
X25835Y52835D01*
X26232Y52570D01*
X26700Y52477D01*
X27168Y52570D01*
X27565Y52835D01*
X27830Y53232D01*
X27924Y53700D01*
X27830Y54168D01*
X27565Y54565D01*
X27168Y54830D01*
X26700Y54923D01*
D02*
G37*
G36*
X24700Y50924D02*
X24232Y50830D01*
X23835Y50565D01*
X23565D01*
X23168Y50830D01*
X22700Y50924D01*
X22232Y50830D01*
X21835Y50565D01*
X21570Y50168D01*
X21476Y49700D01*
X21570Y49232D01*
X21835Y48835D01*
X22232Y48570D01*
X22700Y48476D01*
X23168Y48570D01*
X23336Y48682D01*
X23700Y48793D01*
X24064Y48682D01*
X24232Y48570D01*
X24700Y48476D01*
X25168Y48570D01*
X25565Y48835D01*
X25830Y49232D01*
X25923Y49700D01*
X25830Y50168D01*
X25565Y50565D01*
X25168Y50830D01*
X24700Y50924D01*
D02*
G37*
G36*
X30600Y51024D02*
X30132Y50930D01*
X29735Y50665D01*
X29717Y50639D01*
X29165Y50565D01*
X28768Y50830D01*
X28300Y50924D01*
X27832Y50830D01*
X27435Y50565D01*
X27170Y50168D01*
X27077Y49700D01*
X27170Y49232D01*
X27435Y48835D01*
X27832Y48570D01*
X28300Y48476D01*
X28768Y48570D01*
X29165Y48835D01*
X29183Y48861D01*
X29735Y48935D01*
X30132Y48670D01*
X30600Y48577D01*
X31068Y48670D01*
X31319Y48837D01*
X31774Y48714D01*
X31866Y48647D01*
X31870Y48632D01*
X32135Y48235D01*
X32532Y47970D01*
X33000Y47877D01*
X33468Y47970D01*
X33865Y48235D01*
X34130Y48632D01*
X34223Y49100D01*
X34130Y49568D01*
X33865Y49965D01*
X33468Y50230D01*
X33000Y50323D01*
X32532Y50230D01*
X32281Y50063D01*
X31826Y50186D01*
X31734Y50253D01*
X31730Y50268D01*
X31465Y50665D01*
X31068Y50930D01*
X30600Y51024D01*
D02*
G37*
G36*
X47246Y63083D02*
X46778Y62989D01*
X46381Y62724D01*
X46116Y62327D01*
X46023Y61859D01*
X46116Y61391D01*
X46381Y60994D01*
X46778Y60729D01*
X47246Y60636D01*
X47715Y60729D01*
X48112Y60994D01*
X48377Y61391D01*
X48470Y61859D01*
X48377Y62327D01*
X48112Y62724D01*
X47715Y62989D01*
X47246Y63083D01*
D02*
G37*
G36*
X35700Y56452D02*
X35232Y56359D01*
X34835Y56094D01*
X34570Y55697D01*
X34477Y55228D01*
X34570Y54760D01*
X34835Y54363D01*
X35232Y54098D01*
X35700Y54005D01*
X36168Y54098D01*
X36565Y54363D01*
X36830Y54760D01*
X36924Y55228D01*
X36830Y55697D01*
X36565Y56094D01*
X36168Y56359D01*
X35700Y56452D01*
D02*
G37*
G36*
X19700D02*
X19232Y56359D01*
X18835Y56094D01*
X18570Y55697D01*
X18476Y55228D01*
X18570Y54760D01*
X18835Y54363D01*
X19232Y54098D01*
X19700Y54005D01*
X20168Y54098D01*
X20565Y54363D01*
X20830Y54760D01*
X20923Y55228D01*
X20830Y55697D01*
X20565Y56094D01*
X20168Y56359D01*
X19700Y56452D01*
D02*
G37*
G36*
X11450Y50624D02*
X10982Y50530D01*
X10585Y50265D01*
X10320Y49868D01*
X10227Y49400D01*
X10320Y48932D01*
X10585Y48535D01*
X10982Y48270D01*
X11450Y48177D01*
X11918Y48270D01*
X12315Y48535D01*
X12580Y48932D01*
X12674Y49400D01*
X12580Y49868D01*
X12315Y50265D01*
X11918Y50530D01*
X11450Y50624D01*
D02*
G37*
G36*
X36000Y48524D02*
X35532Y48430D01*
X35135Y48165D01*
X34870Y47768D01*
X34776Y47300D01*
X34870Y46832D01*
X34997Y46641D01*
X35030Y46146D01*
X34959Y45951D01*
X34770Y45668D01*
X34677Y45200D01*
X34770Y44732D01*
X34835Y44633D01*
X34999Y44250D01*
X34835Y43867D01*
X34770Y43768D01*
X34677Y43300D01*
X34770Y42832D01*
X34882Y42664D01*
X34993Y42300D01*
X34882Y41936D01*
X34770Y41768D01*
X34677Y41300D01*
X34770Y40832D01*
X34882Y40664D01*
X34993Y40300D01*
X34882Y39936D01*
X34770Y39768D01*
X34677Y39300D01*
X34770Y38832D01*
X35035Y38435D01*
X35432Y38170D01*
X35900Y38076D01*
X36368Y38170D01*
X36765Y38435D01*
X37030Y38832D01*
X37124Y39300D01*
X37030Y39768D01*
X36918Y39936D01*
X36807Y40300D01*
X36918Y40664D01*
X37030Y40832D01*
X37124Y41300D01*
X37030Y41768D01*
X36918Y41936D01*
X36807Y42300D01*
X36918Y42664D01*
X37030Y42832D01*
X37124Y43300D01*
X37030Y43768D01*
X36965Y43867D01*
X36801Y44250D01*
X36965Y44633D01*
X37030Y44732D01*
X37124Y45200D01*
X37030Y45668D01*
X36903Y45859D01*
X36870Y46354D01*
X36941Y46549D01*
X37130Y46832D01*
X37224Y47300D01*
X37130Y47768D01*
X36865Y48165D01*
X36468Y48430D01*
X36000Y48524D01*
D02*
G37*
G36*
X42400Y39524D02*
X41932Y39430D01*
X41535Y39165D01*
X41270Y38768D01*
X41177Y38300D01*
X41270Y37832D01*
X41535Y37435D01*
X41932Y37170D01*
X42400Y37077D01*
X42868Y37170D01*
X43265Y37435D01*
X43530Y37832D01*
X43624Y38300D01*
X43530Y38768D01*
X43265Y39165D01*
X42868Y39430D01*
X42400Y39524D01*
D02*
G37*
G36*
X17100Y36623D02*
X16632Y36530D01*
X16235Y36265D01*
X15970Y35868D01*
X15877Y35400D01*
X15970Y34932D01*
X16060Y34797D01*
X16060Y34797D01*
X16173Y34628D01*
X16170Y34626D01*
X16160Y34615D01*
X16131Y34586D01*
X15860Y34315D01*
X15836Y34291D01*
X15816Y34272D01*
X15812Y34267D01*
X15652Y34374D01*
X15652D01*
X15568Y34430D01*
X15100Y34523D01*
X14632Y34430D01*
X14235Y34165D01*
X13970Y33768D01*
X13877Y33300D01*
X13970Y32832D01*
X14235Y32435D01*
X14632Y32170D01*
X15100Y32076D01*
X15568Y32170D01*
X15965Y32435D01*
X16230Y32832D01*
X16323Y33300D01*
X16230Y33768D01*
X16140Y33903D01*
X16140Y33903D01*
X16027Y34072D01*
X16030Y34075D01*
X16040Y34086D01*
X16069Y34114D01*
X16340Y34385D01*
X16364Y34409D01*
X16384Y34428D01*
X16388Y34433D01*
X16548Y34326D01*
X16548D01*
X16632Y34270D01*
X17100Y34176D01*
X17568Y34270D01*
X17965Y34535D01*
X18230Y34932D01*
X18324Y35400D01*
X18230Y35868D01*
X17965Y36265D01*
X17568Y36530D01*
X17100Y36623D01*
D02*
G37*
G36*
X43500Y45524D02*
X43032Y45430D01*
X42635Y45165D01*
X42370Y44768D01*
X42276Y44300D01*
X42370Y43832D01*
X42635Y43435D01*
X43032Y43170D01*
X43500Y43077D01*
X43968Y43170D01*
X44365Y43435D01*
X44630Y43832D01*
X44723Y44300D01*
X44630Y44768D01*
X44365Y45165D01*
X43968Y45430D01*
X43500Y45524D01*
D02*
G37*
G36*
X12084Y45024D02*
X11616Y44930D01*
X11219Y44665D01*
X10954Y44268D01*
X10861Y43800D01*
X10954Y43332D01*
X11219Y42935D01*
X11616Y42670D01*
X12084Y42577D01*
X12552Y42670D01*
X12949Y42935D01*
X13215Y43332D01*
X13308Y43800D01*
X13215Y44268D01*
X12949Y44665D01*
X12552Y44930D01*
X12084Y45024D01*
D02*
G37*
G36*
X18200Y50424D02*
X17732Y50330D01*
X17335Y50065D01*
X17070Y49668D01*
X16976Y49200D01*
X17036Y48902D01*
X17019Y48680D01*
X16713Y48366D01*
X16532Y48330D01*
X16135Y48065D01*
X15870Y47668D01*
X15777Y47200D01*
X15818Y46990D01*
X15636Y46600D01*
X15446Y46493D01*
X15132Y46430D01*
X14735Y46165D01*
X14470Y45768D01*
X14377Y45300D01*
X14470Y44832D01*
X14582Y44664D01*
X14693Y44300D01*
X14582Y43936D01*
X14470Y43768D01*
X14377Y43300D01*
X14470Y42832D01*
X14735Y42435D01*
Y42165D01*
X14470Y41768D01*
X14377Y41300D01*
X14470Y40832D01*
X14735Y40435D01*
X15132Y40170D01*
X15600Y40077D01*
X16068Y40170D01*
X16465Y40435D01*
X16730Y40832D01*
X16824Y41300D01*
X16730Y41768D01*
X16465Y42165D01*
Y42435D01*
X16730Y42832D01*
X16824Y43300D01*
X16730Y43768D01*
X16618Y43936D01*
X16507Y44300D01*
X16618Y44664D01*
X16730Y44832D01*
X16824Y45300D01*
X16782Y45510D01*
X16964Y45900D01*
X17154Y46007D01*
X17468Y46070D01*
X17865Y46335D01*
X18130Y46732D01*
X18224Y47200D01*
X18164Y47498D01*
X18181Y47720D01*
X18487Y48034D01*
X18668Y48070D01*
X19065Y48335D01*
X19330Y48732D01*
X19423Y49200D01*
X19330Y49668D01*
X19065Y50065D01*
X18668Y50330D01*
X18200Y50424D01*
D02*
G37*
%LPD*%
D30*
X39300Y3900D02*
Y4400D01*
X33800Y9900D02*
X39300Y4400D01*
X33800Y9900D02*
Y30500D01*
D32*
X2300Y59396D02*
Y59500D01*
Y59396D02*
X6096Y55600D01*
X9700D01*
D34*
X26100Y5094D02*
D03*
D35*
X39300Y3900D02*
D03*
X33800Y30500D02*
D03*
X19500Y25100D02*
D03*
X30200Y62500D02*
D03*
X16800Y60700D02*
D03*
X2300Y63400D02*
D03*
X29200Y28300D02*
D03*
X29800Y58800D02*
D03*
X42800Y20000D02*
D03*
X42700Y41100D02*
D03*
X9700Y55600D02*
D03*
X2300Y59500D02*
D03*
X5400Y53500D02*
D03*
X49200Y16728D02*
D03*
X35869Y28254D02*
D03*
D36*
X11275Y35300D02*
D03*
X8125D02*
D03*
X30621Y37379D02*
D03*
X25700D02*
D03*
X20779D02*
D03*
X30621Y42300D02*
D03*
X25700D02*
D03*
X20779D02*
D03*
X30621Y47221D02*
D03*
X25700D02*
D03*
X20779D02*
D03*
M02*
