%FSLAX25Y25*%
%MOIN*%
G70*
G01*
G75*
G04 Layer_Physical_Order=1*
G04 Layer_Color=255*
%ADD10C,0.00800*%
%ADD11R,0.01969X0.01969*%
%ADD12R,0.01969X0.01969*%
%ADD13R,0.02756X0.05118*%
%ADD14R,0.09370X0.06496*%
%ADD15R,0.00984X0.02756*%
%ADD16R,0.01929X0.01181*%
%ADD17R,0.02047X0.01181*%
%ADD18R,0.06299X0.03543*%
%ADD19R,0.01102X0.01969*%
%ADD20R,0.12205X0.12205*%
%ADD21R,0.00984X0.02362*%
%ADD22R,0.02362X0.00984*%
%ADD23R,0.10709X0.05079*%
%ADD24R,0.05787X0.04449*%
%ADD25R,0.03000X0.03000*%
%ADD26R,0.04449X0.05787*%
%ADD27R,0.03000X0.03000*%
%ADD28R,0.04331X0.03543*%
%ADD29C,0.02000*%
%ADD30C,0.00600*%
%ADD31C,0.01200*%
%ADD32C,0.01000*%
%ADD33C,0.00500*%
%ADD34C,0.05118*%
%ADD35C,0.01400*%
%ADD36C,0.01969*%
G36*
X18600Y8000D02*
X17900D01*
X15300Y5400D01*
X13100D01*
Y7400D01*
X15300D01*
X17100Y9200D01*
X19800D01*
X18600Y8000D01*
D02*
G37*
G36*
X48700Y10600D02*
X45900D01*
X45800Y10500D01*
Y14800D01*
X48700D01*
Y10600D01*
D02*
G37*
G36*
X11600Y5300D02*
X13100Y3800D01*
X15100D01*
X16800Y5500D01*
X22600D01*
Y1000D01*
X1000D01*
Y6000D01*
X11600D01*
Y5300D01*
D02*
G37*
G36*
X48750Y1000D02*
X45850D01*
Y3800D01*
X48750D01*
Y1000D01*
D02*
G37*
G36*
X9200Y44800D02*
Y38100D01*
X8200D01*
Y39900D01*
X7200Y40900D01*
X3000D01*
Y46600D01*
X3100Y46700D01*
X7300D01*
X9200Y44800D01*
D02*
G37*
G36*
X14100Y59400D02*
X7400D01*
X6000Y60800D01*
X4200D01*
X4100Y60900D01*
Y62000D01*
X6000D01*
X7800Y63800D01*
X14100D01*
Y59400D01*
D02*
G37*
G36*
X11300Y17400D02*
X14600Y14100D01*
X15100Y14100D01*
Y12000D01*
X1000Y12000D01*
Y21400D01*
X4200D01*
X5200Y20400D01*
X7200D01*
X8200Y21400D01*
X11300D01*
Y17400D01*
D02*
G37*
G36*
X11200Y23900D02*
X8300D01*
X3700Y28500D01*
X1000D01*
Y31500D01*
X4400D01*
X6200Y29700D01*
X7200D01*
X8200Y30700D01*
Y32500D01*
X11200D01*
Y23900D01*
D02*
G37*
D10*
X42800Y16728D02*
G03*
X41947Y15876I0J-853D01*
G01*
X34100Y7200D02*
Y8728D01*
Y5572D02*
Y7200D01*
X39600Y16728D02*
X42800D01*
X41947Y13412D02*
Y15876D01*
X32500Y55228D02*
X32590Y55139D01*
D11*
X32028Y62500D02*
D03*
X35572D02*
D03*
X27772D02*
D03*
X24228D02*
D03*
X39428Y51700D02*
D03*
X42972D02*
D03*
X20772Y14400D02*
D03*
X17228D02*
D03*
X35869Y25054D02*
D03*
X32326D02*
D03*
X35869Y28254D02*
D03*
X32326D02*
D03*
X20128Y25500D02*
D03*
X23672D02*
D03*
X20128Y28700D02*
D03*
X23672D02*
D03*
X13428Y25500D02*
D03*
X16972D02*
D03*
X13428Y28700D02*
D03*
X16972D02*
D03*
X42972Y48500D02*
D03*
X39428D02*
D03*
X19872Y62500D02*
D03*
X16328D02*
D03*
X16972Y22300D02*
D03*
X13428D02*
D03*
X23672D02*
D03*
X20128D02*
D03*
D12*
X22900Y58772D02*
D03*
Y55228D02*
D03*
X34100Y8728D02*
D03*
Y12272D02*
D03*
Y2028D02*
D03*
Y5572D02*
D03*
X30900Y12272D02*
D03*
Y8728D02*
D03*
Y5572D02*
D03*
Y2028D02*
D03*
X37300Y5628D02*
D03*
Y9172D02*
D03*
X42800Y16728D02*
D03*
Y20272D02*
D03*
X39600Y16728D02*
D03*
Y20272D02*
D03*
X14100Y9528D02*
D03*
Y13072D02*
D03*
Y6372D02*
D03*
Y2828D02*
D03*
X2000Y53228D02*
D03*
Y56772D02*
D03*
X45600Y38528D02*
D03*
Y42072D02*
D03*
X48800Y38528D02*
D03*
Y42072D02*
D03*
X6200Y22972D02*
D03*
Y19428D02*
D03*
X24000Y15628D02*
D03*
Y19172D02*
D03*
X27200Y15828D02*
D03*
Y19372D02*
D03*
X35700Y58772D02*
D03*
Y55228D02*
D03*
X32500Y58772D02*
D03*
Y55228D02*
D03*
X29300Y58772D02*
D03*
Y55228D02*
D03*
X26100Y58772D02*
D03*
Y55228D02*
D03*
X19700Y58772D02*
D03*
Y55228D02*
D03*
X39200Y38528D02*
D03*
Y42072D02*
D03*
X5300Y56772D02*
D03*
Y53228D02*
D03*
X16500Y55228D02*
D03*
Y58772D02*
D03*
X29200Y24728D02*
D03*
Y28272D02*
D03*
X42400Y38528D02*
D03*
Y42072D02*
D03*
X46000Y16728D02*
D03*
Y20272D02*
D03*
X49200Y16728D02*
D03*
Y20272D02*
D03*
D13*
X41060Y24676D02*
D03*
X44800D02*
D03*
X48540D02*
D03*
Y34124D02*
D03*
X44800D02*
D03*
X41060D02*
D03*
D14*
X45300Y7900D02*
D03*
D15*
X42347Y2388D02*
D03*
X44316D02*
D03*
X46284D02*
D03*
X48253D02*
D03*
X42347Y13412D02*
D03*
X44316D02*
D03*
X46284D02*
D03*
X48253D02*
D03*
D16*
X1984Y59431D02*
D03*
Y61400D02*
D03*
Y63368D02*
D03*
X5016D02*
D03*
Y61400D02*
D03*
D17*
Y59431D02*
D03*
D18*
X9700Y35300D02*
D03*
D19*
X6747Y39040D02*
D03*
X8716D02*
D03*
X10684D02*
D03*
X12653D02*
D03*
Y31560D02*
D03*
X10684D02*
D03*
X8716D02*
D03*
X6747D02*
D03*
D20*
X25700Y42300D02*
D03*
D21*
X18810Y51749D02*
D03*
X20779D02*
D03*
X22747D02*
D03*
X24716D02*
D03*
X26684D02*
D03*
X28653D02*
D03*
X30621D02*
D03*
X32590D02*
D03*
Y32851D02*
D03*
X30621D02*
D03*
X28653D02*
D03*
X26684D02*
D03*
X24716D02*
D03*
X22747D02*
D03*
X20779D02*
D03*
X18810D02*
D03*
D22*
X35149Y49190D02*
D03*
Y47221D02*
D03*
Y45253D02*
D03*
Y43284D02*
D03*
Y41316D02*
D03*
Y39347D02*
D03*
Y37379D02*
D03*
Y35410D02*
D03*
X16251D02*
D03*
Y37379D02*
D03*
Y39347D02*
D03*
Y41316D02*
D03*
Y43284D02*
D03*
Y45253D02*
D03*
Y47221D02*
D03*
Y49190D02*
D03*
D23*
X6400Y3469D02*
D03*
Y14532D02*
D03*
D24*
X19400Y3216D02*
D03*
Y10184D02*
D03*
X11200Y54616D02*
D03*
Y61584D02*
D03*
D25*
X9800Y25450D02*
D03*
Y19950D02*
D03*
X2500Y25450D02*
D03*
Y19950D02*
D03*
Y35550D02*
D03*
Y30050D02*
D03*
X48000Y51750D02*
D03*
Y46250D02*
D03*
D26*
X12084Y43800D02*
D03*
X5116D02*
D03*
D27*
X36450Y16400D02*
D03*
X30950D02*
D03*
X14750Y18200D02*
D03*
X20250D02*
D03*
X5950Y49400D02*
D03*
X11450D02*
D03*
X36448Y20954D02*
D03*
X30948D02*
D03*
D28*
X47246Y56741D02*
D03*
X40554D02*
D03*
X47246Y61859D02*
D03*
X40554D02*
D03*
D29*
X38428Y6600D02*
X42663D01*
X37400Y5572D02*
X38428Y6600D01*
X42663D02*
X43332Y5931D01*
X45300Y7900D01*
X11450Y44434D02*
Y49400D01*
Y44434D02*
X12084Y43800D01*
X12460Y9528D02*
X14100D01*
X6400Y3469D02*
X12460Y9528D01*
D30*
X32000Y30500D02*
X33800D01*
X30621Y31879D02*
X32000Y30500D01*
X30621Y31879D02*
Y32851D01*
X25756Y21027D02*
Y30016D01*
X26856Y20844D02*
Y32680D01*
X24716Y31056D02*
X25756Y30016D01*
X26684Y32851D02*
X26856Y32680D01*
X24716Y31056D02*
Y32851D01*
X26856Y20844D02*
X27200Y20500D01*
Y19372D02*
Y20500D01*
X24000Y19272D02*
X25756Y21027D01*
X24000Y19172D02*
Y19272D01*
X22772Y14400D02*
X24000Y15628D01*
X20772Y14400D02*
X22772D01*
X16972Y28872D02*
X18600Y30500D01*
X16972Y28700D02*
Y28872D01*
Y22300D02*
Y25500D01*
Y28700D01*
X18600Y30500D02*
X19700D01*
X20779Y31579D01*
Y32851D01*
X28653Y31928D02*
Y32851D01*
Y31928D02*
X32326Y28254D01*
Y25054D02*
Y28254D01*
Y22333D02*
Y25054D01*
X30948Y20954D02*
X32326Y22333D01*
X30621Y49821D02*
Y51749D01*
X30600Y49800D02*
X30621Y49821D01*
X28653Y49847D02*
Y51749D01*
X24716Y49716D02*
Y51749D01*
X24700Y49700D02*
X24716Y49716D01*
X22747Y49747D02*
Y51749D01*
X22700Y49700D02*
X22747Y49747D01*
X28506Y49700D02*
X28653Y49847D01*
X28300Y49700D02*
X28506D01*
X16251Y49190D02*
X18190D01*
X18200Y49200D01*
X40269Y56741D02*
X40554D01*
X37600Y54071D02*
X40269Y56741D01*
X45600Y41728D02*
Y42072D01*
X42400Y38528D02*
X45600Y41728D01*
X17300Y19472D02*
X20128Y22300D01*
X17300Y14472D02*
Y19472D01*
X17228Y14400D02*
X17300Y14472D01*
X37600Y47229D02*
X40529Y44300D01*
X37600Y47229D02*
Y54071D01*
X40529Y44300D02*
X43500D01*
X44000Y55119D02*
Y59000D01*
X41141Y61859D02*
X44000Y59000D01*
X40554Y61859D02*
X41141D01*
X39428Y51800D02*
X41628Y54000D01*
X42881D01*
X44000Y55119D01*
D31*
X35869Y28254D02*
Y32369D01*
X40716Y24331D02*
X41060Y24676D01*
X40716Y21387D02*
Y24331D01*
X39600Y20272D02*
X40716Y21387D01*
X5300Y50050D02*
X5950Y49400D01*
X5300Y50050D02*
Y53228D01*
X11813Y55228D02*
X16500D01*
X11200Y54616D02*
X11813Y55228D01*
X35869Y32369D02*
X37624Y34124D01*
X41060D01*
X42972Y48500D02*
X43750D01*
X47000Y51750D01*
D32*
X34628Y12800D02*
X39300D01*
Y13600D01*
X36500Y16400D02*
X39300Y13600D01*
X27200Y12100D02*
Y15828D01*
X26100Y11000D02*
X27200Y12100D01*
X19700Y10215D02*
X20485Y11000D01*
X26100D01*
X34100Y12272D02*
X34628Y12800D01*
X30900Y2028D02*
X34100D01*
X29166D02*
X30900D01*
X26100Y5094D02*
X29166Y2028D01*
X36450Y16400D02*
X36500D01*
X22747Y29624D02*
Y32851D01*
Y29624D02*
X23672Y28700D01*
Y22300D02*
Y25500D01*
X20128Y22300D02*
Y25500D01*
Y28700D01*
X16251Y37379D02*
X20779D01*
X16251Y39347D02*
X22747D01*
X25700Y42300D01*
X20779Y37379D02*
X22747Y39347D01*
X35869Y25054D02*
Y28254D01*
Y21533D02*
Y25054D01*
Y21533D02*
X36448Y20954D01*
X48540Y20932D02*
Y24676D01*
Y20932D02*
X49200Y20272D01*
X46000Y16728D02*
X49200D01*
X43438Y23313D02*
X44800Y24676D01*
X42800Y20272D02*
X43438D01*
Y23313D01*
X32590Y51749D02*
Y55139D01*
X32500Y55228D02*
X35700D01*
X32500Y58772D02*
X35700D01*
X26100Y55228D02*
X26684Y54644D01*
X26100Y55228D02*
X29300D01*
X19700D02*
X22900D01*
Y58772D02*
X26100D01*
X29300D01*
X32500D01*
X27972Y62500D02*
X32428D01*
X19700Y58772D02*
Y62328D01*
X19872Y62500D01*
X24328D01*
X16328Y58943D02*
X16500Y58772D01*
X44800Y34124D02*
Y37728D01*
X45600Y38528D01*
X48540Y34124D02*
Y38269D01*
X48800Y38528D01*
X45600Y42072D02*
X48800D01*
X39200D02*
X42400D01*
X39428Y48500D02*
Y51800D01*
X38787Y61859D02*
X40554D01*
X35700Y58772D02*
X38787Y61859D01*
X30948Y16402D02*
Y20954D01*
Y16402D02*
X30950Y16400D01*
X20250Y18878D02*
X23672Y22300D01*
X20250Y18200D02*
Y18878D01*
X39200Y38528D02*
X42400D01*
X2000Y56772D02*
X5300D01*
X5300Y56772D01*
X1891Y53120D02*
X2000Y53228D01*
X1891Y40309D02*
Y53120D01*
Y40309D02*
X3300Y38900D01*
X6747D02*
Y39040D01*
X3300Y38900D02*
X6747D01*
X13428Y25500D02*
Y28700D01*
Y22300D02*
Y22450D01*
X3722Y25450D02*
X6200Y22972D01*
X2500Y25450D02*
X3722D01*
X6722Y22450D02*
X13428D01*
Y25500D01*
X6200Y22972D02*
X6722Y22450D01*
X12653Y30547D02*
Y31560D01*
Y30547D02*
X13428Y29772D01*
Y28700D02*
Y29772D01*
X6747Y31560D02*
Y34853D01*
X6300Y35300D02*
X6747Y34853D01*
X2750Y35300D02*
X6300D01*
X2500Y35550D02*
X2750Y35300D01*
X10684Y39040D02*
Y42400D01*
X12084Y43800D01*
X12653Y31560D02*
Y39040D01*
X44800Y31800D02*
Y34124D01*
X43300Y30300D02*
X44800Y31800D01*
X43100Y30500D02*
X43300Y30300D01*
X38400Y30500D02*
X43100D01*
X48540Y31940D02*
Y34124D01*
X45000Y28400D02*
X48540Y31940D01*
X38500Y28400D02*
X45000D01*
X23672Y25500D02*
Y28700D01*
X16972Y20982D02*
Y22300D01*
X14750Y18760D02*
X16972Y20982D01*
X14750Y18200D02*
Y18760D01*
X46000Y20272D02*
X49200D01*
X26684Y51749D02*
Y54644D01*
X47000Y43472D02*
Y46250D01*
X45600Y42072D02*
X47000Y43472D01*
X47246Y56741D02*
Y61859D01*
Y56075D02*
Y56741D01*
X42972Y51800D02*
X47246Y56075D01*
X16328Y58943D02*
Y62500D01*
D33*
X30900Y7200D02*
Y8728D01*
Y5572D02*
Y7200D01*
X33000Y49100D02*
X33090Y49190D01*
X35149D01*
X15549Y32851D02*
X18810D01*
X15100Y33300D02*
X15549Y32851D01*
D34*
X26100Y5094D02*
D03*
Y11000D02*
D03*
D35*
X6368Y7431D02*
D03*
X39300Y3900D02*
D03*
X37200Y8700D02*
D03*
X33800Y30500D02*
D03*
X30700Y12200D02*
D03*
X39300Y12800D02*
D03*
X34100Y7200D02*
D03*
X30900D02*
D03*
X19500Y25100D02*
D03*
X24100Y25900D02*
D03*
X47400Y2200D02*
D03*
X30600Y49800D02*
D03*
X24700Y49700D02*
D03*
X22700D02*
D03*
X28300D02*
D03*
X15600Y41300D02*
D03*
X35900Y45200D02*
D03*
Y43300D02*
D03*
Y41300D02*
D03*
Y39300D02*
D03*
X17000Y47200D02*
D03*
X18200Y49200D02*
D03*
X26700Y53700D02*
D03*
X19700Y55228D02*
D03*
X30200Y62500D02*
D03*
X20400D02*
D03*
X16800Y60700D02*
D03*
X2300Y63400D02*
D03*
X4700Y59400D02*
D03*
X29100Y24700D02*
D03*
X29200Y28300D02*
D03*
X15600Y43300D02*
D03*
Y45300D02*
D03*
X33000Y49100D02*
D03*
X42400Y38300D02*
D03*
X36000Y47300D02*
D03*
X43500Y44300D02*
D03*
X29800Y58800D02*
D03*
X36600Y62600D02*
D03*
X35700Y55228D02*
D03*
X47246Y61859D02*
D03*
X42800Y20000D02*
D03*
X46000Y19900D02*
D03*
X42700Y41100D02*
D03*
X10000Y53700D02*
D03*
X9700Y55600D02*
D03*
X2300Y59500D02*
D03*
X5400Y53500D02*
D03*
X11450Y49400D02*
D03*
X12084Y43800D02*
D03*
X49200Y16728D02*
D03*
X35869Y28254D02*
D03*
X38400Y30500D02*
D03*
X38500Y28400D02*
D03*
X17100Y35400D02*
D03*
X15100Y33300D02*
D03*
X2200Y56800D02*
D03*
X5400Y63400D02*
D03*
X1700Y61400D02*
D03*
X10300Y28800D02*
D03*
X2500Y9400D02*
D03*
D36*
X43332Y5931D02*
D03*
Y9868D02*
D03*
X47269Y5931D02*
D03*
Y9868D02*
D03*
X11275Y35300D02*
D03*
X8125D02*
D03*
X30621Y37379D02*
D03*
X25700D02*
D03*
X20779D02*
D03*
X30621Y42300D02*
D03*
X25700D02*
D03*
X20779D02*
D03*
X30621Y47221D02*
D03*
X25700D02*
D03*
X20779D02*
D03*
M02*
