%FSLAX25Y25*%
%MOIN*%
G70*
G01*
G75*
%ADD10C,0.00800*%
%ADD11R,0.01969X0.01969*%
%ADD12R,0.01969X0.01969*%
%ADD13R,0.02756X0.05118*%
%ADD14R,0.09370X0.06496*%
%ADD15R,0.00984X0.02756*%
%ADD16R,0.01929X0.01181*%
%ADD17R,0.02047X0.01181*%
%ADD18R,0.06299X0.03543*%
%ADD19R,0.01102X0.01969*%
%ADD20R,0.12205X0.12205*%
%ADD21R,0.00984X0.02362*%
%ADD22R,0.02362X0.00984*%
%ADD23R,0.10709X0.05079*%
%ADD24R,0.05787X0.04449*%
%ADD25R,0.03000X0.03000*%
%ADD26R,0.04449X0.05787*%
%ADD27R,0.03000X0.03000*%
%ADD28R,0.04331X0.03543*%
%ADD29C,0.02000*%
%ADD30C,0.00600*%
%ADD31C,0.01200*%
%ADD32C,0.01000*%
%ADD33C,0.00500*%
%ADD34C,0.05118*%
%ADD35C,0.01400*%
%ADD36C,0.01969*%
%ADD37R,0.01063X0.02047*%
%ADD38R,0.01417X0.02047*%
%ADD39R,0.02953X0.05906*%
%ADD40O,0.01575X0.05299*%
%ADD41O,0.01575X0.06874*%
%ADD42O,0.05299X0.01575*%
%ADD43O,0.06874X0.01575*%
%ADD44O,0.10024X0.01575*%
%ADD45R,0.08000X0.06300*%
%ADD46C,0.00984*%
%ADD47C,0.00394*%
%ADD48C,0.00787*%
D10*
X29121Y5094D02*
G03*
X29121Y5094I-3021J0D01*
G01*
D32*
X50300Y43950D02*
Y48000D01*
X45700Y43950D02*
X50300D01*
X45700D02*
Y48000D01*
D33*
X7500Y17650D02*
X12100D01*
X7500Y27750D02*
X12100D01*
Y17650D02*
Y27750D01*
X7500Y17650D02*
Y27750D01*
X28650Y14100D02*
Y18700D01*
X38750Y14100D02*
Y18700D01*
X28650Y14100D02*
X38750D01*
X28650Y18700D02*
X38750D01*
X22550Y15900D02*
Y20500D01*
X12450Y15900D02*
Y20500D01*
X22550D01*
X12450Y15900D02*
X22550D01*
X200Y17650D02*
X4800D01*
X200Y27750D02*
X4800D01*
Y17650D02*
Y27750D01*
X200Y17650D02*
Y27750D01*
X13750Y47100D02*
Y51700D01*
X3650Y47100D02*
Y51700D01*
X13750D01*
X3650Y47100D02*
X13750D01*
X200Y27750D02*
X4800D01*
X200Y37850D02*
X4800D01*
Y27750D02*
Y37850D01*
X200Y27750D02*
Y37850D01*
X28648Y18654D02*
Y23254D01*
X38748Y18654D02*
Y23254D01*
X28648Y18654D02*
X38748D01*
X28648Y23254D02*
X38748D01*
X45700Y43950D02*
X50300D01*
X45700Y54050D02*
X50300D01*
Y43950D02*
Y54050D01*
X45700Y43950D02*
Y54050D01*
D46*
X38009Y24676D02*
G03*
X38009Y24676I-492J0D01*
G01*
X13003Y52339D02*
G03*
X13003Y52339I-492J0D01*
G01*
D47*
X51599Y15577D02*
G03*
X51599Y15577I-197J0D01*
G01*
X5764Y57660D02*
G03*
X5764Y57660I-197J0D01*
G01*
X5172Y29591D02*
G03*
X5172Y29591I-197J0D01*
G01*
X50888Y63532D02*
G03*
X50888Y63532I-197J0D01*
G01*
D48*
X38698Y28809D02*
Y29991D01*
X50902Y28809D02*
Y29991D01*
X38698Y28809D02*
X50902D01*
X38698Y29991D02*
X50902D01*
X39198Y1798D02*
Y3372D01*
Y12428D02*
Y14002D01*
X51402Y1798D02*
Y3372D01*
Y12428D02*
Y14002D01*
X39198Y1798D02*
X40280D01*
X50320D02*
X51402D01*
X39198Y14002D02*
X40280D01*
X50320D02*
X51402D01*
X14424Y31166D02*
Y32328D01*
Y38272D02*
Y39434D01*
X4976Y38272D02*
Y39434D01*
Y31166D02*
Y32328D01*
X15070Y31670D02*
X16743D01*
X15070D02*
Y33343D01*
X34657Y31670D02*
X36330D01*
Y33343D01*
Y51257D02*
Y52930D01*
X34657D02*
X36330D01*
X15070D02*
X16743D01*
X15070Y51257D02*
Y52930D01*
X1439Y7425D02*
Y10575D01*
X11361Y7425D02*
Y10575D01*
M02*
