%FSLAX25Y25*%
%MOIN*%
G70*
G01*
G75*
G04 Layer_Color=128*
%ADD10C,0.00800*%
%ADD11R,0.01969X0.01969*%
%ADD12R,0.01969X0.01969*%
%ADD13R,0.02756X0.05118*%
%ADD14R,0.09370X0.06496*%
%ADD15R,0.00984X0.02756*%
%ADD16R,0.01929X0.01181*%
%ADD17R,0.02047X0.01181*%
%ADD18R,0.06299X0.03543*%
%ADD19R,0.01102X0.01969*%
%ADD20R,0.12205X0.12205*%
%ADD21R,0.00984X0.02362*%
%ADD22R,0.02362X0.00984*%
%ADD23R,0.10709X0.05079*%
%ADD24R,0.05787X0.04449*%
%ADD25R,0.03000X0.03000*%
%ADD26R,0.04449X0.05787*%
%ADD27R,0.03000X0.03000*%
%ADD28R,0.04331X0.03543*%
%ADD29C,0.02000*%
%ADD30C,0.00600*%
%ADD31C,0.01200*%
%ADD32C,0.01000*%
%ADD33C,0.00500*%
%ADD34C,0.05118*%
%ADD35C,0.01400*%
%ADD36C,0.01969*%
%ADD37R,0.01063X0.02047*%
%ADD38R,0.01417X0.02047*%
%ADD39R,0.02953X0.05906*%
%ADD40O,0.01575X0.05299*%
%ADD41O,0.01575X0.06874*%
%ADD42O,0.05299X0.01575*%
%ADD43O,0.06874X0.01575*%
%ADD44O,0.10024X0.01575*%
%ADD45R,0.08000X0.06300*%
%ADD46C,0.00984*%
%ADD47C,0.00394*%
%ADD48C,0.00787*%
%ADD49R,0.00984X0.01969*%
%ADD50R,0.05118X0.02756*%
%ADD51R,0.05512X0.05512*%
%ADD52R,0.05512X0.05906*%
%ADD53R,0.02756X0.00000*%
%ADD54R,0.02169X0.02169*%
%ADD55R,0.02169X0.02169*%
%ADD56R,0.02956X0.05318*%
%ADD57R,0.10173X0.07299*%
%ADD58R,0.01787X0.03559*%
%ADD59R,0.02323X0.01575*%
%ADD60R,0.02441X0.01575*%
%ADD61R,0.06850X0.04095*%
%ADD62R,0.01654X0.02520*%
%ADD63R,0.12405X0.12405*%
%ADD64R,0.10909X0.05279*%
%ADD65R,0.05987X0.04649*%
%ADD66R,0.03200X0.03200*%
%ADD67R,0.04649X0.05987*%
%ADD68R,0.03200X0.03200*%
%ADD69R,0.04531X0.03743*%
%ADD70C,0.00200*%
%ADD71C,0.02169*%
%ADD72R,0.01000X0.04000*%
%ADD73R,0.01263X0.02247*%
%ADD74R,0.01617X0.02247*%
%ADD75O,0.01775X0.05499*%
%ADD76O,0.01775X0.07074*%
%ADD77O,0.05499X0.01775*%
%ADD78O,0.07074X0.01775*%
%ADD79O,0.10224X0.01775*%
D37*
X37775Y2171D02*
D03*
X34625D02*
D03*
D38*
X36200Y6029D02*
D03*
D39*
X2431Y3900D02*
D03*
X6368D02*
D03*
D40*
X42823Y18150D02*
D03*
X8177D02*
D03*
Y60850D02*
D03*
X42823D02*
D03*
D41*
X39673Y18937D02*
D03*
X36524D02*
D03*
X33374D02*
D03*
X30224D02*
D03*
X27075D02*
D03*
X23925D02*
D03*
X20776D02*
D03*
X17626D02*
D03*
X14476D02*
D03*
X11327D02*
D03*
Y60063D02*
D03*
X14476D02*
D03*
X17626D02*
D03*
X20776D02*
D03*
X23925D02*
D03*
X27075D02*
D03*
X30224D02*
D03*
X33374D02*
D03*
X36524D02*
D03*
X39673D02*
D03*
D42*
X4150Y22177D02*
D03*
Y56823D02*
D03*
X46850D02*
D03*
Y22177D02*
D03*
D43*
X4937Y25327D02*
D03*
Y28476D02*
D03*
Y31626D02*
D03*
Y34776D02*
D03*
Y37925D02*
D03*
Y41075D02*
D03*
Y44224D02*
D03*
Y47374D02*
D03*
Y50524D02*
D03*
Y53673D02*
D03*
X46063D02*
D03*
Y50524D02*
D03*
Y47374D02*
D03*
Y44224D02*
D03*
Y41075D02*
D03*
Y34776D02*
D03*
Y31626D02*
D03*
Y28476D02*
D03*
Y25327D02*
D03*
D44*
X44488Y37925D02*
D03*
M02*
