%FSLAX25Y25*%
%MOIN*%
G70*
G01*
G75*
G04 Layer_Color=16711935*
%ADD10C,0.00800*%
%ADD11R,0.01969X0.01969*%
%ADD12R,0.01969X0.01969*%
%ADD13R,0.02756X0.05118*%
%ADD14R,0.09370X0.06496*%
%ADD15R,0.00984X0.02756*%
%ADD16R,0.01929X0.01181*%
%ADD17R,0.02047X0.01181*%
%ADD18R,0.06299X0.03543*%
%ADD19R,0.01102X0.01969*%
%ADD20R,0.12205X0.12205*%
%ADD21R,0.00984X0.02362*%
%ADD22R,0.02362X0.00984*%
%ADD23R,0.10709X0.05079*%
%ADD24R,0.05787X0.04449*%
%ADD25R,0.03000X0.03000*%
%ADD26R,0.04449X0.05787*%
%ADD27R,0.03000X0.03000*%
%ADD28R,0.04331X0.03543*%
%ADD29C,0.02000*%
%ADD30C,0.00600*%
%ADD31C,0.01200*%
%ADD32C,0.01000*%
%ADD33C,0.00500*%
%ADD34C,0.05118*%
%ADD35C,0.01400*%
%ADD36C,0.01969*%
%ADD37R,0.01063X0.02047*%
%ADD38R,0.01417X0.02047*%
%ADD39R,0.02953X0.05906*%
%ADD40O,0.01575X0.05299*%
%ADD41O,0.01575X0.06874*%
%ADD42O,0.05299X0.01575*%
%ADD43O,0.06874X0.01575*%
%ADD44O,0.10024X0.01575*%
%ADD45R,0.08000X0.06300*%
%ADD46C,0.00984*%
%ADD47C,0.00394*%
%ADD48C,0.00787*%
%ADD49R,0.00984X0.01969*%
%ADD50R,0.05118X0.02756*%
%ADD51R,0.05512X0.05512*%
%ADD52R,0.05512X0.05906*%
%ADD53R,0.02756X0.00000*%
%ADD54R,0.02169X0.02169*%
%ADD55R,0.02169X0.02169*%
%ADD56R,0.02956X0.05318*%
%ADD57R,0.10173X0.07299*%
%ADD58R,0.01787X0.03559*%
%ADD59R,0.02323X0.01575*%
%ADD60R,0.02441X0.01575*%
%ADD61R,0.06850X0.04095*%
%ADD62R,0.01654X0.02520*%
%ADD63R,0.12405X0.12405*%
%ADD64R,0.10909X0.05279*%
%ADD65R,0.05987X0.04649*%
%ADD66R,0.03200X0.03200*%
%ADD67R,0.04649X0.05987*%
%ADD68R,0.03200X0.03200*%
%ADD69R,0.04531X0.03743*%
%ADD70C,0.00200*%
%ADD71C,0.02169*%
%ADD72R,0.01000X0.04000*%
%ADD73R,0.01263X0.02247*%
%ADD74R,0.01617X0.02247*%
%ADD75O,0.01775X0.05499*%
%ADD76O,0.01775X0.07074*%
%ADD77O,0.05499X0.01775*%
%ADD78O,0.07074X0.01775*%
%ADD79O,0.10224X0.01775*%
%ADD80C,0.00000*%
%ADD81C,0.00000*%
D80*
X-0Y17750D02*
G03*
X-3903Y21653I-3903J0D01*
G01*
X-7908Y25557D02*
G03*
X-4005Y21653I3903J0D01*
G01*
X-3937Y29562D02*
G03*
X-7908Y25591I0J-3971D01*
G01*
X-3869Y29562D02*
G03*
X34Y33465I0J3903D01*
G01*
X-0Y33499D02*
G03*
X34Y33465I34J0D01*
G01*
X17717Y64961D02*
G03*
X21585Y68829I0J3869D01*
G01*
X25591Y72903D02*
G03*
X21585Y68898I0J-4005D01*
G01*
X29596Y68898D02*
G03*
X25591Y72903I-4005J0D01*
G01*
X29528Y68898D02*
G03*
X33465Y64961I3937J0D01*
G01*
X33465Y64960D02*
G03*
X33465Y64961I0J0D01*
G01*
X51181Y33430D02*
G03*
X55118Y29494I3937J0D01*
G01*
X59089Y25591D02*
G03*
X55186Y29494I-3903J0D01*
G01*
X55084Y21586D02*
G03*
X59089Y25591I0J4005D01*
G01*
X55050Y21586D02*
G03*
X51147Y17683I0J-3903D01*
G01*
X51181Y17601D02*
G03*
X51147Y17683I-116J0D01*
G01*
X-0Y-0D02*
Y17717D01*
Y17750D01*
X-4005Y21653D02*
X-3903D01*
X-7908Y25557D02*
Y25591D01*
X-3937Y29562D02*
X-3869D01*
X-0Y33499D02*
Y64961D01*
X17717D01*
X21585Y68829D02*
Y68898D01*
X29596Y68898D02*
Y68898D01*
Y68830D02*
Y68898D01*
X33465Y64961D02*
Y64961D01*
X33465Y64960D02*
Y64961D01*
X33465Y64961D02*
X51181D01*
Y33430D02*
Y64961D01*
X55118Y29494D02*
X55186D01*
X55050Y21586D02*
X55084D01*
X51181Y-0D02*
Y17601D01*
X-0Y-0D02*
X51181D01*
D81*
X33465Y64961D02*
D03*
M02*
