%FSLAX25Y25*%
%MOIN*%
G70*
G01*
G75*
G04 Layer_Physical_Order=4*
G04 Layer_Color=16711680*
%ADD10C,0.00800*%
%ADD11R,0.01969X0.01969*%
%ADD12R,0.01969X0.01969*%
%ADD13R,0.02756X0.05118*%
%ADD14R,0.09370X0.06496*%
%ADD15R,0.00984X0.02756*%
%ADD16R,0.01929X0.01181*%
%ADD17R,0.02047X0.01181*%
%ADD18R,0.06299X0.03543*%
%ADD19R,0.01102X0.01969*%
%ADD20R,0.12205X0.12205*%
%ADD21R,0.00984X0.02362*%
%ADD22R,0.02362X0.00984*%
%ADD23R,0.10709X0.05079*%
%ADD24R,0.05787X0.04449*%
%ADD25R,0.03000X0.03000*%
%ADD26R,0.04449X0.05787*%
%ADD27R,0.03000X0.03000*%
%ADD28R,0.04331X0.03543*%
%ADD29C,0.02000*%
%ADD30C,0.00600*%
%ADD31C,0.01200*%
%ADD32C,0.01000*%
%ADD33C,0.00500*%
%ADD34C,0.05118*%
%ADD35C,0.01400*%
%ADD36C,0.01969*%
%ADD37R,0.01063X0.02047*%
%ADD38R,0.01417X0.02047*%
%ADD39R,0.02953X0.05906*%
%ADD40O,0.01575X0.05299*%
%ADD41O,0.01575X0.06874*%
%ADD42O,0.05299X0.01575*%
%ADD43O,0.06874X0.01575*%
%ADD44O,0.10024X0.01575*%
%ADD45R,0.08000X0.06300*%
G36*
X35000Y8800D02*
X34000D01*
X33000Y9800D01*
Y11800D01*
X34000Y12800D01*
X35000D01*
Y8800D01*
D02*
G37*
G36*
X37700Y11800D02*
Y9800D01*
X36700Y8800D01*
X35700D01*
Y12800D01*
X36700D01*
X37700Y11800D01*
D02*
G37*
D30*
X37775Y2171D02*
X39300Y3696D01*
Y3900D01*
X43024Y50524D02*
X46063D01*
X44318Y53673D02*
X46063D01*
X44318Y56823D02*
X46850D01*
X30600Y49723D02*
Y49800D01*
X28837Y47960D02*
X30600Y49723D01*
X24700Y48745D02*
Y49700D01*
X23916Y47960D02*
X24700Y48745D01*
X4937Y37925D02*
X12225D01*
X15600Y41300D01*
X4937Y41075D02*
X13253D01*
X35900Y43300D02*
X36577D01*
X35900Y41300D02*
X36600D01*
X35900Y39300D02*
X36400D01*
X35900Y45200D02*
X36021D01*
X11327Y18937D02*
Y21627D01*
X23916Y36316D02*
Y47960D01*
X10669Y23174D02*
X10774D01*
X23916Y36316D01*
X8177Y20682D02*
X10669Y23174D01*
X8177Y18150D02*
Y20682D01*
X4150Y22177D02*
X8100D01*
X22700Y36777D01*
Y49700D01*
X18200Y49200D02*
X18900Y48500D01*
Y34600D02*
Y48500D01*
X9627Y25327D02*
X18900Y34600D01*
X4937Y25327D02*
X9627D01*
X17000Y47200D02*
X17100Y47100D01*
X13253Y41075D02*
X15479Y43300D01*
X15600D01*
X38600Y51105D02*
X44318Y56823D01*
X39700Y49055D02*
X44318Y53673D01*
X40800Y48300D02*
X43024Y50524D01*
X36000Y47300D02*
X36100D01*
X36021Y45200D02*
X37500Y46679D01*
X36577Y43300D02*
X38600Y45323D01*
Y51105D01*
X36600Y41300D02*
X39700Y44400D01*
Y49055D01*
X36400Y39300D02*
X40800Y43700D01*
Y48300D01*
X4937Y28476D02*
X7676D01*
X17100Y37900D01*
Y47100D01*
X27500Y48900D02*
X28300Y49700D01*
X19600Y27200D02*
X28837Y36437D01*
X25295Y35594D02*
X26439D01*
X27500Y36655D01*
Y48900D01*
X11327Y21627D02*
X25295Y35594D01*
X28837Y36437D02*
Y47960D01*
X14476Y22198D02*
X19479Y27200D01*
X19600D01*
X14476Y18937D02*
Y22198D01*
X36100Y47300D02*
Y53507D01*
X39673Y57080D01*
Y60063D01*
X37500Y46679D02*
Y52500D01*
X42823Y57823D01*
Y60850D01*
D31*
X6368Y3900D02*
Y7431D01*
X49172Y16700D02*
X49200Y16728D01*
X2431Y3900D02*
Y9331D01*
X2500Y9400D01*
D32*
X29024Y2171D02*
X34625D01*
X26100Y5094D02*
X29024Y2171D01*
X31205Y10200D02*
X33900D01*
X26100Y5094D02*
X31205Y10200D01*
X36271Y9200D02*
Y10029D01*
Y6029D02*
Y9200D01*
X36771Y8700D01*
X37200D01*
X39300Y12800D02*
X42100D01*
X46000Y16700D01*
X22000Y9194D02*
X26100Y5094D01*
X22000Y9194D02*
Y14100D01*
X23925Y16025D01*
Y18937D01*
X27075D01*
X11327Y57173D02*
Y60063D01*
Y57173D02*
X13400Y55100D01*
X19572D01*
X19700Y55228D01*
X20776Y18937D02*
X20900Y19061D01*
X33374Y60063D02*
X36524D01*
X43923Y22177D02*
X46850D01*
X41300Y24800D02*
X43923Y22177D01*
X41300Y24800D02*
Y35190D01*
X44035Y37925D01*
X44488D01*
X28300Y23900D02*
X29100Y24700D01*
X4700Y59400D02*
X6727D01*
X8177Y60850D01*
X4937Y50524D02*
X10326D01*
X11450Y49400D01*
X26528Y53528D02*
X26700Y53700D01*
X10172Y53528D02*
X26528D01*
X10000Y53700D02*
X10172Y53528D01*
X9700Y54000D02*
Y55600D01*
Y54000D02*
X10000Y53700D01*
X46000Y16700D02*
Y19900D01*
X20900Y19061D02*
Y21800D01*
X23000Y23900D01*
X28300D01*
X14476Y60063D02*
X15113Y60700D01*
X16800D01*
X16989D01*
X17626Y60063D01*
D33*
X15550Y45350D02*
X15600Y45300D01*
X15550Y45350D02*
Y48601D01*
X42974Y47374D02*
X46063D01*
X15550Y48601D02*
X18749Y51800D01*
X32700D01*
X34450Y50050D01*
Y38699D02*
X35299Y37850D01*
X36950D01*
X41850Y42750D01*
X34450Y38699D02*
Y50050D01*
X41850Y46250D02*
X42974Y47374D01*
X41850Y42750D02*
Y46250D01*
X33000Y37300D02*
Y49100D01*
X21550Y25850D02*
X33000Y37300D01*
X17626Y18937D02*
Y20926D01*
X21550Y24850D01*
Y25850D01*
D34*
X26100Y5094D02*
D03*
Y11000D02*
D03*
D35*
X6368Y7431D02*
D03*
X39300Y3900D02*
D03*
X37200Y8700D02*
D03*
X33800Y30500D02*
D03*
X30700Y12200D02*
D03*
X39300Y12800D02*
D03*
X34100Y7200D02*
D03*
X30900D02*
D03*
X19500Y25100D02*
D03*
X24100Y25900D02*
D03*
X47400Y2200D02*
D03*
X30600Y49800D02*
D03*
X24700Y49700D02*
D03*
X22700D02*
D03*
X28300D02*
D03*
X15600Y41300D02*
D03*
X35900Y45200D02*
D03*
Y43300D02*
D03*
Y41300D02*
D03*
Y39300D02*
D03*
X17000Y47200D02*
D03*
X18200Y49200D02*
D03*
X26700Y53700D02*
D03*
X19700Y55228D02*
D03*
X30200Y62500D02*
D03*
X20400D02*
D03*
X16800Y60700D02*
D03*
X2300Y63400D02*
D03*
X4700Y59400D02*
D03*
X29100Y24700D02*
D03*
X29200Y28300D02*
D03*
X15600Y43300D02*
D03*
Y45300D02*
D03*
X33000Y49100D02*
D03*
X42400Y38300D02*
D03*
X36000Y47300D02*
D03*
X43500Y44300D02*
D03*
X29800Y58800D02*
D03*
X36600Y62600D02*
D03*
X35700Y55228D02*
D03*
X47246Y61859D02*
D03*
X42800Y20000D02*
D03*
X46000Y19900D02*
D03*
X42700Y41100D02*
D03*
X10000Y53700D02*
D03*
X9700Y55600D02*
D03*
X2300Y59500D02*
D03*
X5400Y53500D02*
D03*
X11450Y49400D02*
D03*
X12084Y43800D02*
D03*
X49200Y16728D02*
D03*
X35869Y28254D02*
D03*
X38400Y30500D02*
D03*
X38500Y28400D02*
D03*
X17100Y35400D02*
D03*
X15100Y33300D02*
D03*
X2200Y56800D02*
D03*
X5400Y63400D02*
D03*
X1700Y61400D02*
D03*
X10300Y28800D02*
D03*
X2500Y9400D02*
D03*
D36*
X43332Y5931D02*
D03*
Y9868D02*
D03*
X47269Y5931D02*
D03*
Y9868D02*
D03*
X11275Y35300D02*
D03*
X8125D02*
D03*
X30621Y37379D02*
D03*
X25700D02*
D03*
X20779D02*
D03*
X30621Y42300D02*
D03*
X25700D02*
D03*
X20779D02*
D03*
X30621Y47221D02*
D03*
X25700D02*
D03*
X20779D02*
D03*
D37*
X37775Y2171D02*
D03*
X34625D02*
D03*
D38*
X36200Y6029D02*
D03*
D39*
X2431Y3900D02*
D03*
X6368D02*
D03*
D40*
X42823Y18150D02*
D03*
X8177D02*
D03*
Y60850D02*
D03*
X42823D02*
D03*
D41*
X39673Y18937D02*
D03*
X36524D02*
D03*
X33374D02*
D03*
X30224D02*
D03*
X27075D02*
D03*
X23925D02*
D03*
X20776D02*
D03*
X17626D02*
D03*
X14476D02*
D03*
X11327D02*
D03*
Y60063D02*
D03*
X14476D02*
D03*
X17626D02*
D03*
X20776D02*
D03*
X23925D02*
D03*
X27075D02*
D03*
X30224D02*
D03*
X33374D02*
D03*
X36524D02*
D03*
X39673D02*
D03*
D42*
X4150Y22177D02*
D03*
Y56823D02*
D03*
X46850D02*
D03*
Y22177D02*
D03*
D43*
X4937Y25327D02*
D03*
Y28476D02*
D03*
Y31626D02*
D03*
Y34776D02*
D03*
Y37925D02*
D03*
Y41075D02*
D03*
Y44224D02*
D03*
Y47374D02*
D03*
Y50524D02*
D03*
Y53673D02*
D03*
X46063D02*
D03*
Y50524D02*
D03*
Y47374D02*
D03*
Y44224D02*
D03*
Y41075D02*
D03*
Y34776D02*
D03*
Y31626D02*
D03*
Y28476D02*
D03*
Y25327D02*
D03*
D44*
X44488Y37925D02*
D03*
D45*
X45900Y7850D02*
D03*
M02*
