M48
;Layer_Color=9474304
;FILE_FORMAT=2:5
INCH,LZ
;TYPE=PLATED
T1F00S00C0.00700
T2F00S00C0.00787
T3F00S00C0.03937
;TYPE=NON_PLATED
T4F00S00C0.03937
%
T01
X00025Y00094
X0006368Y0007431
X00309Y00072
X00341
X00372Y00087
X00393Y00128
Y00039
X00474Y00022
X00492Y0016728
X0046Y00199
X00428Y002
X00385Y00284
X00384Y00305
X00338
X0035869Y0028254
X00292Y00283
X00291Y00247
X00241Y00259
X00195Y00251
X00151Y00333
X00171Y00354
X00156Y00413
Y00433
Y00453
X0017Y00472
X00182Y00492
X00227Y00497
X00247
X00283
X00306Y00498
X0033Y00491
X0036Y00473
X00359Y00452
Y00433
Y00413
Y00393
X00424Y00383
X00427Y00411
X00435Y00443
X00357Y0055228
X00366Y00626
X00302Y00625
X00298Y00588
X00267Y00537
X00197Y0055228
X00204Y00625
X00168Y00607
X00097Y00556
X001Y00537
X00054Y00535
X00022Y00568
X00023Y00595
X00047Y00594
X00054Y00634
X00023
X00017Y00614
X001145Y00494
X0012084Y00438
X00103Y00288
X00307Y00122
X0047246Y0061859
T02
X0008125Y00353
X0011275
X0020779Y0037379
X00257
X0030621
Y00423
X00257
X0020779
Y0047221
X00257
X0030621
X0043332Y0009868
Y0005931
X0047269
Y0009868
T03
X00261Y0005094
Y0011
T04
X-0003937Y0025591
X0055118
X0025591Y0068898
M30
