%FSLAX23Y23*%
%MOIN*%
G70*
G01*
G75*
G04 Layer_Color=16711935*
%ADD10C,0.008*%
%ADD11R,0.030X0.030*%
%ADD12R,0.020X0.020*%
%ADD13R,0.020X0.020*%
%ADD14R,0.043X0.035*%
%ADD15R,0.030X0.030*%
%ADD16R,0.044X0.058*%
%ADD17R,0.058X0.044*%
%ADD18R,0.107X0.051*%
%ADD19R,0.024X0.010*%
%ADD20R,0.010X0.024*%
%ADD21R,0.122X0.122*%
%ADD22R,0.011X0.020*%
%ADD23R,0.063X0.035*%
%ADD24R,0.020X0.012*%
%ADD25R,0.019X0.012*%
%ADD26R,0.010X0.028*%
%ADD27R,0.094X0.065*%
%ADD28R,0.028X0.051*%
%ADD29C,0.010*%
%ADD30C,0.006*%
%ADD31C,0.012*%
%ADD32C,0.020*%
%ADD33C,0.005*%
%ADD34C,0.051*%
%ADD35C,0.016*%
%ADD36C,0.020*%
%ADD37O,0.053X0.016*%
%ADD38O,0.069X0.016*%
%ADD39O,0.100X0.016*%
%ADD40O,0.016X0.053*%
%ADD41O,0.016X0.069*%
%ADD42R,0.030X0.059*%
%ADD43R,0.014X0.020*%
%ADD44R,0.011X0.020*%
%ADD45R,0.080X0.063*%
%ADD46C,0.004*%
%ADD47C,0.010*%
%ADD48C,0.008*%
%ADD49R,0.032X0.032*%
%ADD50R,0.022X0.022*%
%ADD51R,0.022X0.022*%
%ADD52R,0.045X0.037*%
%ADD53R,0.032X0.032*%
%ADD54R,0.046X0.060*%
%ADD55R,0.060X0.046*%
%ADD56R,0.109X0.053*%
%ADD57R,0.124X0.124*%
%ADD58R,0.017X0.025*%
%ADD59R,0.069X0.041*%
%ADD60R,0.024X0.016*%
%ADD61R,0.023X0.016*%
%ADD62R,0.018X0.036*%
%ADD63R,0.102X0.073*%
%ADD64R,0.030X0.053*%
%ADD65C,0.002*%
%ADD66C,0.022*%
%ADD67R,0.010X0.040*%
%ADD68O,0.055X0.018*%
%ADD69O,0.071X0.018*%
%ADD70O,0.102X0.018*%
%ADD71O,0.018X0.055*%
%ADD72O,0.018X0.071*%
%ADD73R,0.016X0.022*%
%ADD74R,0.013X0.022*%
G36*
X350Y88D02*
X340D01*
X330Y98D01*
Y118D01*
X340Y128D01*
X350D01*
Y88D01*
D02*
G37*
G36*
X377Y118D02*
Y98D01*
X367Y88D01*
X357D01*
Y128D01*
X367D01*
X377Y118D01*
D02*
G37*
D34*
X261Y110D02*
D03*
Y51D02*
D03*
D42*
X64Y39D02*
D03*
X24D02*
D03*
D65*
X-39Y256D02*
D03*
X551D02*
D03*
X256Y689D02*
D03*
D66*
X473Y99D02*
D03*
Y59D02*
D03*
X433Y99D02*
D03*
Y59D02*
D03*
D67*
X354Y108D02*
D03*
D68*
X469Y222D02*
D03*
Y568D02*
D03*
X41D02*
D03*
Y222D02*
D03*
D69*
X461Y253D02*
D03*
Y285D02*
D03*
Y316D02*
D03*
Y348D02*
D03*
Y411D02*
D03*
Y442D02*
D03*
Y474D02*
D03*
Y505D02*
D03*
Y537D02*
D03*
X49D02*
D03*
Y505D02*
D03*
Y474D02*
D03*
Y442D02*
D03*
Y411D02*
D03*
Y379D02*
D03*
Y348D02*
D03*
Y316D02*
D03*
Y285D02*
D03*
Y253D02*
D03*
D70*
X445Y379D02*
D03*
D71*
X428Y609D02*
D03*
X82D02*
D03*
Y181D02*
D03*
X428D02*
D03*
D72*
X397Y601D02*
D03*
X365D02*
D03*
X334D02*
D03*
X302D02*
D03*
X271D02*
D03*
X239D02*
D03*
X208D02*
D03*
X176D02*
D03*
X145D02*
D03*
X113D02*
D03*
Y189D02*
D03*
X145D02*
D03*
X176D02*
D03*
X208D02*
D03*
X239D02*
D03*
X271D02*
D03*
X302D02*
D03*
X334D02*
D03*
X365D02*
D03*
X397D02*
D03*
D73*
X362Y60D02*
D03*
D74*
X346Y22D02*
D03*
X378D02*
D03*
M02*
