%FSLAX23Y23*%
%MOIN*%
G70*
G01*
G75*
G04 Layer_Physical_Order=2*
G04 Layer_Color=36540*
%ADD10C,0.008*%
%ADD11R,0.030X0.030*%
%ADD12R,0.020X0.020*%
%ADD13R,0.020X0.020*%
%ADD14R,0.043X0.035*%
%ADD15R,0.030X0.030*%
%ADD16R,0.044X0.058*%
%ADD17R,0.058X0.044*%
%ADD18R,0.107X0.051*%
%ADD19R,0.024X0.010*%
%ADD20R,0.010X0.024*%
%ADD21R,0.122X0.122*%
%ADD22R,0.011X0.020*%
%ADD23R,0.063X0.035*%
%ADD24R,0.020X0.012*%
%ADD25R,0.019X0.012*%
%ADD26R,0.010X0.028*%
%ADD27R,0.094X0.065*%
%ADD28R,0.028X0.051*%
%ADD29C,0.010*%
%ADD30C,0.006*%
%ADD31C,0.012*%
%ADD32C,0.020*%
%ADD33C,0.005*%
%ADD34C,0.051*%
%ADD35C,0.016*%
%ADD36C,0.020*%
G36*
X38Y640D02*
X42Y635D01*
X42Y634D01*
X43Y629D01*
X45Y625D01*
X49Y623D01*
X54Y622D01*
X59Y623D01*
X63Y625D01*
X65Y629D01*
X66Y634D01*
X66Y635D01*
X70Y640D01*
X196Y640D01*
X197Y635D01*
X195Y634D01*
X193Y630D01*
X192Y625D01*
X193Y620D01*
X195Y616D01*
X199Y614D01*
X204Y613D01*
X209Y614D01*
X213Y616D01*
X215Y620D01*
X216Y625D01*
X215Y630D01*
X213Y634D01*
X211Y635D01*
X212Y640D01*
X356Y640D01*
X358Y635D01*
X357Y635D01*
X355Y631D01*
X354Y626D01*
X355Y621D01*
X357Y617D01*
X361Y615D01*
X366Y614D01*
X371Y615D01*
X375Y617D01*
X377Y621D01*
X378Y626D01*
X377Y631D01*
X375Y635D01*
X374Y635D01*
X376Y640D01*
X500Y640D01*
X500Y14D01*
X496Y10D01*
X486D01*
X486Y10D01*
X484Y15D01*
X485Y17D01*
X486Y22D01*
X485Y27D01*
X483Y31D01*
X479Y33D01*
X474Y34D01*
X469Y33D01*
X465Y31D01*
X463Y27D01*
X462Y22D01*
X463Y17D01*
X464Y15D01*
X462Y10D01*
X462Y10D01*
X10Y10D01*
Y86D01*
X15Y87D01*
X16Y85D01*
X20Y83D01*
X25Y82D01*
X30Y83D01*
X34Y85D01*
X36Y89D01*
X37Y94D01*
X36Y99D01*
X34Y103D01*
X30Y105D01*
X25Y106D01*
X20Y105D01*
X16Y103D01*
X15Y101D01*
X10Y102D01*
X10Y556D01*
X10Y556D01*
X15Y558D01*
X17Y557D01*
X22Y556D01*
X27Y557D01*
X31Y559D01*
X33Y563D01*
X36Y564D01*
X39Y564D01*
X54Y549D01*
X57Y547D01*
X61Y546D01*
X85D01*
X87Y544D01*
X89Y541D01*
X88Y537D01*
X89Y532D01*
X91Y528D01*
X95Y526D01*
X100Y525D01*
X105Y526D01*
X109Y528D01*
X111Y532D01*
X112Y537D01*
X111Y542D01*
X109Y546D01*
X106Y548D01*
X108Y551D01*
X109Y556D01*
X108Y561D01*
X106Y565D01*
X102Y567D01*
X97Y568D01*
X92Y567D01*
X91Y566D01*
X65D01*
X53Y578D01*
X54Y584D01*
X56Y585D01*
X58Y589D01*
X59Y594D01*
X58Y599D01*
X56Y603D01*
X52Y605D01*
X47Y606D01*
X42Y605D01*
X38Y603D01*
X38Y603D01*
X32D01*
X32Y604D01*
X31Y604D01*
X28Y609D01*
X29Y614D01*
X28Y619D01*
X26Y623D01*
X22Y625D01*
X17Y626D01*
X15Y626D01*
X10Y629D01*
Y636D01*
X14Y640D01*
X38D01*
D02*
G37*
%LPC*%
G36*
X393Y140D02*
X388Y139D01*
X384Y137D01*
X382Y133D01*
X381Y128D01*
X382Y123D01*
X384Y119D01*
X388Y117D01*
X393Y116D01*
X398Y117D01*
X402Y119D01*
X404Y123D01*
X405Y128D01*
X404Y133D01*
X402Y137D01*
X398Y139D01*
X393Y140D01*
D02*
G37*
G36*
X261Y141D02*
X253Y140D01*
X246Y137D01*
X239Y132D01*
X234Y125D01*
X231Y118D01*
X230Y110D01*
X231Y102D01*
X234Y95D01*
X239Y88D01*
X246Y83D01*
X253Y80D01*
X261Y79D01*
X269Y80D01*
X276Y83D01*
X283Y88D01*
X288Y95D01*
X291Y102D01*
X292Y110D01*
X291Y115D01*
D01*
X291Y116D01*
X291Y116D01*
X291Y116D01*
X291Y116D01*
X295Y117D01*
X296Y117D01*
X296Y116D01*
Y116D01*
X298Y113D01*
X302Y111D01*
X307Y110D01*
X312Y111D01*
X316Y113D01*
X318Y117D01*
X319Y122D01*
X318Y127D01*
X316Y131D01*
X312Y133D01*
X307Y134D01*
X302Y133D01*
X298Y131D01*
X296Y127D01*
X295Y122D01*
D01*
X295Y122D01*
Y122D01*
X291Y120D01*
X290Y120D01*
X290Y120D01*
X290Y120D01*
X290Y120D01*
X290Y121D01*
Y121D01*
X288Y125D01*
X283Y132D01*
X276Y137D01*
X269Y140D01*
X261Y141D01*
D02*
G37*
G36*
X460Y211D02*
X455Y210D01*
X451Y208D01*
X449Y204D01*
X448Y199D01*
X449Y194D01*
X451Y190D01*
X455Y188D01*
X460Y187D01*
X465Y188D01*
X469Y190D01*
X471Y194D01*
X472Y199D01*
X471Y204D01*
X469Y208D01*
X465Y210D01*
X460Y211D01*
D02*
G37*
G36*
X384Y317D02*
X379Y316D01*
X375Y314D01*
X373Y310D01*
X372Y305D01*
X373Y300D01*
X375Y297D01*
X375Y296D01*
X375Y291D01*
X374Y289D01*
X373Y284D01*
X374Y279D01*
X376Y275D01*
X380Y273D01*
X385Y272D01*
X390Y273D01*
X394Y275D01*
X396Y279D01*
X397Y284D01*
X396Y289D01*
X394Y292D01*
X394Y293D01*
X394Y298D01*
X395Y300D01*
X396Y305D01*
X395Y310D01*
X393Y314D01*
X389Y316D01*
X384Y317D01*
D02*
G37*
G36*
X241Y271D02*
X236Y270D01*
X232Y268D01*
X230Y264D01*
X229Y259D01*
X230Y254D01*
X232Y250D01*
X236Y248D01*
X241Y247D01*
X246Y248D01*
X250Y250D01*
X252Y254D01*
X253Y259D01*
X252Y264D01*
X250Y268D01*
X246Y270D01*
X241Y271D01*
D02*
G37*
G36*
X291Y259D02*
X286Y258D01*
X282Y256D01*
X280Y252D01*
X279Y247D01*
X280Y242D01*
X282Y238D01*
X286Y236D01*
X291Y235D01*
X296Y236D01*
X300Y238D01*
X302Y242D01*
X303Y247D01*
X302Y252D01*
X300Y256D01*
X296Y258D01*
X291Y259D01*
D02*
G37*
G36*
X473Y114D02*
X467Y113D01*
X462Y109D01*
X459Y104D01*
X458Y99D01*
X459Y93D01*
X462Y88D01*
X467Y85D01*
X473Y84D01*
X478Y85D01*
X483Y88D01*
X487Y93D01*
X488Y99D01*
X487Y104D01*
X483Y109D01*
X478Y113D01*
X473Y114D01*
D02*
G37*
G36*
Y74D02*
X467Y73D01*
X462Y70D01*
X459Y65D01*
X458Y59D01*
X459Y54D01*
X462Y49D01*
X467Y45D01*
X473Y44D01*
X478Y45D01*
X483Y49D01*
X487Y54D01*
X488Y59D01*
X487Y65D01*
X483Y70D01*
X478Y73D01*
X473Y74D01*
D02*
G37*
G36*
X433D02*
X428Y73D01*
X423Y70D01*
X419Y65D01*
X418Y59D01*
X419Y54D01*
X423Y49D01*
X428Y45D01*
X433Y44D01*
X439Y45D01*
X444Y49D01*
X447Y54D01*
X448Y59D01*
X447Y65D01*
X444Y70D01*
X439Y73D01*
X433Y74D01*
D02*
G37*
G36*
X338Y317D02*
X333Y316D01*
X329Y314D01*
X327Y310D01*
X326Y305D01*
X327Y300D01*
X329Y296D01*
X330Y296D01*
Y99D01*
X330Y99D01*
X330Y96D01*
X332Y93D01*
X337Y89D01*
X337Y86D01*
X336Y83D01*
X332Y81D01*
X330Y77D01*
X329Y72D01*
X330Y67D01*
X332Y63D01*
X336Y61D01*
X341Y60D01*
X346Y61D01*
X350Y63D01*
X352Y67D01*
X355Y68D01*
X358Y68D01*
X382Y44D01*
X382Y44D01*
X381Y39D01*
X382Y34D01*
X384Y30D01*
X388Y28D01*
X393Y27D01*
X398Y28D01*
X402Y30D01*
X404Y34D01*
X405Y39D01*
X404Y44D01*
X402Y48D01*
X399Y49D01*
X399Y50D01*
X399Y50D01*
X377Y71D01*
X379Y77D01*
X381Y78D01*
X383Y82D01*
X384Y87D01*
X383Y92D01*
X381Y96D01*
X377Y98D01*
X372Y99D01*
X367Y98D01*
X363Y96D01*
X362Y94D01*
X356Y92D01*
X346Y102D01*
Y296D01*
X347Y296D01*
X349Y300D01*
X350Y305D01*
X349Y310D01*
X347Y314D01*
X343Y316D01*
X338Y317D01*
D02*
G37*
G36*
X433Y114D02*
X428Y113D01*
X423Y109D01*
X419Y104D01*
X418Y99D01*
X419Y93D01*
X423Y88D01*
X428Y85D01*
X433Y84D01*
X439Y85D01*
X444Y88D01*
X447Y93D01*
X448Y99D01*
X447Y104D01*
X444Y109D01*
X439Y113D01*
X433Y114D01*
D02*
G37*
G36*
X64Y87D02*
X59Y86D01*
X55Y83D01*
X52Y79D01*
X51Y74D01*
X52Y70D01*
X55Y66D01*
X59Y63D01*
X64Y62D01*
X68Y63D01*
X72Y66D01*
X75Y70D01*
X76Y74D01*
X75Y79D01*
X72Y83D01*
X68Y86D01*
X64Y87D01*
D02*
G37*
G36*
X309Y84D02*
X304Y83D01*
X300Y81D01*
X298Y77D01*
X297Y72D01*
X298Y67D01*
X300Y63D01*
X304Y61D01*
X309Y60D01*
X314Y61D01*
X318Y63D01*
X320Y67D01*
X321Y72D01*
X320Y77D01*
X318Y81D01*
X314Y83D01*
X309Y84D01*
D02*
G37*
G36*
X103Y300D02*
X98Y299D01*
X94Y297D01*
X92Y293D01*
X91Y288D01*
X92Y283D01*
X94Y279D01*
X98Y277D01*
X103Y276D01*
X108Y277D01*
X112Y279D01*
X114Y283D01*
X115Y288D01*
X114Y293D01*
X112Y297D01*
X108Y299D01*
X103Y300D01*
D02*
G37*
G36*
X267Y549D02*
X262Y548D01*
X258Y546D01*
X256Y542D01*
X255Y537D01*
X256Y532D01*
X258Y528D01*
X262Y526D01*
X267Y525D01*
X272Y526D01*
X276Y528D01*
X278Y532D01*
X279Y537D01*
X278Y542D01*
X276Y546D01*
X272Y548D01*
X267Y549D01*
D02*
G37*
G36*
X247Y509D02*
X242Y508D01*
X238Y506D01*
X236D01*
X232Y508D01*
X227Y509D01*
X222Y508D01*
X218Y506D01*
X216Y502D01*
X215Y497D01*
X216Y492D01*
X218Y488D01*
X222Y486D01*
X227Y485D01*
X232Y486D01*
X233Y487D01*
X237Y488D01*
X241Y487D01*
X242Y486D01*
X247Y485D01*
X252Y486D01*
X256Y488D01*
X258Y492D01*
X259Y497D01*
X258Y502D01*
X256Y506D01*
X252Y508D01*
X247Y509D01*
D02*
G37*
G36*
X306Y510D02*
X301Y509D01*
X297Y507D01*
X297Y506D01*
X292Y506D01*
X288Y508D01*
X283Y509D01*
X278Y508D01*
X274Y506D01*
X272Y502D01*
X271Y497D01*
X272Y492D01*
X274Y488D01*
X278Y486D01*
X283Y485D01*
X288Y486D01*
X292Y488D01*
X292Y489D01*
X297Y489D01*
X301Y487D01*
X306Y486D01*
X311Y487D01*
X313Y488D01*
X318Y487D01*
X319Y486D01*
X319Y486D01*
X321Y482D01*
X325Y480D01*
X330Y479D01*
X335Y480D01*
X339Y482D01*
X341Y486D01*
X342Y491D01*
X341Y496D01*
X339Y500D01*
X335Y502D01*
X330Y503D01*
X325Y502D01*
X323Y501D01*
X318Y502D01*
X317Y503D01*
X317Y503D01*
X315Y507D01*
X311Y509D01*
X306Y510D01*
D02*
G37*
G36*
X472Y631D02*
X468Y630D01*
X464Y627D01*
X461Y623D01*
X460Y619D01*
X461Y614D01*
X464Y610D01*
X468Y607D01*
X472Y606D01*
X477Y607D01*
X481Y610D01*
X484Y614D01*
X485Y619D01*
X484Y623D01*
X481Y627D01*
X477Y630D01*
X472Y631D01*
D02*
G37*
G36*
X357Y565D02*
X352Y564D01*
X348Y561D01*
X346Y557D01*
X345Y552D01*
X346Y548D01*
X348Y544D01*
X352Y541D01*
X357Y540D01*
X362Y541D01*
X366Y544D01*
X368Y548D01*
X369Y552D01*
X368Y557D01*
X366Y561D01*
X362Y564D01*
X357Y565D01*
D02*
G37*
G36*
X197D02*
X192Y564D01*
X188Y561D01*
X186Y557D01*
X185Y552D01*
X186Y548D01*
X188Y544D01*
X192Y541D01*
X197Y540D01*
X202Y541D01*
X206Y544D01*
X208Y548D01*
X209Y552D01*
X208Y557D01*
X206Y561D01*
X202Y564D01*
X197Y565D01*
D02*
G37*
G36*
X115Y506D02*
X110Y505D01*
X106Y503D01*
X103Y499D01*
X102Y494D01*
X103Y489D01*
X106Y485D01*
X110Y483D01*
X115Y482D01*
X119Y483D01*
X123Y485D01*
X126Y489D01*
X127Y494D01*
X126Y499D01*
X123Y503D01*
X119Y505D01*
X115Y506D01*
D02*
G37*
G36*
X360Y485D02*
X355Y484D01*
X351Y482D01*
X349Y478D01*
X348Y473D01*
X349Y468D01*
X350Y466D01*
X350Y461D01*
X350Y460D01*
X348Y457D01*
X347Y452D01*
X348Y447D01*
X348Y446D01*
X350Y442D01*
X348Y439D01*
X348Y438D01*
X347Y433D01*
X348Y428D01*
X349Y427D01*
X350Y423D01*
X349Y419D01*
X348Y418D01*
X347Y413D01*
X348Y408D01*
X349Y407D01*
X350Y403D01*
X349Y399D01*
X348Y398D01*
X347Y393D01*
X348Y388D01*
X350Y384D01*
X354Y382D01*
X359Y381D01*
X364Y382D01*
X368Y384D01*
X370Y388D01*
X371Y393D01*
X370Y398D01*
X369Y399D01*
X368Y403D01*
X369Y407D01*
X370Y408D01*
X371Y413D01*
X370Y418D01*
X369Y419D01*
X368Y423D01*
X369Y427D01*
X370Y428D01*
X371Y433D01*
X370Y438D01*
X370Y439D01*
X368Y442D01*
X370Y446D01*
X370Y447D01*
X371Y452D01*
X370Y457D01*
X369Y459D01*
X369Y464D01*
X369Y465D01*
X371Y468D01*
X372Y473D01*
X371Y478D01*
X369Y482D01*
X365Y484D01*
X360Y485D01*
D02*
G37*
G36*
X424Y395D02*
X419Y394D01*
X415Y392D01*
X413Y388D01*
X412Y383D01*
X413Y378D01*
X415Y374D01*
X419Y372D01*
X424Y371D01*
X429Y372D01*
X433Y374D01*
X435Y378D01*
X436Y383D01*
X435Y388D01*
X433Y392D01*
X429Y394D01*
X424Y395D01*
D02*
G37*
G36*
X171Y366D02*
X166Y365D01*
X162Y363D01*
X160Y359D01*
X159Y354D01*
X160Y349D01*
X161Y348D01*
X161Y348D01*
X162Y346D01*
X162Y346D01*
X162Y346D01*
X161Y346D01*
X159Y343D01*
X158Y343D01*
X158Y343D01*
X158Y343D01*
X157Y344D01*
X157D01*
X156Y344D01*
X151Y345D01*
X146Y344D01*
X142Y342D01*
X140Y338D01*
X139Y333D01*
X140Y328D01*
X142Y324D01*
X146Y322D01*
X151Y321D01*
X156Y322D01*
X160Y324D01*
X162Y328D01*
X163Y333D01*
X162Y338D01*
X161Y339D01*
X161Y339D01*
X160Y341D01*
X160Y341D01*
X160Y341D01*
X161Y341D01*
X163Y344D01*
X164Y344D01*
X164Y344D01*
X164Y344D01*
X165Y343D01*
X165D01*
X166Y343D01*
X171Y342D01*
X176Y343D01*
X180Y345D01*
X182Y349D01*
X183Y354D01*
X182Y359D01*
X180Y363D01*
X176Y365D01*
X171Y366D01*
D02*
G37*
G36*
X435Y455D02*
X430Y454D01*
X426Y452D01*
X424Y448D01*
X423Y443D01*
X424Y438D01*
X426Y434D01*
X430Y432D01*
X435Y431D01*
X440Y432D01*
X444Y434D01*
X446Y438D01*
X447Y443D01*
X446Y448D01*
X444Y452D01*
X440Y454D01*
X435Y455D01*
D02*
G37*
G36*
X121Y450D02*
X116Y449D01*
X112Y447D01*
X110Y443D01*
X109Y438D01*
X110Y433D01*
X112Y429D01*
X116Y427D01*
X121Y426D01*
X126Y427D01*
X129Y429D01*
X132Y433D01*
X133Y438D01*
X132Y443D01*
X129Y447D01*
X126Y449D01*
X121Y450D01*
D02*
G37*
G36*
X182Y504D02*
X177Y503D01*
X173Y501D01*
X171Y497D01*
X170Y492D01*
X170Y489D01*
X170Y487D01*
X167Y484D01*
X165Y483D01*
X161Y481D01*
X159Y477D01*
X158Y472D01*
X158Y470D01*
X156Y466D01*
X154Y465D01*
X151Y464D01*
X147Y462D01*
X145Y458D01*
X144Y453D01*
X145Y448D01*
X146Y447D01*
X147Y443D01*
X146Y439D01*
X145Y438D01*
X144Y433D01*
X145Y428D01*
X147Y424D01*
Y422D01*
X145Y418D01*
X144Y413D01*
X145Y408D01*
X147Y404D01*
X151Y402D01*
X156Y401D01*
X161Y402D01*
X165Y404D01*
X167Y408D01*
X168Y413D01*
X167Y418D01*
X165Y422D01*
Y424D01*
X167Y428D01*
X168Y433D01*
X167Y438D01*
X166Y439D01*
X165Y443D01*
X166Y447D01*
X167Y448D01*
X168Y453D01*
X168Y455D01*
X170Y459D01*
X172Y460D01*
X175Y461D01*
X179Y463D01*
X181Y467D01*
X182Y472D01*
X182Y475D01*
X182Y477D01*
X185Y480D01*
X187Y481D01*
X191Y483D01*
X193Y487D01*
X194Y492D01*
X193Y497D01*
X191Y501D01*
X187Y503D01*
X182Y504D01*
D02*
G37*
%LPD*%
D29*
X61Y556D02*
X97D01*
X23Y594D02*
X61Y556D01*
X23Y594D02*
Y595D01*
D30*
X338Y99D02*
Y305D01*
Y99D02*
X393Y44D01*
Y39D02*
Y44D01*
D34*
X261Y51D02*
D03*
D35*
X359Y283D02*
D03*
X492Y167D02*
D03*
X54Y535D02*
D03*
X23Y595D02*
D03*
X97Y556D02*
D03*
X427Y411D02*
D03*
X428Y200D02*
D03*
X298Y588D02*
D03*
X292Y283D02*
D03*
X23Y634D02*
D03*
X168Y607D02*
D03*
X302Y625D02*
D03*
X195Y251D02*
D03*
X338Y305D02*
D03*
X393Y39D02*
D03*
D36*
X208Y472D02*
D03*
X257D02*
D03*
X306D02*
D03*
X208Y423D02*
D03*
X257D02*
D03*
X306D02*
D03*
X208Y374D02*
D03*
X257D02*
D03*
X306D02*
D03*
X81Y353D02*
D03*
X113D02*
D03*
M02*
