%FSLAX23Y23*%
%MOIN*%
G70*
G01*
G75*
G04 Layer_Physical_Order=3*
G04 Layer_Color=16440176*
%ADD10C,0.008*%
%ADD11R,0.030X0.030*%
%ADD12R,0.020X0.020*%
%ADD13R,0.020X0.020*%
%ADD14R,0.043X0.035*%
%ADD15R,0.030X0.030*%
%ADD16R,0.044X0.058*%
%ADD17R,0.058X0.044*%
%ADD18R,0.107X0.051*%
%ADD19R,0.024X0.010*%
%ADD20R,0.010X0.024*%
%ADD21R,0.122X0.122*%
%ADD22R,0.011X0.020*%
%ADD23R,0.063X0.035*%
%ADD24R,0.020X0.012*%
%ADD25R,0.019X0.012*%
%ADD26R,0.010X0.028*%
%ADD27R,0.094X0.065*%
%ADD28R,0.028X0.051*%
%ADD29C,0.010*%
%ADD30C,0.006*%
%ADD31C,0.012*%
%ADD32C,0.020*%
%ADD33C,0.005*%
%ADD34C,0.051*%
%ADD35C,0.016*%
%ADD36C,0.020*%
G36*
X294Y640D02*
X295Y635D01*
X293Y634D01*
X291Y630D01*
X290Y625D01*
X291Y620D01*
X293Y616D01*
X297Y614D01*
X302Y613D01*
X307Y614D01*
X311Y616D01*
X313Y620D01*
X314Y625D01*
X313Y630D01*
X311Y634D01*
X309Y635D01*
X310Y640D01*
X500Y640D01*
X500Y182D01*
X495Y179D01*
X492Y180D01*
X487Y179D01*
X483Y176D01*
X481Y172D01*
X480Y167D01*
X481Y163D01*
X483Y159D01*
X487Y156D01*
X492Y155D01*
X495Y156D01*
X500Y153D01*
X500Y14D01*
X496Y10D01*
X486D01*
X486Y10D01*
X484Y15D01*
X485Y17D01*
X486Y22D01*
X485Y27D01*
X483Y31D01*
X479Y33D01*
X474Y34D01*
X469Y33D01*
X465Y31D01*
X463Y27D01*
X462Y25D01*
X403D01*
X401Y30D01*
X402Y30D01*
X404Y34D01*
X405Y39D01*
X404Y44D01*
X402Y48D01*
X398Y50D01*
X393Y51D01*
X388Y50D01*
X384Y48D01*
X382Y44D01*
X381Y39D01*
X382Y34D01*
X384Y30D01*
X385Y30D01*
X383Y25D01*
X285D01*
X284Y30D01*
X288Y36D01*
X291Y43D01*
X292Y51D01*
X291Y59D01*
X288Y66D01*
X283Y73D01*
X276Y78D01*
X276Y78D01*
Y83D01*
X276Y83D01*
X283Y88D01*
X288Y95D01*
X291Y102D01*
X292Y110D01*
X291Y118D01*
X288Y125D01*
X283Y132D01*
X276Y137D01*
X269Y140D01*
X261Y141D01*
X253Y140D01*
X246Y137D01*
X239Y132D01*
X234Y125D01*
X231Y118D01*
X230Y110D01*
X231Y102D01*
X234Y95D01*
X239Y88D01*
X246Y83D01*
X246Y83D01*
Y78D01*
X246Y78D01*
X239Y73D01*
X234Y66D01*
X231Y59D01*
X230Y51D01*
X231Y43D01*
X234Y36D01*
X238Y30D01*
X237Y25D01*
X127D01*
X75Y77D01*
X75Y79D01*
X72Y83D01*
X68Y86D01*
X64Y87D01*
X59Y86D01*
X55Y83D01*
X52Y79D01*
X51Y74D01*
X52Y70D01*
X55Y66D01*
X59Y63D01*
X61Y63D01*
X109Y15D01*
X107Y10D01*
X10Y10D01*
Y86D01*
X15Y87D01*
X16Y85D01*
X20Y83D01*
X25Y82D01*
X30Y83D01*
X34Y85D01*
X36Y89D01*
X37Y94D01*
X36Y99D01*
X34Y103D01*
X33Y103D01*
Y202D01*
X108Y277D01*
X108Y277D01*
X112Y279D01*
X114Y283D01*
X115Y288D01*
X114Y293D01*
X112Y297D01*
X108Y299D01*
X103Y300D01*
X98Y299D01*
X94Y297D01*
X92Y293D01*
X92Y293D01*
X15Y216D01*
X11Y217D01*
X10Y218D01*
X10Y584D01*
X12Y585D01*
X15Y586D01*
X18Y584D01*
X23Y583D01*
X28Y584D01*
X32Y586D01*
X34Y590D01*
X35Y595D01*
X34Y600D01*
X32Y604D01*
X28Y606D01*
X23Y607D01*
X18Y606D01*
X15Y604D01*
X12Y605D01*
X10Y606D01*
Y623D01*
X12Y624D01*
X15Y625D01*
X18Y623D01*
X23Y622D01*
X28Y623D01*
X32Y625D01*
X34Y629D01*
X35Y634D01*
X35Y635D01*
X39Y640D01*
X294Y640D01*
D02*
G37*
%LPC*%
G36*
X292Y295D02*
X287Y294D01*
X283Y292D01*
X281Y288D01*
X280Y283D01*
X281Y278D01*
X283Y274D01*
X287Y272D01*
X292Y271D01*
X297Y272D01*
X301Y274D01*
X303Y278D01*
X304Y283D01*
X303Y288D01*
X301Y292D01*
X297Y294D01*
X292Y295D01*
D02*
G37*
G36*
X393Y140D02*
X388Y139D01*
X384Y137D01*
X382Y133D01*
X381Y128D01*
X382Y123D01*
X384Y119D01*
X388Y117D01*
X393Y116D01*
X398Y117D01*
X402Y119D01*
X404Y123D01*
X405Y128D01*
X404Y133D01*
X402Y137D01*
X398Y139D01*
X393Y140D01*
D02*
G37*
G36*
X182Y504D02*
X177Y503D01*
X173Y501D01*
X171Y497D01*
X170Y492D01*
X170Y489D01*
X170Y487D01*
X167Y484D01*
X165Y483D01*
X161Y481D01*
X159Y477D01*
X158Y472D01*
X158Y470D01*
X156Y466D01*
X154Y465D01*
X151Y464D01*
X147Y462D01*
X145Y458D01*
X144Y453D01*
X145Y448D01*
X147Y444D01*
Y442D01*
X145Y438D01*
X144Y433D01*
X145Y428D01*
X146Y427D01*
X147Y423D01*
X146Y419D01*
X145Y418D01*
X144Y413D01*
X145Y408D01*
X147Y404D01*
X151Y402D01*
X156Y401D01*
X157Y401D01*
X158Y399D01*
X158Y399D01*
X161Y398D01*
X164Y397D01*
X164Y397D01*
X247D01*
X252Y393D01*
X250Y387D01*
X246Y384D01*
X243Y380D01*
X242Y374D01*
X243Y368D01*
X246Y363D01*
X251Y360D01*
X257Y359D01*
X263Y360D01*
X268Y363D01*
X270Y367D01*
X276Y369D01*
X281Y364D01*
X281Y363D01*
X283Y361D01*
X293Y350D01*
X293Y350D01*
X295Y349D01*
X296Y348D01*
X299Y348D01*
X313D01*
X338Y322D01*
X338Y321D01*
X336Y317D01*
X333Y316D01*
X329Y314D01*
X327Y310D01*
X326Y305D01*
X327Y300D01*
X329Y296D01*
X333Y294D01*
X338Y293D01*
X343Y294D01*
X347Y296D01*
X349Y295D01*
X350Y291D01*
X347Y287D01*
X346Y283D01*
X347Y278D01*
X350Y274D01*
X354Y271D01*
X359Y270D01*
X363Y271D01*
X367Y274D01*
X368Y275D01*
X372Y278D01*
X375Y277D01*
X375Y276D01*
X376Y276D01*
X376Y275D01*
X380Y273D01*
X385Y272D01*
X390Y273D01*
X394Y275D01*
X396Y279D01*
X397Y284D01*
X396Y289D01*
X394Y292D01*
X394Y293D01*
X394Y298D01*
X395Y300D01*
X396Y305D01*
X395Y310D01*
X393Y314D01*
X389Y316D01*
X384Y317D01*
X383Y317D01*
X332Y368D01*
Y381D01*
X332Y384D01*
X331Y385D01*
X330Y387D01*
X330Y387D01*
X319Y397D01*
X317Y399D01*
X316Y399D01*
X311Y404D01*
X313Y410D01*
X317Y412D01*
X320Y417D01*
X321Y423D01*
X320Y429D01*
X317Y434D01*
X312Y437D01*
X306Y438D01*
X300Y437D01*
X296Y434D01*
X293Y430D01*
X287Y428D01*
X282Y433D01*
X282Y434D01*
X282Y435D01*
X281Y436D01*
X281Y436D01*
X270Y447D01*
X268Y448D01*
X264Y449D01*
X264Y449D01*
X200D01*
X200Y449D01*
X197Y448D01*
X195Y447D01*
X195Y447D01*
X189Y441D01*
X168D01*
X166Y446D01*
X167Y448D01*
X168Y453D01*
X168Y455D01*
X170Y459D01*
X172Y460D01*
X175Y461D01*
X179Y463D01*
X181Y467D01*
X182Y472D01*
X182Y475D01*
X182Y477D01*
X185Y480D01*
X187Y481D01*
X191Y483D01*
X193Y487D01*
X194Y492D01*
X193Y497D01*
X191Y501D01*
X187Y503D01*
X182Y504D01*
D02*
G37*
G36*
X113Y368D02*
X107Y367D01*
X102Y364D01*
X100Y360D01*
X99Y360D01*
X95D01*
X94Y360D01*
X92Y364D01*
X87Y367D01*
X81Y368D01*
X75Y367D01*
X71Y364D01*
X67Y359D01*
X66Y353D01*
X67Y347D01*
X71Y342D01*
X75Y339D01*
X81Y338D01*
X87Y339D01*
X92Y342D01*
X94Y346D01*
X95Y346D01*
X99D01*
X100Y346D01*
X102Y342D01*
X107Y339D01*
X113Y338D01*
X119Y339D01*
X123Y342D01*
X127Y347D01*
X128Y353D01*
X127Y359D01*
X123Y364D01*
X119Y367D01*
X113Y368D01*
D02*
G37*
G36*
X208Y389D02*
X202Y388D01*
X197Y384D01*
X194Y380D01*
X193Y374D01*
X194Y368D01*
X197Y363D01*
X202Y360D01*
X208Y359D01*
X214Y360D01*
X218Y363D01*
X222Y368D01*
X223Y374D01*
X222Y380D01*
X218Y384D01*
X214Y388D01*
X208Y389D01*
D02*
G37*
G36*
X473Y74D02*
X467Y73D01*
X462Y70D01*
X459Y65D01*
X458Y59D01*
X459Y54D01*
X462Y49D01*
X467Y45D01*
X473Y44D01*
X478Y45D01*
X483Y49D01*
X487Y54D01*
X488Y59D01*
X487Y65D01*
X483Y70D01*
X478Y73D01*
X473Y74D01*
D02*
G37*
G36*
X433D02*
X428Y73D01*
X423Y70D01*
X419Y65D01*
X418Y59D01*
X419Y54D01*
X423Y49D01*
X428Y45D01*
X433Y44D01*
X439Y45D01*
X444Y49D01*
X447Y54D01*
X448Y59D01*
X447Y65D01*
X444Y70D01*
X439Y73D01*
X433Y74D01*
D02*
G37*
G36*
X372Y99D02*
X367Y98D01*
X363Y96D01*
X361Y92D01*
X360Y87D01*
X361Y82D01*
X363Y78D01*
X367Y76D01*
X372Y75D01*
X377Y76D01*
X381Y78D01*
X383Y82D01*
X384Y87D01*
X383Y92D01*
X381Y96D01*
X377Y98D01*
X372Y99D01*
D02*
G37*
G36*
X473Y114D02*
X467Y113D01*
X462Y109D01*
X459Y104D01*
X458Y99D01*
X459Y93D01*
X462Y88D01*
X467Y85D01*
X473Y84D01*
X478Y85D01*
X483Y88D01*
X487Y93D01*
X488Y99D01*
X487Y104D01*
X483Y109D01*
X478Y113D01*
X473Y114D01*
D02*
G37*
G36*
X433D02*
X428Y113D01*
X423Y109D01*
X419Y104D01*
X418Y99D01*
X419Y93D01*
X423Y88D01*
X428Y85D01*
X433Y84D01*
X439Y85D01*
X444Y88D01*
X447Y93D01*
X448Y99D01*
X447Y104D01*
X444Y109D01*
X439Y113D01*
X433Y114D01*
D02*
G37*
G36*
X97Y568D02*
X92Y567D01*
X88Y565D01*
X86Y561D01*
X85Y556D01*
X86Y551D01*
X88Y547D01*
X91Y545D01*
X89Y542D01*
X88Y537D01*
X89Y532D01*
X91Y528D01*
X95Y526D01*
X100Y525D01*
X105Y526D01*
X109Y528D01*
X111Y532D01*
X112Y537D01*
X111Y542D01*
X109Y546D01*
X106Y548D01*
X108Y551D01*
X109Y556D01*
X108Y561D01*
X106Y565D01*
X102Y567D01*
X97Y568D01*
D02*
G37*
G36*
X54Y547D02*
X49Y546D01*
X45Y544D01*
X43Y540D01*
X42Y535D01*
X43Y530D01*
X45Y526D01*
X49Y524D01*
X54Y523D01*
X59Y524D01*
X63Y526D01*
X65Y530D01*
X66Y535D01*
X65Y540D01*
X63Y544D01*
X59Y546D01*
X54Y547D01*
D02*
G37*
G36*
X197Y565D02*
X192Y564D01*
X188Y561D01*
X186Y557D01*
X185Y552D01*
X186Y548D01*
X188Y544D01*
X192Y541D01*
X197Y540D01*
X202Y541D01*
X206Y544D01*
X208Y548D01*
X209Y552D01*
X208Y557D01*
X206Y561D01*
X202Y564D01*
X197Y565D01*
D02*
G37*
G36*
X168Y619D02*
X163Y618D01*
X159Y616D01*
X157Y612D01*
X156Y607D01*
X157Y602D01*
X159Y598D01*
X163Y596D01*
X168Y595D01*
X173Y596D01*
X177Y598D01*
X179Y602D01*
X180Y607D01*
X179Y612D01*
X177Y616D01*
X173Y618D01*
X168Y619D01*
D02*
G37*
G36*
X298Y600D02*
X293Y599D01*
X289Y597D01*
X287Y593D01*
X286Y588D01*
X287Y583D01*
X289Y579D01*
X293Y577D01*
X298Y576D01*
X303Y577D01*
X307Y579D01*
X309Y583D01*
X310Y588D01*
X309Y593D01*
X307Y597D01*
X303Y599D01*
X298Y600D01*
D02*
G37*
G36*
X427Y423D02*
X422Y422D01*
X418Y420D01*
X416Y416D01*
X415Y411D01*
X416Y406D01*
X418Y402D01*
X422Y400D01*
X427Y399D01*
X432Y400D01*
X436Y402D01*
X438Y406D01*
X439Y411D01*
X438Y416D01*
X436Y420D01*
X432Y422D01*
X427Y423D01*
D02*
G37*
G36*
X360Y485D02*
X355Y484D01*
X351Y482D01*
X349Y478D01*
X348Y473D01*
X349Y468D01*
X350Y466D01*
X350Y461D01*
X350Y460D01*
X348Y457D01*
X347Y452D01*
X348Y447D01*
X348Y446D01*
X350Y442D01*
X348Y439D01*
X348Y438D01*
X347Y433D01*
X348Y428D01*
X349Y427D01*
X350Y423D01*
X349Y419D01*
X348Y418D01*
X347Y413D01*
X348Y408D01*
X350Y404D01*
Y402D01*
X348Y398D01*
X347Y393D01*
X348Y388D01*
X350Y384D01*
X354Y382D01*
X359Y381D01*
X364Y382D01*
X368Y384D01*
X370Y388D01*
X371Y393D01*
X370Y398D01*
X368Y402D01*
Y404D01*
X370Y408D01*
X371Y413D01*
X370Y418D01*
X369Y419D01*
X368Y423D01*
X369Y427D01*
X370Y428D01*
X371Y433D01*
X370Y438D01*
X370Y439D01*
X368Y442D01*
X370Y446D01*
X370Y447D01*
X371Y452D01*
X370Y457D01*
X369Y459D01*
X369Y464D01*
X369Y465D01*
X371Y468D01*
X372Y473D01*
X371Y478D01*
X369Y482D01*
X365Y484D01*
X360Y485D01*
D02*
G37*
G36*
X267Y549D02*
X262Y548D01*
X258Y546D01*
X256Y542D01*
X255Y537D01*
X256Y532D01*
X258Y528D01*
X262Y526D01*
X267Y525D01*
X269Y525D01*
X269Y525D01*
X373D01*
X439Y460D01*
X437Y455D01*
X435Y455D01*
X430Y454D01*
X426Y452D01*
X424Y448D01*
X423Y443D01*
X424Y438D01*
X426Y434D01*
X430Y432D01*
X435Y431D01*
X440Y432D01*
X444Y434D01*
X445Y436D01*
X450Y435D01*
Y205D01*
X449Y204D01*
X448Y202D01*
X445Y198D01*
X442Y199D01*
X440Y201D01*
X439Y205D01*
X437Y209D01*
X433Y211D01*
X428Y212D01*
X423Y211D01*
X419Y209D01*
X417Y205D01*
X416Y200D01*
X417Y195D01*
X419Y191D01*
X423Y189D01*
X424Y188D01*
X426Y183D01*
X425Y181D01*
X333D01*
X253Y262D01*
X252Y264D01*
X250Y268D01*
X246Y270D01*
X241Y271D01*
X239Y271D01*
X234Y274D01*
Y300D01*
X234Y303D01*
X233Y304D01*
X231Y306D01*
X183Y355D01*
X182Y359D01*
X180Y363D01*
X176Y365D01*
X171Y366D01*
X166Y365D01*
X162Y363D01*
X160Y359D01*
X159Y354D01*
X160Y349D01*
X161Y348D01*
X161Y348D01*
X161Y347D01*
X161Y346D01*
X161Y346D01*
X159Y343D01*
X158Y343D01*
X158Y343D01*
X158Y343D01*
X157Y344D01*
X157D01*
X156Y344D01*
X151Y345D01*
X146Y344D01*
X142Y342D01*
X140Y338D01*
X139Y333D01*
X140Y328D01*
X142Y324D01*
X146Y322D01*
X151Y321D01*
X152Y321D01*
X203Y270D01*
X203Y265D01*
X198Y263D01*
X195Y263D01*
X190Y262D01*
X186Y260D01*
X184Y256D01*
X183Y251D01*
X184Y246D01*
X186Y242D01*
X190Y240D01*
X195Y239D01*
X200Y240D01*
X200Y240D01*
X206Y241D01*
X207Y239D01*
X316Y130D01*
Y87D01*
X313Y84D01*
X309Y84D01*
X304Y83D01*
X300Y81D01*
X298Y77D01*
X297Y72D01*
X298Y67D01*
X300Y63D01*
X304Y61D01*
X309Y60D01*
X314Y61D01*
X318Y63D01*
X320Y67D01*
X321Y70D01*
X325Y72D01*
X329Y71D01*
X330Y67D01*
X332Y63D01*
X336Y61D01*
X341Y60D01*
X346Y61D01*
X350Y63D01*
X352Y67D01*
X353Y72D01*
X352Y77D01*
X350Y80D01*
Y136D01*
X349Y140D01*
X347Y142D01*
X334Y156D01*
X336Y161D01*
X432D01*
X436Y162D01*
X439Y164D01*
X463Y187D01*
X465Y188D01*
X469Y190D01*
X471Y194D01*
X472Y199D01*
X471Y204D01*
X470Y205D01*
Y453D01*
X469Y457D01*
X467Y460D01*
X385Y542D01*
X382Y545D01*
X378Y545D01*
X276D01*
X276Y546D01*
X272Y548D01*
X267Y549D01*
D02*
G37*
G36*
X247Y509D02*
X242Y508D01*
X241Y507D01*
X237Y506D01*
X233Y507D01*
X232Y508D01*
X227Y509D01*
X222Y508D01*
X218Y506D01*
X216Y502D01*
X215Y497D01*
X216Y492D01*
X218Y490D01*
X214Y486D01*
X214Y486D01*
X208Y487D01*
X202Y486D01*
X197Y483D01*
X194Y478D01*
X193Y472D01*
X194Y466D01*
X197Y462D01*
X202Y458D01*
X208Y457D01*
X214Y458D01*
X218Y462D01*
X222Y466D01*
X223Y472D01*
X222Y478D01*
X219Y482D01*
X222Y485D01*
X223Y486D01*
X227Y485D01*
X232Y486D01*
X233Y487D01*
X237Y488D01*
X241Y487D01*
X242Y486D01*
X244Y480D01*
X243Y478D01*
X242Y472D01*
X243Y466D01*
X246Y462D01*
X251Y458D01*
X257Y457D01*
X263Y458D01*
X268Y462D01*
X271Y466D01*
X272Y472D01*
X271Y478D01*
X268Y483D01*
X263Y486D01*
X261Y487D01*
X258Y492D01*
X258Y492D01*
X259Y497D01*
X258Y502D01*
X256Y506D01*
X252Y508D01*
X247Y509D01*
D02*
G37*
G36*
X306Y510D02*
X301Y509D01*
X297Y507D01*
X297Y506D01*
X292Y506D01*
X288Y508D01*
X283Y509D01*
X278Y508D01*
X274Y506D01*
X272Y502D01*
X271Y497D01*
X272Y492D01*
X274Y488D01*
X278Y486D01*
X283Y485D01*
X288Y486D01*
X292Y488D01*
X294Y487D01*
X296Y483D01*
X292Y478D01*
X291Y472D01*
X292Y466D01*
X296Y462D01*
X300Y458D01*
X306Y457D01*
X312Y458D01*
X317Y462D01*
X320Y466D01*
X321Y472D01*
X320Y477D01*
X323Y479D01*
X324Y480D01*
X325Y480D01*
X330Y479D01*
X335Y480D01*
X339Y482D01*
X341Y486D01*
X342Y491D01*
X341Y496D01*
X339Y500D01*
X335Y502D01*
X330Y503D01*
X325Y502D01*
X323Y501D01*
X318Y502D01*
X317Y503D01*
X317Y503D01*
X315Y507D01*
X311Y509D01*
X306Y510D01*
D02*
G37*
%LPD*%
D10*
X171Y354D02*
X225Y300D01*
Y252D02*
Y300D01*
X341Y72D02*
Y136D01*
X225Y252D02*
X341Y136D01*
D29*
X378Y535D02*
X460Y453D01*
Y199D02*
Y453D01*
X269Y535D02*
X378D01*
X267Y537D02*
X269Y535D01*
X432Y171D02*
X460Y199D01*
X329Y171D02*
X432D01*
X241Y259D02*
X329Y171D01*
X467Y15D02*
X474Y22D01*
X64Y74D02*
X123Y15D01*
X467D01*
D30*
X378Y284D02*
X385D01*
X288Y366D02*
X299Y356D01*
X288Y366D02*
Y368D01*
X314Y392D02*
X324Y381D01*
X312Y392D02*
X314D01*
X275Y429D02*
X312Y392D01*
X275Y429D02*
Y430D01*
X264Y441D02*
X275Y430D01*
X200Y441D02*
X264D01*
X193Y433D02*
X200Y441D01*
X156Y433D02*
X193D01*
X251Y405D02*
X288Y368D01*
X164Y405D02*
X251D01*
X156Y413D02*
X164Y405D01*
X324Y365D02*
Y381D01*
Y365D02*
X384Y305D01*
X299Y356D02*
X316D01*
X355Y307D02*
X378Y284D01*
X355Y307D02*
Y317D01*
X316Y356D02*
X355Y317D01*
D31*
X22Y97D02*
Y207D01*
Y97D02*
X25Y94D01*
X22Y207D02*
X103Y288D01*
D33*
X151Y333D02*
X211Y273D01*
Y246D02*
Y273D01*
X324Y84D02*
Y133D01*
X211Y246D02*
X324Y133D01*
X312Y72D02*
X324Y84D01*
X309Y72D02*
X312D01*
D35*
X25Y94D02*
D03*
X103Y288D02*
D03*
X17Y614D02*
D03*
X54Y634D02*
D03*
X22Y568D02*
D03*
X151Y333D02*
D03*
X171Y354D02*
D03*
X385Y284D02*
D03*
X384Y305D02*
D03*
X121Y438D02*
D03*
X115Y494D02*
D03*
X460Y199D02*
D03*
X472Y619D02*
D03*
X357Y552D02*
D03*
X366Y626D02*
D03*
X424Y383D02*
D03*
X156Y433D02*
D03*
X291Y247D02*
D03*
X47Y594D02*
D03*
X204Y625D02*
D03*
X267Y537D02*
D03*
X156Y413D02*
D03*
X474Y22D02*
D03*
X241Y259D02*
D03*
X309Y72D02*
D03*
X341D02*
D03*
X307Y122D02*
D03*
X64Y74D02*
D03*
M02*
