%FSLAX23Y23*%
%MOIN*%
G70*
G01*
G75*
G04 Layer_Color=8388736*
%ADD10C,0.008*%
%ADD11R,0.030X0.030*%
%ADD12R,0.020X0.020*%
%ADD13R,0.020X0.020*%
%ADD14R,0.043X0.035*%
%ADD15R,0.030X0.030*%
%ADD16R,0.044X0.058*%
%ADD17R,0.058X0.044*%
%ADD18R,0.107X0.051*%
%ADD19R,0.024X0.010*%
%ADD20R,0.010X0.024*%
%ADD21R,0.122X0.122*%
%ADD22R,0.011X0.020*%
%ADD23R,0.063X0.035*%
%ADD24R,0.020X0.012*%
%ADD25R,0.019X0.012*%
%ADD26R,0.010X0.028*%
%ADD27R,0.094X0.065*%
%ADD28R,0.028X0.051*%
%ADD29C,0.010*%
%ADD30C,0.006*%
%ADD31C,0.012*%
%ADD32C,0.020*%
%ADD33C,0.005*%
%ADD34C,0.051*%
%ADD35C,0.016*%
%ADD36C,0.020*%
%ADD37O,0.053X0.016*%
%ADD38O,0.069X0.016*%
%ADD39O,0.100X0.016*%
%ADD40O,0.016X0.053*%
%ADD41O,0.016X0.069*%
%ADD42R,0.030X0.059*%
%ADD43R,0.014X0.020*%
%ADD44R,0.011X0.020*%
%ADD45R,0.080X0.063*%
%ADD46C,0.004*%
%ADD47C,0.010*%
%ADD48C,0.008*%
%ADD49R,0.032X0.032*%
%ADD50R,0.022X0.022*%
%ADD51R,0.022X0.022*%
%ADD52R,0.045X0.037*%
%ADD53R,0.032X0.032*%
%ADD54R,0.046X0.060*%
%ADD55R,0.060X0.046*%
%ADD56R,0.109X0.053*%
%ADD57R,0.124X0.124*%
%ADD58R,0.017X0.025*%
%ADD59R,0.069X0.041*%
%ADD60R,0.024X0.016*%
%ADD61R,0.023X0.016*%
%ADD62R,0.018X0.036*%
%ADD63R,0.102X0.073*%
%ADD64R,0.030X0.053*%
%ADD65C,0.002*%
%ADD66C,0.022*%
D19*
X163Y492D02*
D03*
Y472D02*
D03*
Y453D02*
D03*
Y433D02*
D03*
Y413D02*
D03*
Y393D02*
D03*
Y374D02*
D03*
Y354D02*
D03*
X351D02*
D03*
Y374D02*
D03*
Y393D02*
D03*
Y413D02*
D03*
Y433D02*
D03*
Y453D02*
D03*
Y472D02*
D03*
Y492D02*
D03*
D20*
X188Y329D02*
D03*
X208D02*
D03*
X227D02*
D03*
X247D02*
D03*
X267D02*
D03*
X287D02*
D03*
X306D02*
D03*
X326D02*
D03*
Y517D02*
D03*
X306D02*
D03*
X287D02*
D03*
X267D02*
D03*
X247D02*
D03*
X227D02*
D03*
X208D02*
D03*
X188D02*
D03*
D34*
X261Y110D02*
D03*
Y51D02*
D03*
D49*
X480Y463D02*
D03*
Y517D02*
D03*
X25Y301D02*
D03*
Y356D02*
D03*
Y199D02*
D03*
Y255D02*
D03*
X98Y199D02*
D03*
Y255D02*
D03*
D50*
X492Y203D02*
D03*
Y167D02*
D03*
X460Y203D02*
D03*
Y167D02*
D03*
X424Y421D02*
D03*
Y385D02*
D03*
X292Y283D02*
D03*
Y247D02*
D03*
X165Y588D02*
D03*
Y552D02*
D03*
X53Y532D02*
D03*
Y568D02*
D03*
X392Y421D02*
D03*
Y385D02*
D03*
X197Y552D02*
D03*
Y588D02*
D03*
X261Y552D02*
D03*
Y588D02*
D03*
X293Y552D02*
D03*
Y588D02*
D03*
X325Y552D02*
D03*
Y588D02*
D03*
X357Y552D02*
D03*
Y588D02*
D03*
X272Y194D02*
D03*
Y158D02*
D03*
X240Y192D02*
D03*
Y156D02*
D03*
X62Y194D02*
D03*
Y230D02*
D03*
X488Y421D02*
D03*
Y385D02*
D03*
X456Y421D02*
D03*
Y385D02*
D03*
X20Y568D02*
D03*
Y532D02*
D03*
X141Y28D02*
D03*
Y64D02*
D03*
Y131D02*
D03*
Y95D02*
D03*
X396Y203D02*
D03*
Y167D02*
D03*
X428Y203D02*
D03*
Y167D02*
D03*
X373Y92D02*
D03*
Y56D02*
D03*
X309Y20D02*
D03*
Y56D02*
D03*
Y87D02*
D03*
Y123D02*
D03*
X341Y56D02*
D03*
Y20D02*
D03*
Y123D02*
D03*
Y87D02*
D03*
X229Y552D02*
D03*
Y588D02*
D03*
D51*
X201Y223D02*
D03*
X237D02*
D03*
X134D02*
D03*
X170D02*
D03*
X163Y625D02*
D03*
X199D02*
D03*
X394Y485D02*
D03*
X430D02*
D03*
X170Y287D02*
D03*
X134D02*
D03*
X170Y255D02*
D03*
X134D02*
D03*
X237Y287D02*
D03*
X201D02*
D03*
X237Y255D02*
D03*
X201D02*
D03*
X323Y283D02*
D03*
X359D02*
D03*
X323Y251D02*
D03*
X359D02*
D03*
X172Y144D02*
D03*
X208D02*
D03*
X430Y517D02*
D03*
X394D02*
D03*
X242Y625D02*
D03*
X278D02*
D03*
X356D02*
D03*
X320D02*
D03*
D52*
X406Y619D02*
D03*
X472D02*
D03*
X406Y567D02*
D03*
X472D02*
D03*
D53*
X309Y210D02*
D03*
X364D02*
D03*
X115Y494D02*
D03*
X60D02*
D03*
X203Y182D02*
D03*
X147D02*
D03*
X310Y164D02*
D03*
X364D02*
D03*
D54*
X51Y438D02*
D03*
X121D02*
D03*
D55*
X112Y616D02*
D03*
Y546D02*
D03*
X194Y102D02*
D03*
Y32D02*
D03*
D56*
X64Y145D02*
D03*
Y35D02*
D03*
D57*
X257Y423D02*
D03*
D58*
X67Y316D02*
D03*
X87D02*
D03*
X107D02*
D03*
X127D02*
D03*
Y390D02*
D03*
X107D02*
D03*
X87D02*
D03*
X67D02*
D03*
D59*
X97Y353D02*
D03*
D60*
X50Y594D02*
D03*
D61*
Y614D02*
D03*
Y634D02*
D03*
X20D02*
D03*
Y614D02*
D03*
Y594D02*
D03*
D62*
X483Y134D02*
D03*
X463D02*
D03*
X443D02*
D03*
X423D02*
D03*
X483Y24D02*
D03*
X463D02*
D03*
X443D02*
D03*
X423D02*
D03*
D63*
X453Y79D02*
D03*
D64*
X411Y341D02*
D03*
X448D02*
D03*
X485D02*
D03*
Y247D02*
D03*
X448D02*
D03*
X411D02*
D03*
D65*
X-39Y256D02*
D03*
X551D02*
D03*
X256Y689D02*
D03*
D66*
X473Y99D02*
D03*
Y59D02*
D03*
X433Y99D02*
D03*
Y59D02*
D03*
M02*
