%FSLAX23Y23*%
%MOIN*%
G70*
G01*
G75*
G04 Layer_Physical_Order=1*
G04 Layer_Color=255*
%ADD10C,0.008*%
%ADD11R,0.030X0.030*%
%ADD12R,0.020X0.020*%
%ADD13R,0.020X0.020*%
%ADD14R,0.043X0.035*%
%ADD15R,0.030X0.030*%
%ADD16R,0.044X0.058*%
%ADD17R,0.058X0.044*%
%ADD18R,0.107X0.051*%
%ADD19R,0.024X0.010*%
%ADD20R,0.010X0.024*%
%ADD21R,0.122X0.122*%
%ADD22R,0.011X0.020*%
%ADD23R,0.063X0.035*%
%ADD24R,0.020X0.012*%
%ADD25R,0.019X0.012*%
%ADD26R,0.010X0.028*%
%ADD27R,0.094X0.065*%
%ADD28R,0.028X0.051*%
%ADD29C,0.010*%
%ADD30C,0.006*%
%ADD31C,0.012*%
%ADD32C,0.020*%
%ADD33C,0.005*%
%ADD34C,0.051*%
%ADD35C,0.016*%
%ADD36C,0.020*%
G36*
X186Y80D02*
X179D01*
X153Y54D01*
X131D01*
Y74D01*
X153D01*
X171Y92D01*
X198D01*
X186Y80D01*
D02*
G37*
G36*
X487Y106D02*
X459D01*
X458Y105D01*
Y148D01*
X487D01*
Y106D01*
D02*
G37*
G36*
X116Y53D02*
X131Y38D01*
X151D01*
X168Y55D01*
X226D01*
Y10D01*
X10D01*
Y60D01*
X116D01*
Y53D01*
D02*
G37*
G36*
X488Y10D02*
X458D01*
Y38D01*
X488D01*
Y10D01*
D02*
G37*
G36*
X92Y448D02*
Y381D01*
X82D01*
Y399D01*
X72Y409D01*
X30D01*
Y466D01*
X31Y467D01*
X73D01*
X92Y448D01*
D02*
G37*
G36*
X141Y594D02*
X74D01*
X60Y608D01*
X42D01*
X41Y609D01*
Y620D01*
X60D01*
X78Y638D01*
X141D01*
Y594D01*
D02*
G37*
G36*
X113Y174D02*
X146Y141D01*
X151Y141D01*
Y120D01*
X10Y120D01*
Y214D01*
X42D01*
X52Y204D01*
X72D01*
X82Y214D01*
X113D01*
Y174D01*
D02*
G37*
G36*
X112Y239D02*
X83D01*
X37Y285D01*
X10D01*
Y315D01*
X44D01*
X62Y297D01*
X72D01*
X82Y307D01*
Y325D01*
X112D01*
Y239D01*
D02*
G37*
D10*
X428Y167D02*
G03*
X419Y159I0J-9D01*
G01*
X325Y552D02*
X326Y551D01*
X419Y134D02*
Y159D01*
X396Y167D02*
X428D01*
X341Y56D02*
Y72D01*
Y87D01*
D11*
X480Y463D02*
D03*
Y517D02*
D03*
X25Y301D02*
D03*
Y356D02*
D03*
Y199D02*
D03*
Y255D02*
D03*
X98Y199D02*
D03*
Y255D02*
D03*
D12*
X492Y203D02*
D03*
Y167D02*
D03*
X460Y203D02*
D03*
Y167D02*
D03*
X424Y421D02*
D03*
Y385D02*
D03*
X292Y283D02*
D03*
Y247D02*
D03*
X165Y588D02*
D03*
Y552D02*
D03*
X53Y532D02*
D03*
Y568D02*
D03*
X392Y421D02*
D03*
Y385D02*
D03*
X197Y552D02*
D03*
Y588D02*
D03*
X261Y552D02*
D03*
Y588D02*
D03*
X293Y552D02*
D03*
Y588D02*
D03*
X325Y552D02*
D03*
Y588D02*
D03*
X357Y552D02*
D03*
Y588D02*
D03*
X272Y194D02*
D03*
Y158D02*
D03*
X240Y192D02*
D03*
Y156D02*
D03*
X62Y194D02*
D03*
Y230D02*
D03*
X488Y421D02*
D03*
Y385D02*
D03*
X456Y421D02*
D03*
Y385D02*
D03*
X20Y568D02*
D03*
Y532D02*
D03*
X141Y28D02*
D03*
Y64D02*
D03*
Y131D02*
D03*
Y95D02*
D03*
X396Y203D02*
D03*
Y167D02*
D03*
X428Y203D02*
D03*
Y167D02*
D03*
X373Y92D02*
D03*
Y56D02*
D03*
X309Y20D02*
D03*
Y56D02*
D03*
Y87D02*
D03*
Y123D02*
D03*
X341Y56D02*
D03*
Y20D02*
D03*
Y123D02*
D03*
Y87D02*
D03*
X229Y552D02*
D03*
Y588D02*
D03*
D13*
X201Y223D02*
D03*
X237D02*
D03*
X134D02*
D03*
X170D02*
D03*
X163Y625D02*
D03*
X199D02*
D03*
X394Y485D02*
D03*
X430D02*
D03*
X170Y287D02*
D03*
X134D02*
D03*
X170Y255D02*
D03*
X134D02*
D03*
X237Y287D02*
D03*
X201D02*
D03*
X237Y255D02*
D03*
X201D02*
D03*
X323Y283D02*
D03*
X359D02*
D03*
X323Y251D02*
D03*
X359D02*
D03*
X172Y144D02*
D03*
X208D02*
D03*
X430Y517D02*
D03*
X394D02*
D03*
X242Y625D02*
D03*
X278D02*
D03*
X356D02*
D03*
X320D02*
D03*
D14*
X406Y619D02*
D03*
X472D02*
D03*
X406Y567D02*
D03*
X472D02*
D03*
D15*
X309Y210D02*
D03*
X364D02*
D03*
X115Y494D02*
D03*
X60D02*
D03*
X203Y182D02*
D03*
X147D02*
D03*
X310Y164D02*
D03*
X364D02*
D03*
D16*
X51Y438D02*
D03*
X121D02*
D03*
D17*
X112Y616D02*
D03*
Y546D02*
D03*
X194Y102D02*
D03*
Y32D02*
D03*
D18*
X64Y145D02*
D03*
Y35D02*
D03*
D19*
X163Y492D02*
D03*
Y472D02*
D03*
Y453D02*
D03*
Y433D02*
D03*
Y413D02*
D03*
Y393D02*
D03*
Y374D02*
D03*
Y354D02*
D03*
X351D02*
D03*
Y374D02*
D03*
Y393D02*
D03*
Y413D02*
D03*
Y433D02*
D03*
Y453D02*
D03*
Y472D02*
D03*
Y492D02*
D03*
D20*
X188Y329D02*
D03*
X208D02*
D03*
X227D02*
D03*
X247D02*
D03*
X267D02*
D03*
X287D02*
D03*
X306D02*
D03*
X326D02*
D03*
Y517D02*
D03*
X306D02*
D03*
X287D02*
D03*
X267D02*
D03*
X247D02*
D03*
X227D02*
D03*
X208D02*
D03*
X188D02*
D03*
D21*
X257Y423D02*
D03*
D22*
X67Y316D02*
D03*
X87D02*
D03*
X107D02*
D03*
X127D02*
D03*
Y390D02*
D03*
X107D02*
D03*
X87D02*
D03*
X67D02*
D03*
D23*
X97Y353D02*
D03*
D24*
X50Y594D02*
D03*
D25*
Y614D02*
D03*
Y634D02*
D03*
X20D02*
D03*
Y614D02*
D03*
Y594D02*
D03*
D26*
X483Y134D02*
D03*
X463D02*
D03*
X443D02*
D03*
X423D02*
D03*
X483Y24D02*
D03*
X463D02*
D03*
X443D02*
D03*
X423D02*
D03*
D27*
X453Y79D02*
D03*
D28*
X411Y341D02*
D03*
X448D02*
D03*
X485D02*
D03*
Y247D02*
D03*
X448D02*
D03*
X411D02*
D03*
D29*
X163Y589D02*
Y625D01*
X430Y518D02*
X472Y561D01*
Y567D01*
Y619D01*
X456Y421D02*
X470Y435D01*
Y463D01*
X267Y517D02*
Y546D01*
X460Y203D02*
X492D01*
X147Y182D02*
Y188D01*
X170Y210D01*
Y223D01*
X237Y255D02*
Y287D01*
X385Y284D02*
X450D01*
X485Y319D01*
Y341D01*
X384Y305D02*
X431D01*
X433Y303D01*
X448Y318D01*
Y341D01*
X127Y316D02*
Y390D01*
X107Y424D02*
X121Y438D01*
X107Y390D02*
Y424D01*
X25Y356D02*
X27Y353D01*
X63D01*
X67Y349D01*
Y316D02*
Y349D01*
X134Y287D02*
Y298D01*
X127Y305D02*
X134Y298D01*
X127Y305D02*
Y316D01*
X62Y230D02*
X67Y225D01*
X134D02*
Y255D01*
X67Y225D02*
X134D01*
X25Y255D02*
X37D01*
X62Y230D01*
X134Y223D02*
Y225D01*
Y255D02*
Y287D01*
X33Y389D02*
X67D01*
Y390D01*
X19Y403D02*
X33Y389D01*
X19Y403D02*
Y531D01*
X20Y532D01*
X53Y568D02*
X53Y568D01*
X20Y568D02*
X53D01*
X392Y385D02*
X424D01*
X203Y182D02*
Y189D01*
X237Y223D01*
X309Y164D02*
X310Y164D01*
X309Y164D02*
Y210D01*
X357Y588D02*
X388Y619D01*
X406D01*
X394Y485D02*
Y518D01*
X392Y421D02*
X424D01*
X456D02*
X488D01*
X485Y383D02*
X488Y385D01*
X485Y341D02*
Y383D01*
X448Y377D02*
X456Y385D01*
X448Y341D02*
Y377D01*
X163Y589D02*
X165Y588D01*
X199Y625D02*
X243D01*
X197Y623D02*
X199Y625D01*
X197Y588D02*
Y623D01*
X280Y625D02*
X324D01*
X293Y588D02*
X325D01*
X261D02*
X293D01*
X229D02*
X261D01*
X197Y552D02*
X229D01*
X261D02*
X293D01*
X261D02*
X267Y546D01*
X325Y588D02*
X357D01*
X325Y552D02*
X357D01*
X326Y517D02*
Y551D01*
X434Y203D02*
Y233D01*
X428Y203D02*
X434D01*
Y233D02*
X448Y247D01*
X460Y167D02*
X492D01*
X485Y209D02*
X492Y203D01*
X485Y209D02*
Y247D01*
X359Y215D02*
X364Y210D01*
X359Y215D02*
Y251D01*
Y283D01*
X208Y374D02*
X227Y393D01*
X257Y423D01*
X163Y393D02*
X227D01*
X163Y374D02*
X208D01*
X201Y255D02*
Y287D01*
Y223D02*
Y255D01*
X237Y223D02*
Y255D01*
X227Y296D02*
X237Y287D01*
X227Y296D02*
Y329D01*
X364Y164D02*
X365D01*
X261Y51D02*
X292Y20D01*
X309D01*
X341D01*
Y123D02*
X346Y128D01*
X205Y110D02*
X261D01*
X197Y102D02*
X205Y110D01*
X261D02*
X272Y121D01*
Y158D01*
X365Y164D02*
X393Y136D01*
Y128D02*
Y136D01*
X346Y128D02*
X393D01*
D30*
X429Y540D02*
X440Y551D01*
X416Y540D02*
X429D01*
X394Y518D02*
X416Y540D01*
X406Y619D02*
X411D01*
X440Y590D01*
Y551D02*
Y590D01*
X405Y443D02*
X435D01*
X376Y472D02*
Y541D01*
Y472D02*
X405Y443D01*
X172Y144D02*
X173Y145D01*
Y195D01*
X201Y223D01*
X424Y385D02*
X456Y417D01*
Y421D01*
X376Y541D02*
X403Y567D01*
X406D01*
X182Y492D02*
X182Y492D01*
X163Y492D02*
X182D01*
X283Y497D02*
X285D01*
X287Y498D01*
X227Y497D02*
X227Y497D01*
Y517D01*
X247Y497D02*
X247Y497D01*
Y517D01*
X287Y498D02*
Y517D01*
X306Y498D02*
X306Y498D01*
Y517D01*
X309Y210D02*
X323Y223D01*
Y251D01*
Y283D01*
X287Y319D02*
X323Y283D01*
X287Y319D02*
Y329D01*
X208Y316D02*
Y329D01*
X197Y305D02*
X208Y316D01*
X186Y305D02*
X197D01*
X170Y255D02*
Y287D01*
Y223D02*
Y255D01*
Y287D02*
Y289D01*
X186Y305D01*
X208Y144D02*
X228D01*
X240Y156D01*
Y192D02*
Y193D01*
X258Y210D01*
X272Y194D02*
Y205D01*
X269Y208D02*
X272Y205D01*
X247Y311D02*
Y329D01*
X267D02*
X269Y327D01*
X247Y311D02*
X258Y300D01*
X269Y208D02*
Y327D01*
X258Y210D02*
Y300D01*
X306Y319D02*
Y329D01*
Y319D02*
X320Y305D01*
X338D01*
D31*
X438Y485D02*
X470Y517D01*
X430Y485D02*
X438D01*
X376Y341D02*
X411D01*
X359Y324D02*
X376Y341D01*
X112Y546D02*
X118Y552D01*
X165D01*
X53Y501D02*
Y532D01*
Y501D02*
X60Y494D01*
X396Y203D02*
X407Y214D01*
Y243D01*
X411Y247D01*
X359Y283D02*
Y324D01*
D32*
X64Y35D02*
X125Y95D01*
X141D01*
X115Y444D02*
X121Y438D01*
X115Y444D02*
Y494D01*
X433Y59D02*
X453Y79D01*
X427Y66D02*
X433Y59D01*
X374Y56D02*
X384Y66D01*
X427D01*
D33*
X151Y333D02*
X155Y329D01*
X188D01*
X331Y492D02*
X351D01*
X330Y491D02*
X331Y492D01*
X309Y56D02*
Y72D01*
Y87D01*
D34*
X261Y110D02*
D03*
Y51D02*
D03*
D35*
X25Y94D02*
D03*
X103Y288D02*
D03*
X17Y614D02*
D03*
X54Y634D02*
D03*
X22Y568D02*
D03*
X151Y333D02*
D03*
X171Y354D02*
D03*
X385Y284D02*
D03*
X384Y305D02*
D03*
X359Y283D02*
D03*
X492Y167D02*
D03*
X121Y438D02*
D03*
X115Y494D02*
D03*
X54Y535D02*
D03*
X23Y595D02*
D03*
X97Y556D02*
D03*
X100Y537D02*
D03*
X427Y411D02*
D03*
X460Y199D02*
D03*
X428Y200D02*
D03*
X472Y619D02*
D03*
X357Y552D02*
D03*
X366Y626D02*
D03*
X298Y588D02*
D03*
X435Y443D02*
D03*
X360Y473D02*
D03*
X424Y383D02*
D03*
X330Y491D02*
D03*
X156Y453D02*
D03*
Y433D02*
D03*
X292Y283D02*
D03*
X291Y247D02*
D03*
X47Y594D02*
D03*
X23Y634D02*
D03*
X168Y607D02*
D03*
X204Y625D02*
D03*
X302D02*
D03*
X197Y552D02*
D03*
X267Y537D02*
D03*
X182Y492D02*
D03*
X170Y472D02*
D03*
X359Y393D02*
D03*
Y413D02*
D03*
Y433D02*
D03*
Y452D02*
D03*
X156Y413D02*
D03*
X283Y497D02*
D03*
X227D02*
D03*
X247D02*
D03*
X306Y498D02*
D03*
X474Y22D02*
D03*
X241Y259D02*
D03*
X195Y251D02*
D03*
X309Y72D02*
D03*
X341D02*
D03*
X393Y128D02*
D03*
X307Y122D02*
D03*
X338Y305D02*
D03*
X372Y87D02*
D03*
X393Y39D02*
D03*
X64Y74D02*
D03*
D36*
X208Y472D02*
D03*
X257D02*
D03*
X306D02*
D03*
X208Y423D02*
D03*
X257D02*
D03*
X306D02*
D03*
X208Y374D02*
D03*
X257D02*
D03*
X306D02*
D03*
X81Y353D02*
D03*
X113D02*
D03*
X473Y99D02*
D03*
Y59D02*
D03*
X433Y99D02*
D03*
Y59D02*
D03*
M02*
