%FSLAX23Y23*%
%MOIN*%
G70*
G01*
G75*
G04 Layer_Color=16711935*
%ADD10C,0.008*%
%ADD11R,0.030X0.030*%
%ADD12R,0.020X0.020*%
%ADD13R,0.020X0.020*%
%ADD14R,0.043X0.035*%
%ADD15R,0.030X0.030*%
%ADD16R,0.044X0.058*%
%ADD17R,0.058X0.044*%
%ADD18R,0.107X0.051*%
%ADD19R,0.024X0.010*%
%ADD20R,0.010X0.024*%
%ADD21R,0.122X0.122*%
%ADD22R,0.011X0.020*%
%ADD23R,0.063X0.035*%
%ADD24R,0.020X0.012*%
%ADD25R,0.019X0.012*%
%ADD26R,0.010X0.028*%
%ADD27R,0.094X0.065*%
%ADD28R,0.028X0.051*%
%ADD29C,0.010*%
%ADD30C,0.006*%
%ADD31C,0.012*%
%ADD32C,0.020*%
%ADD33C,0.005*%
%ADD34C,0.051*%
%ADD35C,0.016*%
%ADD36C,0.020*%
%ADD37O,0.053X0.016*%
%ADD38O,0.069X0.016*%
%ADD39O,0.100X0.016*%
%ADD40O,0.016X0.053*%
%ADD41O,0.016X0.069*%
%ADD42R,0.030X0.059*%
%ADD43R,0.014X0.020*%
%ADD44R,0.011X0.020*%
%ADD45R,0.080X0.063*%
%ADD46C,0.004*%
%ADD47C,0.010*%
%ADD48C,0.008*%
%ADD49R,0.032X0.032*%
%ADD50R,0.022X0.022*%
%ADD51R,0.022X0.022*%
%ADD52R,0.045X0.037*%
%ADD53R,0.032X0.032*%
%ADD54R,0.046X0.060*%
%ADD55R,0.060X0.046*%
%ADD56R,0.109X0.053*%
%ADD57R,0.124X0.124*%
%ADD58R,0.017X0.025*%
%ADD59R,0.069X0.041*%
%ADD60R,0.024X0.016*%
%ADD61R,0.023X0.016*%
%ADD62R,0.018X0.036*%
%ADD63R,0.102X0.073*%
%ADD64R,0.030X0.053*%
%ADD65C,0.002*%
%ADD66C,0.022*%
%ADD67R,0.010X0.040*%
%ADD68O,0.055X0.018*%
%ADD69O,0.071X0.018*%
%ADD70O,0.102X0.018*%
%ADD71O,0.018X0.055*%
%ADD72O,0.018X0.071*%
%ADD73R,0.016X0.022*%
%ADD74R,0.013X0.022*%
%ADD75C,0.000*%
%ADD76C,0.000*%
D75*
X512Y176D02*
G03*
X511Y177I-1J0D01*
G01*
X551Y216D02*
G03*
X511Y177I0J-39D01*
G01*
X551Y216D02*
G03*
X591Y256I0J40D01*
G01*
D02*
G03*
X552Y295I-39J0D01*
G01*
X512Y334D02*
G03*
X551Y295I39J0D01*
G01*
X295Y689D02*
G03*
X335Y650I39J0D01*
G01*
X296Y689D02*
G03*
X256Y729I-40J0D01*
G01*
D02*
G03*
X216Y689I0J-40D01*
G01*
X177Y650D02*
G03*
X216Y688I0J39D01*
G01*
X-0Y335D02*
G03*
X0Y335I0J0D01*
G01*
X-39Y296D02*
G03*
X0Y335I0J39D01*
G01*
X-39Y296D02*
G03*
X-79Y256I0J-40D01*
G01*
Y256D02*
G03*
X-40Y217I39J0D01*
G01*
X-0Y178D02*
G03*
X-39Y217I-39J0D01*
G01*
X-0Y-0D02*
X512D01*
Y176D01*
X551Y216D02*
X551D01*
X551Y295D02*
X552D01*
X512Y334D02*
Y650D01*
X335D02*
X512D01*
X335Y650D02*
Y650D01*
X335Y650D02*
Y650D01*
X296Y688D02*
Y689D01*
Y689D01*
X216Y688D02*
Y689D01*
X-0Y650D02*
X177D01*
X-0Y335D02*
Y650D01*
X-39Y296D02*
X-39D01*
X-79Y256D02*
Y256D01*
X-40Y217D02*
X-39D01*
X-0Y177D02*
Y178D01*
Y-0D02*
Y177D01*
D76*
X335Y650D02*
D03*
Y650D02*
D03*
M02*
