M48
;Layer_Color=9474304
;FILE_FORMAT=2:3
INCH,LZ
;TYPE=PLATED
T1F00S00C0.008
T2F00S00C0.039
;TYPE=NON_PLATED
T3F00S00C0.039
%
T01
X00025Y00094
X00064Y00074
X00309Y00072
X00341
X00372Y00087
X00393Y00128
X00433Y00099
Y00059
X00473
X00474Y00022
X00473Y00099
X00492Y00167
X0046Y00199
X00428Y002
X00385Y00284
X00384Y00305
X00338
X00359Y00283
X00292Y00283
X00291Y00247
X00241Y00259
X00195Y00251
X00151Y00333
X00171Y00354
X00208Y00374
Y00423
Y00472
X0017Y00472
X00182Y00492
X00227Y00497
X00247
X00257Y00472
X00306
X00306Y00498
X00283Y00497
X0033Y00491
X0036Y00473
X00359Y00452
Y00433
Y00413
Y00393
X00306Y00374
Y00423
X00257
Y00374
X00156Y00413
Y00433
Y00453
X00121Y00438
X00115Y00494
X001Y00537
X00097Y00556
X00054Y00535
X00022Y00568
X00023Y00595
X00017Y00614
X00023Y00634
X00054
X00047Y00594
X00168Y00607
X00204Y00625
X00197Y00552
X00267Y00537
X00298Y00588
X00302Y00625
X00366Y00626
X00357Y00552
X00472Y00619
X00435Y00443
X00427Y00411
X00424Y00383
X00113Y00353
X00081
X00103Y00288
X00307Y00122
X00393Y00039
T02
X00261Y00051
Y0011
T03
X-00039Y00256
X00551
X00256Y00689
M30
