%FSLAX25Y25*%
%MOIN*%
G70*
G01*
G75*
G04 Layer_Color=16711935*
%ADD10R,0.02756X0.05118*%
%ADD11R,0.09370X0.06496*%
%ADD12R,0.00984X0.02756*%
%ADD13R,0.01929X0.01181*%
%ADD14R,0.02047X0.01181*%
%ADD15R,0.06299X0.03543*%
%ADD16R,0.01102X0.01969*%
%ADD17R,0.12205X0.12205*%
%ADD18R,0.00984X0.02362*%
%ADD19R,0.02362X0.00984*%
%ADD20R,0.01969X0.01969*%
%ADD21R,0.01969X0.01969*%
%ADD22R,0.10709X0.05079*%
%ADD23R,0.05787X0.04449*%
%ADD24R,0.03000X0.03000*%
%ADD25R,0.04449X0.05787*%
%ADD26R,0.03000X0.03000*%
%ADD27R,0.04331X0.03543*%
%ADD28C,0.00600*%
%ADD29C,0.01000*%
%ADD30C,0.01200*%
%ADD31C,0.00800*%
%ADD32C,0.00500*%
%ADD33C,0.02000*%
%ADD34C,0.05118*%
%ADD35C,0.01969*%
%ADD36C,0.01400*%
%ADD37O,0.01575X0.05299*%
%ADD38O,0.01575X0.06874*%
%ADD39O,0.05299X0.01575*%
%ADD40O,0.06874X0.01575*%
%ADD41O,0.10024X0.01575*%
%ADD42R,0.02953X0.05906*%
%ADD43C,0.00984*%
%ADD44C,0.00394*%
%ADD45C,0.00787*%
%ADD46R,0.00984X0.01969*%
%ADD47R,0.05118X0.02756*%
%ADD48R,0.05512X0.05512*%
%ADD49R,0.05512X0.05906*%
%ADD50R,0.02756X0.00000*%
%ADD51R,0.02956X0.05318*%
%ADD52R,0.10173X0.07299*%
%ADD53R,0.01787X0.03559*%
%ADD54R,0.02323X0.01575*%
%ADD55R,0.02441X0.01575*%
%ADD56R,0.06850X0.04095*%
%ADD57R,0.01654X0.02520*%
%ADD58R,0.12405X0.12405*%
%ADD59R,0.02169X0.02169*%
%ADD60R,0.02169X0.02169*%
%ADD61R,0.10909X0.05279*%
%ADD62R,0.05987X0.04649*%
%ADD63R,0.03200X0.03200*%
%ADD64R,0.04649X0.05987*%
%ADD65R,0.03200X0.03200*%
%ADD66R,0.04531X0.03743*%
%ADD67C,0.02169*%
%ADD68O,0.01775X0.05499*%
%ADD69O,0.01775X0.07074*%
%ADD70O,0.05499X0.01775*%
%ADD71O,0.07074X0.01775*%
%ADD72O,0.10224X0.01775*%
D34*
X30200Y7600D02*
D03*
X26066Y11734D02*
D03*
X34334D02*
D03*
Y3466D02*
D03*
X26066D02*
D03*
D42*
X2431Y3900D02*
D03*
X6368D02*
D03*
D60*
X45728Y13000D02*
D03*
X49272D02*
D03*
X11428Y12200D02*
D03*
X14972D02*
D03*
X18128D02*
D03*
X21672D02*
D03*
X21672Y9000D02*
D03*
X18128D02*
D03*
X14972D02*
D03*
X11428D02*
D03*
D67*
X41932Y5931D02*
D03*
Y9868D02*
D03*
X45869Y5931D02*
D03*
Y9868D02*
D03*
D68*
X42823Y18150D02*
D03*
X8177D02*
D03*
Y60850D02*
D03*
X42823D02*
D03*
D69*
X39673Y18937D02*
D03*
X36524D02*
D03*
X33374D02*
D03*
X30224D02*
D03*
X27075D02*
D03*
X23925D02*
D03*
X20776D02*
D03*
X17626D02*
D03*
X14476D02*
D03*
X11327D02*
D03*
Y60063D02*
D03*
X14476D02*
D03*
X17626D02*
D03*
X20776D02*
D03*
X23925D02*
D03*
X27075D02*
D03*
X30224D02*
D03*
X33374D02*
D03*
X36524D02*
D03*
X39673D02*
D03*
D70*
X4150Y22177D02*
D03*
Y56823D02*
D03*
X46850D02*
D03*
Y22177D02*
D03*
D71*
X4937Y25327D02*
D03*
Y28476D02*
D03*
Y31626D02*
D03*
Y34776D02*
D03*
Y37925D02*
D03*
Y41075D02*
D03*
Y44224D02*
D03*
Y47374D02*
D03*
Y50524D02*
D03*
Y53673D02*
D03*
X46063D02*
D03*
Y50524D02*
D03*
Y47374D02*
D03*
Y44224D02*
D03*
Y41075D02*
D03*
Y34776D02*
D03*
Y31626D02*
D03*
Y28476D02*
D03*
Y25327D02*
D03*
D72*
X44488Y37925D02*
D03*
M02*
