%FSLAX25Y25*%
%MOIN*%
G70*
G01*
G75*
G04 Layer_Color=8388736*
%ADD10R,0.02756X0.05118*%
%ADD11R,0.09370X0.06496*%
%ADD12R,0.00984X0.02756*%
%ADD13R,0.01929X0.01181*%
%ADD14R,0.02047X0.01181*%
%ADD15R,0.06299X0.03543*%
%ADD16R,0.01102X0.01969*%
%ADD17R,0.12205X0.12205*%
%ADD18R,0.00984X0.02362*%
%ADD19R,0.02362X0.00984*%
%ADD20R,0.01969X0.01969*%
%ADD21R,0.01969X0.01969*%
%ADD22R,0.10709X0.05079*%
%ADD23R,0.05787X0.04449*%
%ADD24R,0.03000X0.03000*%
%ADD25R,0.04449X0.05787*%
%ADD26R,0.03000X0.03000*%
%ADD27R,0.04331X0.03543*%
%ADD28C,0.00600*%
%ADD29C,0.01000*%
%ADD30C,0.01200*%
%ADD31C,0.00800*%
%ADD32C,0.00500*%
%ADD33C,0.02000*%
%ADD34C,0.05118*%
%ADD35C,0.01969*%
%ADD36C,0.01400*%
%ADD37O,0.01575X0.05299*%
%ADD38O,0.01575X0.06874*%
%ADD39O,0.05299X0.01575*%
%ADD40O,0.06874X0.01575*%
%ADD41O,0.10024X0.01575*%
%ADD42R,0.02953X0.05906*%
%ADD43C,0.00984*%
%ADD44C,0.00394*%
%ADD45C,0.00787*%
%ADD46R,0.00984X0.01969*%
%ADD47R,0.05118X0.02756*%
%ADD48R,0.05512X0.05512*%
%ADD49R,0.05512X0.05906*%
%ADD50R,0.02756X0.00000*%
%ADD51R,0.02956X0.05318*%
%ADD52R,0.10173X0.07299*%
%ADD53R,0.01787X0.03559*%
%ADD54R,0.02323X0.01575*%
%ADD55R,0.02441X0.01575*%
%ADD56R,0.06850X0.04095*%
%ADD57R,0.01654X0.02520*%
%ADD58R,0.12405X0.12405*%
%ADD59R,0.02169X0.02169*%
%ADD60R,0.02169X0.02169*%
%ADD61R,0.10909X0.05279*%
%ADD62R,0.05987X0.04649*%
%ADD63R,0.03200X0.03200*%
%ADD64R,0.04649X0.05987*%
%ADD65R,0.03200X0.03200*%
%ADD66R,0.04531X0.03743*%
%ADD67C,0.02169*%
D18*
X18810Y51749D02*
D03*
X20779D02*
D03*
X22747D02*
D03*
X24716D02*
D03*
X26684D02*
D03*
X28653D02*
D03*
X30621D02*
D03*
X32590D02*
D03*
Y32851D02*
D03*
X30621D02*
D03*
X28653D02*
D03*
X26684D02*
D03*
X24716D02*
D03*
X22747D02*
D03*
X20779D02*
D03*
X18810D02*
D03*
D19*
X35149Y49190D02*
D03*
Y47221D02*
D03*
Y45253D02*
D03*
Y43284D02*
D03*
Y41316D02*
D03*
Y39347D02*
D03*
Y37379D02*
D03*
Y35410D02*
D03*
X16251D02*
D03*
Y37379D02*
D03*
Y39347D02*
D03*
Y41316D02*
D03*
Y43284D02*
D03*
Y45253D02*
D03*
Y47221D02*
D03*
Y49190D02*
D03*
D34*
X30200Y7600D02*
D03*
X26066Y11734D02*
D03*
X34334D02*
D03*
Y3466D02*
D03*
X26066D02*
D03*
D51*
X41060Y24676D02*
D03*
X44800D02*
D03*
X48540D02*
D03*
Y34124D02*
D03*
X44800D02*
D03*
X41060D02*
D03*
D52*
X43900Y7900D02*
D03*
D53*
X40947Y2388D02*
D03*
X42916D02*
D03*
X44884D02*
D03*
X46853D02*
D03*
X40947Y13412D02*
D03*
X42916D02*
D03*
X44884D02*
D03*
X46853D02*
D03*
D54*
X1984Y59431D02*
D03*
Y61400D02*
D03*
Y63368D02*
D03*
X5016D02*
D03*
Y61400D02*
D03*
D55*
Y59431D02*
D03*
D56*
X9700Y35300D02*
D03*
D57*
X6747Y39040D02*
D03*
X8716D02*
D03*
X10684D02*
D03*
X12653D02*
D03*
Y31560D02*
D03*
X10684D02*
D03*
X8716D02*
D03*
X6747D02*
D03*
D58*
X25700Y42300D02*
D03*
D59*
X42800Y16728D02*
D03*
Y20272D02*
D03*
X39600Y16728D02*
D03*
Y20272D02*
D03*
X14400Y9528D02*
D03*
Y13072D02*
D03*
Y6372D02*
D03*
Y2828D02*
D03*
X2000Y53228D02*
D03*
Y56772D02*
D03*
X45600Y38528D02*
D03*
Y42072D02*
D03*
X48800Y38528D02*
D03*
Y42072D02*
D03*
X6200Y22972D02*
D03*
Y19428D02*
D03*
X24000Y15628D02*
D03*
Y19172D02*
D03*
X27200Y15828D02*
D03*
Y19372D02*
D03*
X35700Y58772D02*
D03*
Y55228D02*
D03*
X32500Y58772D02*
D03*
Y55228D02*
D03*
X29300Y58772D02*
D03*
Y55228D02*
D03*
X26100Y58772D02*
D03*
Y55228D02*
D03*
X19700Y58772D02*
D03*
Y55228D02*
D03*
X39200Y38528D02*
D03*
Y42072D02*
D03*
X5300Y56772D02*
D03*
Y53228D02*
D03*
X16500Y55228D02*
D03*
Y58772D02*
D03*
X29200Y24728D02*
D03*
Y28272D02*
D03*
X42400Y38528D02*
D03*
Y42072D02*
D03*
X46000Y16728D02*
D03*
Y20272D02*
D03*
X49200Y16728D02*
D03*
Y20272D02*
D03*
X22900Y55228D02*
D03*
Y58772D02*
D03*
D60*
X20772Y14400D02*
D03*
X17228D02*
D03*
X35869Y25054D02*
D03*
X32326D02*
D03*
X35869Y28254D02*
D03*
X32326D02*
D03*
X20128Y25500D02*
D03*
X23672D02*
D03*
X20128Y28700D02*
D03*
X23672D02*
D03*
X13428Y25500D02*
D03*
X16972D02*
D03*
X13428Y28700D02*
D03*
X16972D02*
D03*
X42972Y48500D02*
D03*
X39428D02*
D03*
X19872Y62500D02*
D03*
X16328D02*
D03*
X16972Y22300D02*
D03*
X13428D02*
D03*
X23672D02*
D03*
X20128D02*
D03*
X24328Y62500D02*
D03*
X27872D02*
D03*
X35972D02*
D03*
X32428D02*
D03*
X42972Y51800D02*
D03*
X39428D02*
D03*
D61*
X6400Y3469D02*
D03*
Y14532D02*
D03*
D62*
X19700Y3247D02*
D03*
Y10215D02*
D03*
X11200Y54616D02*
D03*
Y61584D02*
D03*
D63*
X9800Y25450D02*
D03*
Y19950D02*
D03*
X2500Y25450D02*
D03*
Y19950D02*
D03*
Y35550D02*
D03*
Y30050D02*
D03*
X48000Y51750D02*
D03*
Y46250D02*
D03*
D64*
X12084Y43800D02*
D03*
X5116D02*
D03*
D65*
X36450Y16400D02*
D03*
X30950D02*
D03*
X14750Y18200D02*
D03*
X20250D02*
D03*
X5950Y49400D02*
D03*
X11450D02*
D03*
X36448Y20954D02*
D03*
X30948D02*
D03*
D66*
X47246Y56741D02*
D03*
X40554D02*
D03*
X47246Y61859D02*
D03*
X40554D02*
D03*
D67*
X41932Y5931D02*
D03*
Y9868D02*
D03*
X45869Y5931D02*
D03*
Y9868D02*
D03*
M02*
