%FSLAX25Y25*%
%MOIN*%
G70*
G01*
G75*
G04 Layer_Color=16711935*
%ADD10R,0.02756X0.05118*%
%ADD11R,0.09370X0.06496*%
%ADD12R,0.00984X0.02756*%
%ADD13R,0.01929X0.01181*%
%ADD14R,0.02047X0.01181*%
%ADD15R,0.06299X0.03543*%
%ADD16R,0.01102X0.01969*%
%ADD17R,0.12205X0.12205*%
%ADD18R,0.00984X0.02362*%
%ADD19R,0.02362X0.00984*%
%ADD20R,0.01969X0.01969*%
%ADD21R,0.01969X0.01969*%
%ADD22R,0.10709X0.05079*%
%ADD23R,0.05787X0.04449*%
%ADD24R,0.03000X0.03000*%
%ADD25R,0.04449X0.05787*%
%ADD26R,0.03000X0.03000*%
%ADD27R,0.04331X0.03543*%
%ADD28C,0.00600*%
%ADD29C,0.01000*%
%ADD30C,0.01200*%
%ADD31C,0.00800*%
%ADD32C,0.00500*%
%ADD33C,0.02000*%
%ADD34C,0.05118*%
%ADD35C,0.01969*%
%ADD36C,0.01400*%
%ADD37O,0.01575X0.05299*%
%ADD38O,0.01575X0.06874*%
%ADD39O,0.05299X0.01575*%
%ADD40O,0.06874X0.01575*%
%ADD41O,0.10024X0.01575*%
%ADD42R,0.02953X0.05906*%
%ADD43C,0.00984*%
%ADD44C,0.00394*%
%ADD45C,0.00787*%
%ADD46R,0.00984X0.01969*%
%ADD47R,0.05118X0.02756*%
%ADD48R,0.05512X0.05512*%
%ADD49R,0.05512X0.05906*%
%ADD50R,0.02756X0.00000*%
%ADD51R,0.02956X0.05318*%
%ADD52R,0.10173X0.07299*%
%ADD53R,0.01787X0.03559*%
%ADD54R,0.02323X0.01575*%
%ADD55R,0.02441X0.01575*%
%ADD56R,0.06850X0.04095*%
%ADD57R,0.01654X0.02520*%
%ADD58R,0.12405X0.12405*%
%ADD59R,0.02169X0.02169*%
%ADD60R,0.02169X0.02169*%
%ADD61R,0.10909X0.05279*%
%ADD62R,0.05987X0.04649*%
%ADD63R,0.03200X0.03200*%
%ADD64R,0.04649X0.05987*%
%ADD65R,0.03200X0.03200*%
%ADD66R,0.04531X0.03743*%
%ADD67C,0.02169*%
%ADD68O,0.01775X0.05499*%
%ADD69O,0.01775X0.07074*%
%ADD70O,0.05499X0.01775*%
%ADD71O,0.07074X0.01775*%
%ADD72O,0.10224X0.01775*%
%ADD73C,0.00000*%
%ADD74C,0.00400*%
D29*
X49500Y63000D02*
G03*
X49500Y63000I-500J0D01*
G01*
D74*
X39700Y47500D02*
Y49499D01*
X40700D01*
X41033Y49166D01*
Y48500D01*
X40700Y48166D01*
X39700D01*
X40366D02*
X41033Y47500D01*
X41699D02*
X42366D01*
X42033D01*
Y49499D01*
X41699Y49166D01*
X47001Y48200D02*
X49000D01*
Y49200D01*
X48667Y49533D01*
X47334D01*
X47001Y49200D01*
Y48200D01*
X49000Y50199D02*
Y50866D01*
Y50533D01*
X47001D01*
X47334Y50199D01*
X38334Y39333D02*
X38001Y39000D01*
Y38333D01*
X38334Y38000D01*
X39667D01*
X40000Y38333D01*
Y39000D01*
X39667Y39333D01*
X40000Y41332D02*
Y39999D01*
X38667Y41332D01*
X38334D01*
X38001Y40999D01*
Y40333D01*
X38334Y39999D01*
X38001Y41999D02*
Y43332D01*
X38334D01*
X39667Y41999D01*
X40000D01*
X20500Y54500D02*
X18501D01*
Y55500D01*
X18834Y55833D01*
X19500D01*
X19834Y55500D01*
Y54500D01*
Y55166D02*
X20500Y55833D01*
Y56499D02*
Y57166D01*
Y56833D01*
X18501D01*
X18834Y56499D01*
X20500Y59165D02*
X18501D01*
X19500Y58166D01*
Y59498D01*
X41634Y39033D02*
X41301Y38700D01*
Y38033D01*
X41634Y37700D01*
X42967D01*
X43300Y38033D01*
Y38700D01*
X42967Y39033D01*
X43300Y41032D02*
Y39699D01*
X41967Y41032D01*
X41634D01*
X41301Y40699D01*
Y40033D01*
X41634Y39699D01*
X41301Y43032D02*
X41634Y42365D01*
X42300Y41699D01*
X42967D01*
X43300Y42032D01*
Y42698D01*
X42967Y43032D01*
X42634D01*
X42300Y42698D01*
Y41699D01*
X28334Y25633D02*
X28001Y25300D01*
Y24633D01*
X28334Y24300D01*
X29667D01*
X30000Y24633D01*
Y25300D01*
X29667Y25633D01*
X30000Y27632D02*
Y26299D01*
X28667Y27632D01*
X28334D01*
X28001Y27299D01*
Y26633D01*
X28334Y26299D01*
X28001Y29632D02*
Y28299D01*
X29000D01*
X28667Y28965D01*
Y29298D01*
X29000Y29632D01*
X29667D01*
X30000Y29298D01*
Y28632D01*
X29667Y28299D01*
X25434Y56933D02*
X25101Y56600D01*
Y55933D01*
X25434Y55600D01*
X26767D01*
X27100Y55933D01*
Y56600D01*
X26767Y56933D01*
X25101Y58932D02*
Y57599D01*
X26100D01*
X25767Y58266D01*
Y58599D01*
X26100Y58932D01*
X26767D01*
X27100Y58599D01*
Y57933D01*
X26767Y57599D01*
X28734Y56933D02*
X28401Y56600D01*
Y55933D01*
X28734Y55600D01*
X30067D01*
X30400Y55933D01*
Y56600D01*
X30067Y56933D01*
X28401Y58932D02*
X28734Y58266D01*
X29400Y57599D01*
X30067D01*
X30400Y57933D01*
Y58599D01*
X30067Y58932D01*
X29734D01*
X29400Y58599D01*
Y57599D01*
X14835Y29535D02*
X14502Y29869D01*
X13836D01*
X13502Y29535D01*
Y28202D01*
X13836Y27869D01*
X14502D01*
X14835Y28202D01*
X15502Y29869D02*
X16835D01*
Y29535D01*
X15502Y28202D01*
Y27869D01*
X15335Y26135D02*
X15002Y26469D01*
X14335D01*
X14002Y26135D01*
Y24802D01*
X14335Y24469D01*
X15002D01*
X15335Y24802D01*
X16002Y26135D02*
X16335Y26469D01*
X17001D01*
X17335Y26135D01*
Y25802D01*
X17001Y25469D01*
X17335Y25136D01*
Y24802D01*
X17001Y24469D01*
X16335D01*
X16002Y24802D01*
Y25136D01*
X16335Y25469D01*
X16002Y25802D01*
Y26135D01*
X16335Y25469D02*
X17001D01*
X14833Y22566D02*
X14500Y22899D01*
X13833D01*
X13500Y22566D01*
Y21233D01*
X13833Y20900D01*
X14500D01*
X14833Y21233D01*
X15499D02*
X15833Y20900D01*
X16499D01*
X16832Y21233D01*
Y22566D01*
X16499Y22899D01*
X15833D01*
X15499Y22566D01*
Y22233D01*
X15833Y21900D01*
X16832D01*
X21633Y29566D02*
X21300Y29899D01*
X20633D01*
X20300Y29566D01*
Y28233D01*
X20633Y27900D01*
X21300D01*
X21633Y28233D01*
X22299Y27900D02*
X22966D01*
X22633D01*
Y29899D01*
X22299Y29566D01*
X23966D02*
X24299Y29899D01*
X24965D01*
X25298Y29566D01*
Y28233D01*
X24965Y27900D01*
X24299D01*
X23966Y28233D01*
Y29566D01*
X21733Y26266D02*
X21400Y26599D01*
X20733D01*
X20400Y26266D01*
Y24933D01*
X20733Y24600D01*
X21400D01*
X21733Y24933D01*
X22399Y24600D02*
X23066D01*
X22733D01*
Y26599D01*
X22399Y26266D01*
X24066Y24600D02*
X24732D01*
X24399D01*
Y26599D01*
X24066Y26266D01*
X21633Y22666D02*
X21300Y22999D01*
X20633D01*
X20300Y22666D01*
Y21333D01*
X20633Y21000D01*
X21300D01*
X21633Y21333D01*
X22299Y21000D02*
X22966D01*
X22633D01*
Y22999D01*
X22299Y22666D01*
X25298Y21000D02*
X23966D01*
X25298Y22333D01*
Y22666D01*
X24965Y22999D01*
X24299D01*
X23966Y22666D01*
X31834Y56433D02*
X31501Y56100D01*
Y55433D01*
X31834Y55100D01*
X33167D01*
X33500Y55433D01*
Y56100D01*
X33167Y56433D01*
X33500Y57099D02*
Y57766D01*
Y57433D01*
X31501D01*
X31834Y57099D01*
Y58766D02*
X31501Y59099D01*
Y59765D01*
X31834Y60098D01*
X32167D01*
X32500Y59765D01*
Y59432D01*
Y59765D01*
X32834Y60098D01*
X33167D01*
X33500Y59765D01*
Y59099D01*
X33167Y58766D01*
X35134Y56033D02*
X34801Y55700D01*
Y55033D01*
X35134Y54700D01*
X36467D01*
X36800Y55033D01*
Y55700D01*
X36467Y56033D01*
X36800Y56699D02*
Y57366D01*
Y57033D01*
X34801D01*
X35134Y56699D01*
X36800Y59365D02*
X34801D01*
X35800Y58365D01*
Y59698D01*
X33733Y28990D02*
X33400Y29323D01*
X32733D01*
X32400Y28990D01*
Y27657D01*
X32733Y27323D01*
X33400D01*
X33733Y27657D01*
X34399Y27323D02*
X35066D01*
X34733D01*
Y29323D01*
X34399Y28990D01*
X37398Y29323D02*
X36066D01*
Y28323D01*
X36732Y28656D01*
X37065D01*
X37398Y28323D01*
Y27657D01*
X37065Y27323D01*
X36399D01*
X36066Y27657D01*
X33133Y25590D02*
X32800Y25923D01*
X32133D01*
X31800Y25590D01*
Y24257D01*
X32133Y23923D01*
X32800D01*
X33133Y24257D01*
X33799Y23923D02*
X34466D01*
X34133D01*
Y25923D01*
X33799Y25590D01*
X36798Y25923D02*
X36132Y25590D01*
X35465Y24923D01*
Y24257D01*
X35799Y23923D01*
X36465D01*
X36798Y24257D01*
Y24590D01*
X36465Y24923D01*
X35465D01*
X32633Y21490D02*
X32300Y21823D01*
X31633D01*
X31300Y21490D01*
Y20157D01*
X31633Y19824D01*
X32300D01*
X32633Y20157D01*
X33299Y19824D02*
X33966D01*
X33633D01*
Y21823D01*
X33299Y21490D01*
X34966Y21823D02*
X36298D01*
Y21490D01*
X34966Y20157D01*
Y19824D01*
X26234Y16133D02*
X25901Y15800D01*
Y15133D01*
X26234Y14800D01*
X27567D01*
X27900Y15133D01*
Y15800D01*
X27567Y16133D01*
X27900Y16799D02*
Y17466D01*
Y17133D01*
X25901D01*
X26234Y16799D01*
Y18465D02*
X25901Y18799D01*
Y19465D01*
X26234Y19798D01*
X26567D01*
X26900Y19465D01*
X27234Y19798D01*
X27567D01*
X27900Y19465D01*
Y18799D01*
X27567Y18465D01*
X27234D01*
X26900Y18799D01*
X26567Y18465D01*
X26234D01*
X26900Y18799D02*
Y19465D01*
X23534Y16233D02*
X23201Y15900D01*
Y15233D01*
X23534Y14900D01*
X24867D01*
X25200Y15233D01*
Y15900D01*
X24867Y16233D01*
X25200Y16899D02*
Y17566D01*
Y17233D01*
X23201D01*
X23534Y16899D01*
X24867Y18565D02*
X25200Y18899D01*
Y19565D01*
X24867Y19898D01*
X23534D01*
X23201Y19565D01*
Y18899D01*
X23534Y18565D01*
X23867D01*
X24200Y18899D01*
Y19898D01*
X21267Y12466D02*
X21600Y12799D01*
X22267D01*
X22600Y12466D01*
Y11133D01*
X22267Y10800D01*
X21600D01*
X21267Y11133D01*
X19268Y10800D02*
X20601D01*
X19268Y12133D01*
Y12466D01*
X19601Y12799D01*
X20267D01*
X20601Y12466D01*
X18601D02*
X18268Y12799D01*
X17602D01*
X17268Y12466D01*
Y11133D01*
X17602Y10800D01*
X18268D01*
X18601Y11133D01*
Y12466D01*
X1334Y33333D02*
X1001Y33000D01*
Y32333D01*
X1334Y32000D01*
X2667D01*
X3000Y32333D01*
Y33000D01*
X2667Y33333D01*
X3000Y33999D02*
Y34666D01*
Y34333D01*
X1001D01*
X1334Y33999D01*
X7733Y50066D02*
X7400Y50399D01*
X6733D01*
X6400Y50066D01*
Y48733D01*
X6733Y48400D01*
X7400D01*
X7733Y48733D01*
X9732Y48400D02*
X8399D01*
X9732Y49733D01*
Y50066D01*
X9399Y50399D01*
X8733D01*
X8399Y50066D01*
X4834Y54833D02*
X4501Y54500D01*
Y53833D01*
X4834Y53500D01*
X6167D01*
X6500Y53833D01*
Y54500D01*
X6167Y54833D01*
X4834Y55499D02*
X4501Y55833D01*
Y56499D01*
X4834Y56832D01*
X5167D01*
X5500Y56499D01*
Y56166D01*
Y56499D01*
X5834Y56832D01*
X6167D01*
X6500Y56499D01*
Y55833D01*
X6167Y55499D01*
X15734Y55233D02*
X15401Y54900D01*
Y54233D01*
X15734Y53900D01*
X17067D01*
X17400Y54233D01*
Y54900D01*
X17067Y55233D01*
X17400Y56899D02*
X15401D01*
X16400Y55899D01*
Y57232D01*
X2034Y22333D02*
X1701Y22000D01*
Y21333D01*
X2034Y21000D01*
X3367D01*
X3700Y21333D01*
Y22000D01*
X3367Y22333D01*
X3700Y24332D02*
Y22999D01*
X2367Y24332D01*
X2034D01*
X1701Y23999D01*
Y23333D01*
X2034Y22999D01*
X3700Y24999D02*
Y25665D01*
Y25332D01*
X1701D01*
X2034Y24999D01*
X5534Y20133D02*
X5201Y19800D01*
Y19133D01*
X5534Y18800D01*
X6867D01*
X7200Y19133D01*
Y19800D01*
X6867Y20133D01*
X7200Y22132D02*
Y20799D01*
X5867Y22132D01*
X5534D01*
X5201Y21799D01*
Y21133D01*
X5534Y20799D01*
X7200Y24132D02*
Y22799D01*
X5867Y24132D01*
X5534D01*
X5201Y23798D01*
Y23132D01*
X5534Y22799D01*
X30233Y11599D02*
X29566D01*
X29900D01*
Y9933D01*
X29566Y9600D01*
X29233D01*
X28900Y9933D01*
X30899Y9600D02*
X31566D01*
X31233D01*
Y11599D01*
X30899Y11266D01*
X16200Y18999D02*
Y17000D01*
X17533D01*
X18199Y18666D02*
X18533Y18999D01*
X19199D01*
X19532Y18666D01*
Y18333D01*
X19199Y18000D01*
X18866D01*
X19199D01*
X19532Y17666D01*
Y17333D01*
X19199Y17000D01*
X18533D01*
X18199Y17333D01*
X32302Y17168D02*
Y15169D01*
X33635D01*
X35301D02*
Y17168D01*
X34302Y16169D01*
X35635D01*
X7000Y44499D02*
Y42500D01*
X8333D01*
X8999D02*
X9666D01*
X9333D01*
Y44499D01*
X8999Y44166D01*
X10401Y56600D02*
X12400D01*
Y57933D01*
Y59932D02*
Y58599D01*
X11067Y59932D01*
X10734D01*
X10401Y59599D01*
Y58933D01*
X10734Y58599D01*
X8801Y21100D02*
X10800D01*
Y22433D01*
X8801Y24432D02*
Y23099D01*
X9800D01*
X9467Y23766D01*
Y24099D01*
X9800Y24432D01*
X10467D01*
X10800Y24099D01*
Y23433D01*
X10467Y23099D01*
X19401Y5300D02*
X21400D01*
Y6633D01*
X19401Y8632D02*
X19734Y7966D01*
X20400Y7299D01*
X21067D01*
X21400Y7633D01*
Y8299D01*
X21067Y8632D01*
X20733D01*
X20400Y8299D01*
Y7299D01*
X5601Y7800D02*
X7600D01*
Y9133D01*
X5601Y9799D02*
Y11132D01*
X5934D01*
X7267Y9799D01*
X7600D01*
X18002Y13469D02*
Y15469D01*
X19002D01*
X19335Y15135D01*
Y14469D01*
X19002Y14136D01*
X18002D01*
X18669D02*
X19335Y13469D01*
X20002Y15135D02*
X20335Y15469D01*
X21001D01*
X21335Y15135D01*
Y14802D01*
X21001Y14469D01*
X20668D01*
X21001D01*
X21335Y14136D01*
Y13802D01*
X21001Y13469D01*
X20335D01*
X20002Y13802D01*
X14400Y11200D02*
Y13199D01*
X13400D01*
X13067Y12866D01*
Y12200D01*
X13400Y11867D01*
X14400D01*
X13734D02*
X13067Y11200D01*
X11401D02*
Y13199D01*
X12401Y12200D01*
X11068D01*
X11800Y9800D02*
Y7801D01*
X12800D01*
X13133Y8134D01*
Y8800D01*
X12800Y9133D01*
X11800D01*
X12466D02*
X13133Y9800D01*
X15132Y7801D02*
X13799D01*
Y8800D01*
X14466Y8467D01*
X14799D01*
X15132Y8800D01*
Y9467D01*
X14799Y9800D01*
X14133D01*
X13799Y9467D01*
X18400Y9900D02*
Y7901D01*
X19400D01*
X19733Y8234D01*
Y8900D01*
X19400Y9234D01*
X18400D01*
X19067D02*
X19733Y9900D01*
X21732Y7901D02*
X21066Y8234D01*
X20399Y8900D01*
Y9567D01*
X20733Y9900D01*
X21399D01*
X21732Y9567D01*
Y9234D01*
X21399Y8900D01*
X20399D01*
X47800Y41800D02*
X49799D01*
Y40800D01*
X49466Y40467D01*
X48800D01*
X48466Y40800D01*
Y41800D01*
Y41134D02*
X47800Y40467D01*
X49799Y39801D02*
Y38468D01*
X49466D01*
X48133Y39801D01*
X47800D01*
X44700Y41800D02*
X46699D01*
Y40800D01*
X46366Y40467D01*
X45700D01*
X45366Y40800D01*
Y41800D01*
Y41134D02*
X44700Y40467D01*
X46366Y39801D02*
X46699Y39467D01*
Y38801D01*
X46366Y38468D01*
X46033D01*
X45700Y38801D01*
X45366Y38468D01*
X45033D01*
X44700Y38801D01*
Y39467D01*
X45033Y39801D01*
X45366D01*
X45700Y39467D01*
X46033Y39801D01*
X46366D01*
X45700Y39467D02*
Y38801D01*
X3000Y53500D02*
X1001D01*
Y54500D01*
X1334Y54833D01*
X2000D01*
X2334Y54500D01*
Y53500D01*
Y54166D02*
X3000Y54833D01*
Y56832D02*
Y55499D01*
X1667Y56832D01*
X1334D01*
X1001Y56499D01*
Y55833D01*
X1334Y55499D01*
X15400Y2600D02*
X13401D01*
Y3600D01*
X13734Y3933D01*
X14400D01*
X14733Y3600D01*
Y2600D01*
Y3266D02*
X15400Y3933D01*
X15067Y4599D02*
X15400Y4933D01*
Y5599D01*
X15067Y5932D01*
X13734D01*
X13401Y5599D01*
Y4933D01*
X13734Y4599D01*
X14067D01*
X14400Y4933D01*
Y5932D01*
X15100Y8700D02*
X13101D01*
Y9700D01*
X13434Y10033D01*
X14100D01*
X14434Y9700D01*
Y8700D01*
Y9366D02*
X15100Y10033D01*
Y10699D02*
Y11366D01*
Y11033D01*
X13101D01*
X13434Y10699D01*
Y12365D02*
X13101Y12699D01*
Y13365D01*
X13434Y13698D01*
X14767D01*
X15100Y13365D01*
Y12699D01*
X14767Y12365D01*
X13434D01*
X40600Y16300D02*
X38601D01*
Y17300D01*
X38934Y17633D01*
X39600D01*
X39934Y17300D01*
Y16300D01*
Y16966D02*
X40600Y17633D01*
Y18299D02*
Y18966D01*
Y18633D01*
X38601D01*
X38934Y18299D01*
X40600Y19965D02*
Y20632D01*
Y20299D01*
X38601D01*
X38934Y19965D01*
X45100Y14600D02*
Y12601D01*
X46100D01*
X46433Y12934D01*
Y13600D01*
X46100Y13934D01*
X45100D01*
X45766D02*
X46433Y14600D01*
X47099D02*
X47766D01*
X47433D01*
Y12601D01*
X47099Y12934D01*
X50098Y14600D02*
X48766D01*
X50098Y13267D01*
Y12934D01*
X49765Y12601D01*
X49099D01*
X48766Y12934D01*
X43900Y16000D02*
X41901D01*
Y17000D01*
X42234Y17333D01*
X42900D01*
X43234Y17000D01*
Y16000D01*
Y16667D02*
X43900Y17333D01*
Y17999D02*
Y18666D01*
Y18333D01*
X41901D01*
X42234Y17999D01*
Y19666D02*
X41901Y19999D01*
Y20665D01*
X42234Y20998D01*
X42567D01*
X42900Y20665D01*
Y20332D01*
Y20665D01*
X43234Y20998D01*
X43567D01*
X43900Y20665D01*
Y19999D01*
X43567Y19666D01*
X25700Y44299D02*
Y42633D01*
X26033Y42300D01*
X26700D01*
X27033Y42633D01*
Y44299D01*
X27699Y43966D02*
X28033Y44299D01*
X28699D01*
X29032Y43966D01*
Y43633D01*
X28699Y43300D01*
X28366D01*
X28699D01*
X29032Y42966D01*
Y42633D01*
X28699Y42300D01*
X28033D01*
X27699Y42633D01*
X8200Y36499D02*
Y34833D01*
X8533Y34500D01*
X9200D01*
X9533Y34833D01*
Y36499D01*
X10199Y34500D02*
X10866D01*
X10533D01*
Y36499D01*
X10199Y36166D01*
X3201Y59400D02*
X4867D01*
X5200Y59733D01*
Y60400D01*
X4867Y60733D01*
X3201D01*
X5200Y62732D02*
Y61399D01*
X3867Y62732D01*
X3534D01*
X3201Y62399D01*
Y61733D01*
X3534Y61399D01*
X42500Y8999D02*
Y7333D01*
X42833Y7000D01*
X43500D01*
X43833Y7333D01*
Y8999D01*
X45499Y7000D02*
Y8999D01*
X44499Y8000D01*
X45832D01*
X43300Y30599D02*
Y28933D01*
X43633Y28600D01*
X44300D01*
X44633Y28933D01*
Y30599D01*
X46632D02*
X45299D01*
Y29600D01*
X45966Y29933D01*
X46299D01*
X46632Y29600D01*
Y28933D01*
X46299Y28600D01*
X45633D01*
X45299Y28933D01*
X48334Y16833D02*
X48001Y16500D01*
Y15833D01*
X48334Y15500D01*
X49667D01*
X50000Y15833D01*
Y16500D01*
X49667Y16833D01*
X50000Y18832D02*
Y17499D01*
X48667Y18832D01*
X48334D01*
X48001Y18499D01*
Y17833D01*
X48334Y17499D01*
Y19499D02*
X48001Y19832D01*
Y20498D01*
X48334Y20832D01*
X48667D01*
X49000Y20498D01*
Y20165D01*
Y20498D01*
X49334Y20832D01*
X49667D01*
X50000Y20498D01*
Y19832D01*
X49667Y19499D01*
X45634Y16933D02*
X45301Y16600D01*
Y15933D01*
X45634Y15600D01*
X46967D01*
X47300Y15933D01*
Y16600D01*
X46967Y16933D01*
X47300Y18932D02*
Y17599D01*
X45967Y18932D01*
X45634D01*
X45301Y18599D01*
Y17933D01*
X45634Y17599D01*
X47300Y20598D02*
X45301D01*
X46300Y19599D01*
Y20932D01*
X43667Y57700D02*
X44667D01*
X45000Y58033D01*
Y59033D01*
X43667D01*
X43001Y61032D02*
X43334Y60366D01*
X44000Y59699D01*
X44667D01*
X45000Y60033D01*
Y60699D01*
X44667Y61032D01*
X44334D01*
X44000Y60699D01*
Y59699D01*
X17133Y63266D02*
X16800Y63599D01*
X16133D01*
X15800Y63266D01*
Y61933D01*
X16133Y61600D01*
X16800D01*
X17133Y61933D01*
X17799Y63266D02*
X18133Y63599D01*
X18799D01*
X19132Y63266D01*
Y62933D01*
X18799Y62600D01*
X18466D01*
X18799D01*
X19132Y62266D01*
Y61933D01*
X18799Y61600D01*
X18133D01*
X17799Y61933D01*
X19799Y63266D02*
X20132Y63599D01*
X20798D01*
X21132Y63266D01*
Y61933D01*
X20798Y61600D01*
X20132D01*
X19799Y61933D01*
Y63266D01*
X35033Y62966D02*
X34700Y63299D01*
X34033D01*
X33700Y62966D01*
Y61633D01*
X34033Y61300D01*
X34700D01*
X35033Y61633D01*
X37032Y61300D02*
X35699D01*
X37032Y62633D01*
Y62966D01*
X36699Y63299D01*
X36033D01*
X35699Y62966D01*
X37699D02*
X38032Y63299D01*
X38698D01*
X39032Y62966D01*
Y62633D01*
X38698Y62300D01*
X39032Y61966D01*
Y61633D01*
X38698Y61300D01*
X38032D01*
X37699Y61633D01*
Y61966D01*
X38032Y62300D01*
X37699Y62633D01*
Y62966D01*
X38032Y62300D02*
X38698D01*
X24833Y63166D02*
X24500Y63499D01*
X23833D01*
X23500Y63166D01*
Y61833D01*
X23833Y61500D01*
X24500D01*
X24833Y61833D01*
X26832Y61500D02*
X25499D01*
X26832Y62833D01*
Y63166D01*
X26499Y63499D01*
X25833D01*
X25499Y63166D01*
X27499Y61833D02*
X27832Y61500D01*
X28498D01*
X28832Y61833D01*
Y63166D01*
X28498Y63499D01*
X27832D01*
X27499Y63166D01*
Y62833D01*
X27832Y62500D01*
X28832D01*
X39833Y52466D02*
X39500Y52799D01*
X38833D01*
X38500Y52466D01*
Y51133D01*
X38833Y50800D01*
X39500D01*
X39833Y51133D01*
X40499Y52466D02*
X40833Y52799D01*
X41499D01*
X41832Y52466D01*
Y52133D01*
X41499Y51800D01*
X41166D01*
X41499D01*
X41832Y51466D01*
Y51133D01*
X41499Y50800D01*
X40833D01*
X40499Y51133D01*
X42499Y50800D02*
X43165D01*
X42832D01*
Y52799D01*
X42499Y52466D01*
X22234Y55733D02*
X21901Y55400D01*
Y54733D01*
X22234Y54400D01*
X23567D01*
X23900Y54733D01*
Y55400D01*
X23567Y55733D01*
X22234Y56399D02*
X21901Y56733D01*
Y57399D01*
X22234Y57732D01*
X22567D01*
X22900Y57399D01*
Y57066D01*
Y57399D01*
X23234Y57732D01*
X23567D01*
X23900Y57399D01*
Y56733D01*
X23567Y56399D01*
X23900Y59732D02*
Y58399D01*
X22567Y59732D01*
X22234D01*
X21901Y59398D01*
Y58732D01*
X22234Y58399D01*
X48000Y66333D02*
Y65333D01*
X48333Y65000D01*
X49333D01*
Y66333D01*
X51332Y66999D02*
X50666Y66666D01*
X49999Y66000D01*
Y65333D01*
X50333Y65000D01*
X50999D01*
X51332Y65333D01*
Y65666D01*
X50999Y66000D01*
X49999D01*
X51999Y64667D02*
X53332D01*
X53998Y65000D02*
Y66999D01*
X54998D01*
X55331Y66666D01*
Y66000D01*
X54998Y65666D01*
X53998D01*
X55997Y65000D02*
X56664D01*
X56331D01*
Y66333D01*
X55997D01*
X57664Y65000D02*
Y66333D01*
X58663D01*
X58996Y66000D01*
Y65000D01*
X59663D02*
X60329D01*
X59996D01*
Y66999D01*
X59663Y66666D01*
M02*
