M48
;Layer_Color=9474304
;FILE_FORMAT=2:5
INCH,LZ
;TYPE=PLATED
T1F00S00C0.00700
T2F00S00C0.00787
T3F00S00C0.03740
T4F00S00C0.03937
%
T01
X00025Y00094
X00041Y00107
X00043Y00081
X00086Y00088
X00091Y00107
X00195Y00067
X00201Y00257
X00241Y00259
X00291Y00247
X00292Y00283
X0035869Y0028254
X00385Y00284
X00384Y00305
X00359Y00393
Y00413
Y00433
Y00452
X0036Y00473
X0033Y00491
X00306Y00498
X00283Y00497
X00247
X00227
X00182Y00492
X0017Y00472
X00156Y00453
Y00433
Y00413
X0012084Y00438
X001145Y00494
X001Y00537
X00097Y00556
X00054Y00535
X00022Y00568
X00023Y00595
X00047Y00594
X00054Y00634
X00023
X00017Y00614
X00168Y00607
X00204Y00625
X00197Y0055228
X00267Y00537
X00298Y00588
X00302Y00625
X00366Y00626
X00357Y0055228
X0047246Y0061859
X00435Y00443
X00427Y00411
X00424Y00383
X00428Y002
X0046Y00199
X00492Y0016728
X00377Y00138
X00488Y00025
X00151Y00333
X00171Y00354
X00103Y00288
T02
X0008125Y00353
X0011275
X0020779Y0037379
X00257
X0030621
Y00423
X00257
X0020779
Y0047221
X00257
X0030621
X0041932Y0009868
Y0005931
X0045869
Y0009868
T03
X0026066Y0003466
Y0011734
X0034334
Y0003466
T04
X00302Y00076
M30
