%FSLAX25Y25*%
%MOIN*%
G70*
G01*
G75*
G04 Layer_Physical_Order=4*
G04 Layer_Color=16711680*
%ADD10R,0.06496X0.09370*%
%ADD11R,0.02756X0.00984*%
%ADD12R,0.01969X0.01969*%
%ADD13R,0.03100X0.03100*%
%ADD14R,0.01969X0.01969*%
%ADD15R,0.03000X0.03000*%
%ADD16R,0.03000X0.03000*%
%ADD17C,0.03504*%
%ADD18R,0.03701X0.03701*%
%ADD19R,0.04449X0.05787*%
%ADD20R,0.05787X0.04449*%
%ADD21R,0.10709X0.05079*%
%ADD22R,0.12205X0.12205*%
%ADD23R,0.00984X0.02362*%
%ADD24R,0.02362X0.00984*%
%ADD25R,0.06299X0.03543*%
%ADD26R,0.01102X0.01969*%
%ADD27R,0.01181X0.01929*%
%ADD28R,0.01181X0.02047*%
%ADD29R,0.05118X0.02756*%
%ADD30R,0.04921X0.05118*%
%ADD31C,0.00800*%
%ADD32C,0.00600*%
%ADD33C,0.01000*%
%ADD34C,0.02500*%
%ADD35C,0.00500*%
%ADD36C,0.02000*%
%ADD37C,0.01200*%
%ADD38C,0.01969*%
%ADD39C,0.02200*%
%ADD40C,0.01400*%
%ADD41R,0.05000X0.10000*%
%ADD42O,0.01575X0.06299*%
%ADD43O,0.01575X0.07874*%
%ADD44O,0.01575X0.11024*%
%ADD45O,0.06299X0.01575*%
%ADD46O,0.07874X0.01575*%
D14*
X41800Y10772D02*
D03*
Y7228D02*
D03*
D16*
X37750Y7700D02*
D03*
X32250D02*
D03*
X37750Y12200D02*
D03*
X32250D02*
D03*
D31*
X48820Y62781D02*
X53348Y58254D01*
X43400Y67000D02*
X45671Y64729D01*
X41400Y67000D02*
X43400D01*
X50772Y55104D02*
X52561D01*
X49000Y56876D02*
X50772Y55104D01*
X49000Y56876D02*
Y58100D01*
X48900Y58200D02*
X49000Y58100D01*
X44829Y57000D02*
X47400D01*
X42521Y59307D02*
X44829Y57000D01*
X49474Y51954D02*
X52561D01*
X3300Y30400D02*
X3900Y31000D01*
Y26100D02*
Y31000D01*
Y26100D02*
X6392Y23608D01*
X3300Y30400D02*
X3800D01*
X57354Y51954D02*
X57700Y52300D01*
X52561Y51954D02*
X57354D01*
X45671Y61994D02*
Y64729D01*
X42521Y59307D02*
Y61994D01*
X45560Y58531D02*
X45671D01*
Y61994D01*
X26773Y55755D02*
Y61994D01*
Y55755D02*
X28376Y54152D01*
X52561Y48805D02*
Y51954D01*
X6392Y23608D02*
X9647D01*
D32*
X1500Y25300D02*
Y41300D01*
X2000Y41800D01*
X14000Y12800D02*
X19687D01*
X1500Y25300D02*
X14000Y12800D01*
X19687D02*
X21487Y14600D01*
X33600D01*
X36222Y17222D01*
X51830Y68500D02*
X60500Y59830D01*
X57521Y42600D02*
X60500Y45579D01*
Y59830D01*
X60200Y24700D02*
Y34339D01*
X61300Y23679D02*
Y34794D01*
X53700Y18200D02*
X60200Y24700D01*
X57500Y37038D02*
X60200Y34339D01*
X54321Y16700D02*
X61300Y23679D01*
X58600Y37494D02*
X61300Y34794D01*
X52900Y16700D02*
X54321D01*
X51900Y17700D02*
X52900Y16700D01*
X51900Y17700D02*
Y19700D01*
X53700Y21500D01*
X61600Y45000D02*
Y60286D01*
X58600Y42000D02*
X61600Y45000D01*
X58600Y37494D02*
Y42000D01*
X57500Y42600D02*
X57521D01*
X57500Y37038D02*
Y42600D01*
X52286Y69600D02*
X61600Y60286D01*
X29800Y69600D02*
X52286D01*
X27900Y67700D02*
X29800Y69600D01*
X30800Y67800D02*
X31500Y68500D01*
X51830D01*
X33073Y61994D02*
Y65527D01*
X30800Y67800D02*
X33073Y65527D01*
X27900Y67700D02*
X29923Y65677D01*
X36222Y17222D02*
Y19868D01*
X29923Y61994D02*
Y65677D01*
D33*
X26700Y29500D02*
X26900Y29300D01*
X29318D01*
X33073Y25545D01*
Y19868D02*
Y25545D01*
X7751Y45655D02*
X10435D01*
X5498Y43402D02*
X7751Y45655D01*
X5600Y40900D02*
X6000D01*
X5498Y41002D02*
X5600Y40900D01*
X5498Y41002D02*
Y43402D01*
X45757Y3000D02*
X60100D01*
X41800Y6957D02*
X45757Y3000D01*
X41800Y6957D02*
Y7228D01*
X27500Y6900D02*
X28300Y7700D01*
X32250D01*
X27500Y6900D02*
X27700D01*
X40800Y14700D02*
X41800Y13700D01*
X35836Y14700D02*
X40800D01*
X32250Y12200D02*
X33336D01*
X35836Y14700D01*
X37750Y7700D02*
Y12200D01*
X39178Y10772D01*
X41800D01*
X43729D01*
X44810Y11853D01*
X51153D01*
X53500Y14200D01*
X57955Y45655D02*
X58500Y46200D01*
X52561Y45655D02*
X57955D01*
X58600Y27700D02*
X58900Y28000D01*
X52561Y29907D02*
X55993D01*
X56900Y29000D01*
X52561Y29907D02*
Y33057D01*
X56494Y36206D02*
X58900Y33800D01*
Y28000D02*
Y33800D01*
X16533Y25967D02*
X16608Y25892D01*
Y37908D01*
X52561Y36206D02*
X56494D01*
X16608Y37908D02*
X16700Y38000D01*
X14356Y39356D02*
X15872Y40872D01*
X10435Y39356D02*
X14356D01*
X14238Y42506D02*
X15872Y40872D01*
X10435Y42506D02*
X14238D01*
D35*
X44848Y54131D02*
X47398Y51581D01*
X44798Y54131D02*
X44848D01*
X47398Y28731D02*
Y51581D01*
X46248Y27281D02*
Y50831D01*
X44948Y52131D02*
X46248Y50831D01*
X44798Y26531D02*
Y50231D01*
X40848Y48231D02*
X43798Y45281D01*
Y25231D02*
Y45281D01*
X40798Y46231D02*
X42783Y44245D01*
Y20130D02*
Y44245D01*
X44798Y52131D02*
X44948D01*
X42521Y19868D02*
X42783Y20130D01*
X13445Y48805D02*
X21449Y40800D01*
X14175Y59625D02*
X21169Y52631D01*
X14175Y59625D02*
Y62781D01*
X21169Y52631D02*
X27445D01*
X12675Y58254D02*
X19298Y51631D01*
X9647Y58254D02*
X12675D01*
X19298Y51631D02*
X27031D01*
X13724Y55104D02*
X22098Y46731D01*
X10435Y55104D02*
X13724D01*
X14435Y51965D02*
X20669Y45731D01*
X10445Y51965D02*
X14435D01*
X20669Y45731D02*
X27345D01*
X22098Y46731D02*
X26931D01*
X33011Y46044D02*
X35032Y48065D01*
X27658Y46044D02*
X33011D01*
X27345Y45731D02*
X27658Y46044D01*
X26931Y46731D02*
X27597Y47397D01*
X29116D02*
X30132Y48412D01*
X27597Y47397D02*
X29116D01*
X30132Y48412D02*
Y49465D01*
X35432Y53834D02*
Y55965D01*
X34016Y52418D02*
X35432Y53834D01*
Y55965D02*
X36098Y56631D01*
X36485Y54870D02*
X38245Y56631D01*
X36485Y52818D02*
Y54870D01*
X38245Y56631D02*
X38298D01*
X33085Y52418D02*
X34016D01*
X30132Y49465D02*
X33085Y52418D01*
X31548Y53456D02*
Y56081D01*
X29122Y51031D02*
X31548Y53456D01*
X30111Y53434D02*
Y56618D01*
X29095Y52418D02*
X30111Y53434D01*
X27658Y52418D02*
X29095D01*
X31548Y56081D02*
X32098Y56631D01*
X30098D02*
X30111Y56618D01*
X21113Y56231D02*
X21798D01*
X25898Y54131D02*
Y54181D01*
X27445Y52631D02*
X27658Y52418D01*
X27631Y51031D02*
X29122D01*
X27031Y51631D02*
X27631Y51031D01*
X21013Y56131D02*
X21113Y56231D01*
X17324Y59820D02*
X21013Y56131D01*
X10435Y51954D02*
X10445Y51965D01*
X22398Y57681D02*
X25898Y54181D01*
X22348Y57681D02*
X22398D01*
X20474Y59554D02*
X22348Y57681D01*
X46248Y27281D02*
X49920Y23608D01*
X44798Y26531D02*
X48820Y22508D01*
X47398Y28731D02*
X49371Y26758D01*
X48820Y19080D02*
Y22508D01*
X45671Y19868D02*
Y23358D01*
X43798Y25231D02*
X45671Y23358D01*
X36398Y49862D02*
X40698Y54162D01*
X36398Y44331D02*
Y49862D01*
X17324Y59820D02*
Y61994D01*
X20474Y59554D02*
Y61994D01*
X40698Y54162D02*
Y56131D01*
X35032Y48065D02*
Y51365D01*
X36485Y52818D01*
X40798Y48231D02*
X40848D01*
X49920Y23608D02*
X53348D01*
X49371Y26758D02*
X52561D01*
X39372Y19868D02*
Y22557D01*
X32867Y40800D02*
X36398Y44331D01*
X22000Y42300D02*
X26000D01*
X22728Y39200D02*
X39372Y22557D01*
X17900Y46400D02*
X22000Y42300D01*
X21449Y40800D02*
X32867D01*
X10435Y48805D02*
X13445D01*
D37*
X7800Y9800D02*
X11500Y6100D01*
X7200Y9800D02*
X7800D01*
X21500Y6100D02*
X23000Y4600D01*
X34200D01*
X36600Y2200D01*
X41400D01*
X16500Y43355D02*
X20200Y39655D01*
Y33454D02*
Y39655D01*
Y33454D02*
X25954Y27700D01*
X16500Y43355D02*
Y43400D01*
X25954Y27700D02*
X27100D01*
X27300Y27500D01*
X15867Y25300D02*
X16533Y25967D01*
X27323Y25300D02*
X29923Y22700D01*
X15867Y25300D02*
X27323D01*
X14175Y23608D02*
X15867Y25300D01*
X14175Y18708D02*
Y19080D01*
Y23608D01*
D38*
X45632Y9868D02*
D03*
X49569D02*
D03*
X45632Y5931D02*
D03*
X49569D02*
D03*
X38219Y44310D02*
D03*
X33298D02*
D03*
X28376D02*
D03*
X38219Y49231D02*
D03*
X33298D02*
D03*
X28376D02*
D03*
X38219Y54152D02*
D03*
X33298D02*
D03*
X28376D02*
D03*
X10375Y60700D02*
D03*
X7225D02*
D03*
D39*
X7200Y9800D02*
D03*
X31400Y2300D02*
D03*
X41400Y2200D02*
D03*
X27700Y6900D02*
D03*
X18900Y14700D02*
D03*
X41800Y13700D02*
D03*
X57900Y53200D02*
D03*
X45500Y14200D02*
D03*
X52300Y60800D02*
D03*
X60100Y3000D02*
D03*
X3800Y30400D02*
D03*
X60500Y39900D02*
D03*
X25700Y68800D02*
D03*
X23200D02*
D03*
X20700D02*
D03*
X16700Y38000D02*
D03*
X15872Y40872D02*
D03*
X52172Y65472D02*
D03*
X2900Y49900D02*
D03*
D40*
X6000Y40900D02*
D03*
X2000Y41800D02*
D03*
X53500Y14200D02*
D03*
X58500Y46200D02*
D03*
X56900Y29000D02*
D03*
X58600Y27700D02*
D03*
X35100Y67000D02*
D03*
X49300Y14400D02*
D03*
X41400Y67000D02*
D03*
X27300Y27500D02*
D03*
X47400Y57000D02*
D03*
X48900Y58200D02*
D03*
X47300Y54100D02*
D03*
X44798Y54131D02*
D03*
Y50231D02*
D03*
X40798Y46231D02*
D03*
X44798Y52131D02*
D03*
X41333Y31367D02*
D03*
X53700Y18200D02*
D03*
X26700Y29500D02*
D03*
X16500Y43400D02*
D03*
X30800Y67800D02*
D03*
X27900Y67700D02*
D03*
X9800Y66400D02*
D03*
X25898Y48231D02*
D03*
X18308Y30381D02*
D03*
X34098Y56631D02*
D03*
X36098D02*
D03*
X38298D02*
D03*
X53700Y21500D02*
D03*
X32098Y56631D02*
D03*
X30098D02*
D03*
X21798Y56231D02*
D03*
X25898Y54131D02*
D03*
Y50131D02*
D03*
X2500Y57400D02*
D03*
X40798Y48231D02*
D03*
X40698Y56131D02*
D03*
X26000Y42300D02*
D03*
X22728Y39200D02*
D03*
X17900Y46400D02*
D03*
D41*
X11500Y6100D02*
D03*
X21500D02*
D03*
D42*
X14175Y19080D02*
D03*
X48820D02*
D03*
Y62781D02*
D03*
X14175D02*
D03*
D43*
X17324Y19868D02*
D03*
X20474D02*
D03*
X23624D02*
D03*
X26773D02*
D03*
X33073D02*
D03*
X36222D02*
D03*
X39372D02*
D03*
X42521D02*
D03*
X45671D02*
D03*
Y61994D02*
D03*
X42521D02*
D03*
X39372D02*
D03*
X36222D02*
D03*
X33073D02*
D03*
X29923D02*
D03*
X26773D02*
D03*
X23624D02*
D03*
X20474D02*
D03*
X17324D02*
D03*
D44*
X29923Y21443D02*
D03*
D45*
X53348Y23608D02*
D03*
Y58254D02*
D03*
X9647D02*
D03*
Y23608D02*
D03*
D46*
X52561Y26758D02*
D03*
Y29907D02*
D03*
Y33057D02*
D03*
Y36206D02*
D03*
Y39356D02*
D03*
Y42506D02*
D03*
Y45655D02*
D03*
Y48805D02*
D03*
Y51954D02*
D03*
Y55104D02*
D03*
X10435D02*
D03*
Y51954D02*
D03*
Y48805D02*
D03*
Y45655D02*
D03*
Y42506D02*
D03*
Y39356D02*
D03*
Y36206D02*
D03*
Y33057D02*
D03*
Y29907D02*
D03*
Y26758D02*
D03*
M02*
