M48
;Layer_Color=9474304
;FILE_FORMAT=2:5
INCH,LZ
;TYPE=PLATED
T1F00S00C0.00700
T2F00S00C0.00787
T3F00S00C0.01000
%
T01
X0002Y00418
X0006Y00409
X00165Y00434
X00179Y00464
X0025898Y0048231
Y0050131
Y0054131
X0021798Y0056231
X0030098Y0056631
X0032098
X0034098
X0036098
X0038298
X0040698Y0056131
X0044798Y0054131
Y0052131
Y0050231
X0040798Y0048231
Y0046231
X00473Y00541
X00474Y0057
X00489Y00582
X00414Y0067
X00351
X00308Y00678
X00279Y00677
X00098Y00664
X00025Y00574
X0022728Y00392
X0026Y00423
X00267Y00295
X00273Y00275
X0018308Y0030381
X0041333Y0031367
X00569Y0029
X00586Y00277
X00537Y00215
Y00182
X00535Y00142
X00493Y00144
X00585Y00462
T02
X0045632Y0005931
X0049569
Y0009868
X0045632
X0038219Y004431
X0033298
X0028376
Y0049231
X0033298
X0038219
Y0054152
X0033298
X0028376
X0010375Y00607
X0007225
T03
X00072Y00098
X00189Y00147
X00277Y00069
X00314Y00023
X00414Y00022
X00418Y00137
X00455Y00142
X00601Y0003
X00605Y00399
X00579Y00532
X00523Y00608
X0052172Y0065472
X00257Y00688
X00232
X00207
X0015872Y0040872
X00167Y0038
X00038Y00304
X00029Y00499
M30
