%FSLAX25Y25*%
%MOIN*%
G70*
G01*
G75*
G04 Layer_Physical_Order=3*
G04 Layer_Color=16440176*
%ADD10R,0.02756X0.05118*%
%ADD11R,0.09370X0.06496*%
%ADD12R,0.00984X0.02756*%
%ADD13R,0.01929X0.01181*%
%ADD14R,0.02047X0.01181*%
%ADD15R,0.06299X0.03543*%
%ADD16R,0.01102X0.01969*%
%ADD17R,0.12205X0.12205*%
%ADD18R,0.00984X0.02362*%
%ADD19R,0.02362X0.00984*%
%ADD20R,0.01969X0.01969*%
%ADD21R,0.01969X0.01969*%
%ADD22R,0.10709X0.05079*%
%ADD23R,0.05787X0.04449*%
%ADD24R,0.03000X0.03000*%
%ADD25R,0.04449X0.05787*%
%ADD26R,0.03000X0.03000*%
%ADD27R,0.04331X0.03543*%
%ADD28C,0.00600*%
%ADD29C,0.01000*%
%ADD30C,0.01200*%
%ADD31C,0.00800*%
%ADD32C,0.00500*%
%ADD33C,0.02000*%
%ADD34C,0.05118*%
%ADD35C,0.01969*%
%ADD36C,0.01400*%
G36*
X29385Y64000D02*
X29537Y63500D01*
X29335Y63365D01*
X29070Y62968D01*
X28977Y62500D01*
X29070Y62032D01*
X29335Y61635D01*
X29732Y61370D01*
X30200Y61277D01*
X30668Y61370D01*
X31065Y61635D01*
X31330Y62032D01*
X31424Y62500D01*
X31330Y62968D01*
X31065Y63365D01*
X30863Y63500D01*
X31015Y64000D01*
X50000Y64000D01*
X50000Y18193D01*
X49500Y17892D01*
X49200Y17952D01*
X48732Y17859D01*
X48335Y17594D01*
X48070Y17197D01*
X47976Y16728D01*
X48070Y16260D01*
X48335Y15863D01*
X48732Y15598D01*
X49200Y15505D01*
X49500Y15564D01*
X50000Y15264D01*
X50000Y3697D01*
X49997Y3694D01*
X49500Y3475D01*
X49268Y3630D01*
X49073Y3669D01*
X48074Y4668D01*
X47743Y4889D01*
X47580Y4922D01*
X47422Y5138D01*
X47300Y5385D01*
X47289Y5467D01*
X47382Y5931D01*
X47267Y6511D01*
X46939Y7002D01*
X46448Y7330D01*
X45869Y7445D01*
X45289Y7330D01*
X44798Y7002D01*
X44470Y6511D01*
X44355Y5931D01*
X44448Y5467D01*
X44172Y4967D01*
X43628D01*
X43352Y5467D01*
X43445Y5931D01*
X43330Y6511D01*
X43002Y7002D01*
X42511Y7330D01*
X41932Y7445D01*
X41352Y7330D01*
X40920Y7040D01*
X40666Y7107D01*
X40420Y7240D01*
Y8560D01*
X40666Y8693D01*
X40920Y8760D01*
X41352Y8470D01*
X41932Y8355D01*
X42511Y8470D01*
X43002Y8798D01*
X43330Y9289D01*
X43445Y9868D01*
X43330Y10448D01*
X43002Y10939D01*
X42511Y11267D01*
X41932Y11382D01*
X41352Y11267D01*
X40920Y10977D01*
X40666Y11044D01*
X40420Y11177D01*
Y14600D01*
X40342Y14990D01*
X40121Y15321D01*
X39823Y15619D01*
X40015Y16080D01*
X43200D01*
X43590Y16158D01*
X43921Y16379D01*
X46273Y18731D01*
X46468Y18770D01*
X46865Y19035D01*
X47130Y19432D01*
X47223Y19900D01*
X47130Y20368D01*
X47020Y20534D01*
Y45300D01*
X46942Y45690D01*
X46721Y46021D01*
X38493Y54249D01*
X38162Y54470D01*
X37772Y54548D01*
X27577D01*
X27565Y54565D01*
X27168Y54830D01*
X26700Y54923D01*
X26232Y54830D01*
X25835Y54565D01*
X25570Y54168D01*
X25477Y53700D01*
X25570Y53232D01*
X25835Y52835D01*
X26232Y52570D01*
X26700Y52477D01*
X26867Y52510D01*
X26872Y52509D01*
X37349D01*
X43905Y45953D01*
X43659Y45492D01*
X43500Y45524D01*
X43032Y45430D01*
X42635Y45165D01*
X42370Y44768D01*
X42276Y44300D01*
X42370Y43832D01*
X42635Y43435D01*
X43032Y43170D01*
X43500Y43077D01*
X43968Y43170D01*
X44365Y43435D01*
X44480Y43607D01*
X44980Y43456D01*
Y20534D01*
X44870Y20368D01*
X44831Y20173D01*
X44502Y19844D01*
X44219Y19937D01*
X44012Y20061D01*
X43930Y20468D01*
X43665Y20865D01*
X43268Y21130D01*
X42800Y21224D01*
X42332Y21130D01*
X41935Y20865D01*
X41670Y20468D01*
X41576Y20000D01*
X41670Y19532D01*
X41935Y19135D01*
X42332Y18870D01*
X42438Y18849D01*
X42641Y18298D01*
X42500Y18120D01*
X25018D01*
Y25113D01*
X25230Y25432D01*
X25324Y25900D01*
X25230Y26368D01*
X24965Y26765D01*
X24568Y27030D01*
X24100Y27123D01*
X23632Y27030D01*
X23235Y26765D01*
X22970Y26368D01*
X22876Y25900D01*
X22970Y25432D01*
X23182Y25113D01*
Y17527D01*
X23158Y17490D01*
X23149Y17447D01*
X20151Y14449D01*
X19952Y14151D01*
X19882Y13800D01*
Y10880D01*
X14520Y5518D01*
X13180D01*
X9805Y8893D01*
X9730Y9268D01*
X9465Y9665D01*
X9068Y9930D01*
X8600Y10024D01*
X8132Y9930D01*
X7735Y9665D01*
X7560Y9403D01*
X7025Y9304D01*
X6718Y9568D01*
Y18620D01*
X17749Y29651D01*
X17948Y29949D01*
X17959Y30007D01*
X18018Y30300D01*
Y34613D01*
X18230Y34932D01*
X18324Y35400D01*
X18230Y35868D01*
X17965Y36265D01*
X17568Y36530D01*
X17100Y36623D01*
X16632Y36530D01*
X16235Y36265D01*
X15970Y35868D01*
X15877Y35400D01*
X15970Y34932D01*
X15974Y34925D01*
X15938Y34785D01*
X15568Y34430D01*
X15100Y34523D01*
X14632Y34430D01*
X14235Y34165D01*
X13970Y33768D01*
X13877Y33300D01*
X13970Y32832D01*
X14182Y32513D01*
Y31180D01*
X11995Y28993D01*
X11452Y29157D01*
X11430Y29268D01*
X11165Y29665D01*
X10768Y29930D01*
X10300Y30024D01*
X9832Y29930D01*
X9435Y29665D01*
X9170Y29268D01*
X9166Y29253D01*
X1500Y21586D01*
X1136Y21682D01*
X1000Y21777D01*
X1000Y58386D01*
X1229Y58517D01*
X1500Y58591D01*
X1832Y58370D01*
X2300Y58276D01*
X2768Y58370D01*
X3165Y58635D01*
X3430Y59032D01*
X3523Y59500D01*
X3430Y59968D01*
X3165Y60365D01*
X2768Y60630D01*
X2300Y60724D01*
X1832Y60630D01*
X1500Y60409D01*
X1229Y60483D01*
X1000Y60614D01*
Y62286D01*
X1229Y62417D01*
X1500Y62491D01*
X1832Y62270D01*
X2300Y62177D01*
X2768Y62270D01*
X3165Y62535D01*
X3430Y62932D01*
X3523Y63400D01*
X3504Y63500D01*
X3898Y64000D01*
X29385Y64000D01*
D02*
G37*
%LPC*%
G36*
X20779Y38892D02*
X20200Y38777D01*
X19709Y38449D01*
X19381Y37958D01*
X19265Y37379D01*
X19381Y36800D01*
X19709Y36309D01*
X20200Y35981D01*
X20779Y35865D01*
X21358Y35981D01*
X21849Y36309D01*
X22177Y36800D01*
X22292Y37379D01*
X22177Y37958D01*
X21849Y38449D01*
X21358Y38777D01*
X20779Y38892D01*
D02*
G37*
G36*
X11275Y36813D02*
X10696Y36698D01*
X10205Y36370D01*
X9978Y36031D01*
X9931Y36015D01*
X9469D01*
X9422Y36031D01*
X9195Y36370D01*
X8704Y36698D01*
X8125Y36813D01*
X7546Y36698D01*
X7055Y36370D01*
X6727Y35879D01*
X6612Y35300D01*
X6727Y34721D01*
X7055Y34230D01*
X7546Y33902D01*
X8125Y33787D01*
X8704Y33902D01*
X9195Y34230D01*
X9422Y34569D01*
X9469Y34585D01*
X9931D01*
X9978Y34569D01*
X10205Y34230D01*
X10696Y33902D01*
X11275Y33787D01*
X11854Y33902D01*
X12345Y34230D01*
X12673Y34721D01*
X12788Y35300D01*
X12673Y35879D01*
X12345Y36370D01*
X11854Y36698D01*
X11275Y36813D01*
D02*
G37*
G36*
X36000Y48524D02*
X35532Y48430D01*
X35135Y48165D01*
X34870Y47768D01*
X34776Y47300D01*
X34870Y46832D01*
X34997Y46641D01*
X35030Y46146D01*
X34959Y45951D01*
X34770Y45668D01*
X34677Y45200D01*
X34770Y44732D01*
X34835Y44633D01*
X34999Y44250D01*
X34835Y43867D01*
X34770Y43768D01*
X34677Y43300D01*
X34770Y42832D01*
X35035Y42435D01*
Y42165D01*
X34770Y41768D01*
X34677Y41300D01*
X34770Y40832D01*
X34882Y40664D01*
X34993Y40300D01*
X34882Y39936D01*
X34770Y39768D01*
X34677Y39300D01*
X34770Y38832D01*
X35035Y38435D01*
X35432Y38170D01*
X35900Y38076D01*
X36368Y38170D01*
X36765Y38435D01*
X37030Y38832D01*
X37124Y39300D01*
X37030Y39768D01*
X36918Y39936D01*
X36807Y40300D01*
X36918Y40664D01*
X37030Y40832D01*
X37124Y41300D01*
X37030Y41768D01*
X36765Y42165D01*
Y42435D01*
X37030Y42832D01*
X37124Y43300D01*
X37030Y43768D01*
X36965Y43867D01*
X36801Y44250D01*
X36965Y44633D01*
X37030Y44732D01*
X37124Y45200D01*
X37030Y45668D01*
X36903Y45859D01*
X36870Y46354D01*
X36941Y46549D01*
X37130Y46832D01*
X37224Y47300D01*
X37130Y47768D01*
X36865Y48165D01*
X36468Y48430D01*
X36000Y48524D01*
D02*
G37*
G36*
X18200Y50424D02*
X17732Y50330D01*
X17335Y50065D01*
X17070Y49668D01*
X16976Y49200D01*
X17036Y48902D01*
X17019Y48680D01*
X16713Y48366D01*
X16532Y48330D01*
X16135Y48065D01*
X15870Y47668D01*
X15777Y47200D01*
X15818Y46990D01*
X15636Y46600D01*
X15446Y46493D01*
X15132Y46430D01*
X14735Y46165D01*
X14470Y45768D01*
X14377Y45300D01*
X14470Y44832D01*
X14582Y44664D01*
X14693Y44300D01*
X14582Y43936D01*
X14470Y43768D01*
X14377Y43300D01*
X14470Y42832D01*
X14582Y42664D01*
X14693Y42300D01*
X14582Y41936D01*
X14470Y41768D01*
X14377Y41300D01*
X14470Y40832D01*
X14735Y40435D01*
X15132Y40170D01*
X15600Y40077D01*
X15658Y40088D01*
X15808Y39939D01*
X15808Y39939D01*
X16072Y39762D01*
X16384Y39700D01*
X16384Y39700D01*
X24748D01*
X25187Y39261D01*
X25027Y38714D01*
X24630Y38449D01*
X24302Y37958D01*
X24187Y37379D01*
X24302Y36800D01*
X24630Y36309D01*
X25121Y35981D01*
X25700Y35865D01*
X26279Y35981D01*
X26770Y36309D01*
X27035Y36706D01*
X27582Y36866D01*
X28074Y36374D01*
X28083Y36327D01*
X28260Y36063D01*
X29305Y35018D01*
X29305Y35018D01*
X29464Y34912D01*
X29570Y34841D01*
X29882Y34779D01*
X30313D01*
X35263Y29828D01*
X35160Y29224D01*
X35004Y29120D01*
X34739Y28723D01*
X34646Y28254D01*
X34739Y27786D01*
X35004Y27389D01*
X35401Y27124D01*
X35869Y27031D01*
X36338Y27124D01*
X36735Y27389D01*
X36839Y27545D01*
X37157Y27751D01*
X37484Y27679D01*
X37533Y27646D01*
X37565Y27640D01*
X37635Y27535D01*
X38032Y27270D01*
X38500Y27176D01*
X38968Y27270D01*
X39365Y27535D01*
X39630Y27932D01*
X39724Y28400D01*
X39630Y28868D01*
X39441Y29151D01*
X39370Y29346D01*
X39403Y29841D01*
X39530Y30032D01*
X39623Y30500D01*
X39530Y30968D01*
X39265Y31365D01*
X38868Y31630D01*
X38400Y31723D01*
X38342Y31712D01*
X33221Y36832D01*
Y38118D01*
X33159Y38430D01*
X33088Y38536D01*
X32982Y38695D01*
X32982Y38695D01*
X31937Y39740D01*
X31672Y39917D01*
X31626Y39926D01*
X31134Y40418D01*
X31294Y40964D01*
X31691Y41230D01*
X32019Y41721D01*
X32135Y42300D01*
X32019Y42879D01*
X31691Y43370D01*
X31200Y43698D01*
X30621Y43813D01*
X30042Y43698D01*
X29551Y43370D01*
X29286Y42973D01*
X28739Y42813D01*
X28247Y43304D01*
X28238Y43351D01*
X28167Y43457D01*
X28061Y43616D01*
X28061Y43616D01*
X27016Y44661D01*
X26751Y44838D01*
X26439Y44900D01*
X26439Y44900D01*
X20040D01*
X20040Y44900D01*
X19727Y44838D01*
X19463Y44661D01*
X19463Y44661D01*
X18918Y44116D01*
X16819D01*
X16597Y44593D01*
X16618Y44664D01*
X16730Y44832D01*
X16824Y45300D01*
X16782Y45510D01*
X16964Y45900D01*
X17154Y46007D01*
X17468Y46070D01*
X17865Y46335D01*
X18130Y46732D01*
X18224Y47200D01*
X18164Y47498D01*
X18181Y47720D01*
X18487Y48034D01*
X18668Y48070D01*
X19065Y48335D01*
X19330Y48732D01*
X19423Y49200D01*
X19330Y49668D01*
X19065Y50065D01*
X18668Y50330D01*
X18200Y50424D01*
D02*
G37*
G36*
X45869Y11382D02*
X45289Y11267D01*
X44798Y10939D01*
X44470Y10448D01*
X44355Y9868D01*
X44470Y9289D01*
X44798Y8798D01*
X45289Y8470D01*
X45869Y8355D01*
X46448Y8470D01*
X46939Y8798D01*
X47267Y9289D01*
X47382Y9868D01*
X47267Y10448D01*
X46939Y10939D01*
X46448Y11267D01*
X45869Y11382D01*
D02*
G37*
G36*
X20100Y26923D02*
X19632Y26830D01*
X19235Y26565D01*
X18970Y26168D01*
X18877Y25700D01*
X18970Y25232D01*
X19235Y24835D01*
X19632Y24570D01*
X20100Y24476D01*
X20568Y24570D01*
X20965Y24835D01*
X21230Y25232D01*
X21324Y25700D01*
X21230Y26168D01*
X20965Y26565D01*
X20568Y26830D01*
X20100Y26923D01*
D02*
G37*
G36*
X29200Y29524D02*
X28732Y29430D01*
X28335Y29165D01*
X28070Y28768D01*
X27977Y28300D01*
X28070Y27832D01*
X28335Y27435D01*
X28732Y27170D01*
X29200Y27077D01*
X29668Y27170D01*
X30065Y27435D01*
X30330Y27832D01*
X30424Y28300D01*
X30330Y28768D01*
X30065Y29165D01*
X29668Y29430D01*
X29200Y29524D01*
D02*
G37*
G36*
X42700Y42323D02*
X42232Y42230D01*
X41835Y41965D01*
X41570Y41568D01*
X41477Y41100D01*
X41570Y40632D01*
X41835Y40235D01*
X42232Y39970D01*
X42700Y39876D01*
X43168Y39970D01*
X43565Y40235D01*
X43830Y40632D01*
X43924Y41100D01*
X43830Y41568D01*
X43565Y41965D01*
X43168Y42230D01*
X42700Y42323D01*
D02*
G37*
G36*
X19700Y56452D02*
X19232Y56359D01*
X18835Y56094D01*
X18570Y55697D01*
X18476Y55228D01*
X18570Y54760D01*
X18835Y54363D01*
X19232Y54098D01*
X19700Y54005D01*
X20168Y54098D01*
X20565Y54363D01*
X20830Y54760D01*
X20923Y55228D01*
X20830Y55697D01*
X20565Y56094D01*
X20168Y56359D01*
X19700Y56452D01*
D02*
G37*
G36*
X29800Y60023D02*
X29332Y59930D01*
X28935Y59665D01*
X28670Y59268D01*
X28576Y58800D01*
X28670Y58332D01*
X28935Y57935D01*
X29332Y57670D01*
X29800Y57577D01*
X30268Y57670D01*
X30665Y57935D01*
X30930Y58332D01*
X31023Y58800D01*
X30930Y59268D01*
X30665Y59665D01*
X30268Y59930D01*
X29800Y60023D01*
D02*
G37*
G36*
X16800Y61923D02*
X16332Y61830D01*
X15935Y61565D01*
X15670Y61168D01*
X15576Y60700D01*
X15670Y60232D01*
X15935Y59835D01*
X16332Y59570D01*
X16800Y59477D01*
X17268Y59570D01*
X17665Y59835D01*
X17930Y60232D01*
X18023Y60700D01*
X17930Y61168D01*
X17665Y61565D01*
X17268Y61830D01*
X16800Y61923D01*
D02*
G37*
G36*
X9700Y56823D02*
X9232Y56730D01*
X8835Y56465D01*
X8570Y56068D01*
X8477Y55600D01*
X8570Y55132D01*
X8835Y54735D01*
X9121Y54544D01*
X8870Y54168D01*
X8777Y53700D01*
X8870Y53232D01*
X9135Y52835D01*
X9532Y52570D01*
X10000Y52477D01*
X10468Y52570D01*
X10865Y52835D01*
X11130Y53232D01*
X11224Y53700D01*
X11130Y54168D01*
X10865Y54565D01*
X10579Y54756D01*
X10830Y55132D01*
X10924Y55600D01*
X10830Y56068D01*
X10565Y56465D01*
X10168Y56730D01*
X9700Y56823D01*
D02*
G37*
G36*
X30600Y51024D02*
X30132Y50930D01*
X29735Y50665D01*
X29717Y50639D01*
X29165Y50565D01*
X28768Y50830D01*
X28300Y50924D01*
X27832Y50830D01*
X27435Y50565D01*
X27170Y50168D01*
X27077Y49700D01*
X27170Y49232D01*
X27435Y48835D01*
X27832Y48570D01*
X28300Y48476D01*
X28768Y48570D01*
X29165Y48835D01*
X29376Y48678D01*
X29551Y48291D01*
X29223Y47800D01*
X29108Y47221D01*
X29223Y46642D01*
X29551Y46151D01*
X30042Y45823D01*
X30621Y45708D01*
X31200Y45823D01*
X31691Y46151D01*
X32019Y46642D01*
X32135Y47221D01*
X32040Y47697D01*
X32298Y47949D01*
X32445Y48028D01*
X32532Y47970D01*
X33000Y47877D01*
X33468Y47970D01*
X33865Y48235D01*
X34130Y48632D01*
X34223Y49100D01*
X34130Y49568D01*
X33865Y49965D01*
X33468Y50230D01*
X33000Y50323D01*
X32532Y50230D01*
X32281Y50063D01*
X31826Y50186D01*
X31734Y50253D01*
X31730Y50268D01*
X31465Y50665D01*
X31068Y50930D01*
X30600Y51024D01*
D02*
G37*
G36*
X24700Y50924D02*
X24232Y50830D01*
X23835Y50565D01*
X23565D01*
X23168Y50830D01*
X22700Y50924D01*
X22232Y50830D01*
X21835Y50565D01*
X21570Y50168D01*
X21476Y49700D01*
X21570Y49232D01*
X21754Y48956D01*
X21393Y48596D01*
X21358Y48619D01*
X20779Y48735D01*
X20200Y48619D01*
X19709Y48291D01*
X19381Y47800D01*
X19265Y47221D01*
X19381Y46642D01*
X19709Y46151D01*
X20200Y45823D01*
X20779Y45708D01*
X21358Y45823D01*
X21849Y46151D01*
X22177Y46642D01*
X22292Y47221D01*
X22177Y47800D01*
X21930Y48170D01*
X22164Y48479D01*
X22269Y48562D01*
X22700Y48476D01*
X23168Y48570D01*
X23336Y48682D01*
X23700Y48793D01*
X24064Y48682D01*
X24232Y48570D01*
X24447Y48017D01*
X24302Y47800D01*
X24187Y47221D01*
X24302Y46642D01*
X24630Y46151D01*
X25121Y45823D01*
X25700Y45708D01*
X26279Y45823D01*
X26770Y46151D01*
X27098Y46642D01*
X27213Y47221D01*
X27098Y47800D01*
X26770Y48291D01*
X26279Y48619D01*
X26053Y48664D01*
X25822Y49220D01*
X25830Y49232D01*
X25923Y49700D01*
X25830Y50168D01*
X25565Y50565D01*
X25168Y50830D01*
X24700Y50924D01*
D02*
G37*
G36*
X5400Y54724D02*
X4932Y54630D01*
X4535Y54365D01*
X4270Y53968D01*
X4177Y53500D01*
X4270Y53032D01*
X4535Y52635D01*
X4932Y52370D01*
X5400Y52276D01*
X5868Y52370D01*
X6265Y52635D01*
X6530Y53032D01*
X6623Y53500D01*
X6530Y53968D01*
X6265Y54365D01*
X5868Y54630D01*
X5400Y54724D01*
D02*
G37*
%LPD*%
D28*
X15600Y41300D02*
X16384Y40516D01*
X25086D01*
X28837Y36765D01*
X15600Y43300D02*
X19255D01*
X20040Y44084D01*
X26439D01*
X27484Y43039D01*
Y42914D02*
Y43039D01*
Y42914D02*
X31235Y39163D01*
X31360D01*
X32405Y38118D01*
Y36494D02*
Y38118D01*
Y36494D02*
X38400Y30500D01*
X28837Y36640D02*
Y36765D01*
Y36640D02*
X29882Y35594D01*
X37845Y28400D02*
X38500D01*
X29882Y35594D02*
X30650D01*
X37845Y28400D01*
D29*
X47353Y3947D02*
X48800Y2500D01*
X41110Y3947D02*
X47353D01*
X39400Y5657D02*
X41110Y3947D01*
X39400Y5657D02*
Y14600D01*
X38400Y15600D02*
X39400Y14600D01*
X24899Y15600D02*
X38400D01*
X22507Y13208D02*
X24899Y15600D01*
X22507Y3507D02*
Y13208D01*
X20500Y1500D02*
X22507Y3507D01*
X10900Y1500D02*
X20500D01*
X4300Y8100D02*
X10900Y1500D01*
X43200Y17100D02*
X46000Y19900D01*
X24100Y17100D02*
X43200D01*
X26700Y53700D02*
X26872Y53528D01*
X37772D01*
X46000Y19900D02*
Y45300D01*
X37772Y53528D02*
X46000Y45300D01*
D30*
X2200Y20700D02*
X10300Y28800D01*
X2200Y9700D02*
X2500Y9400D01*
X2200Y9700D02*
Y20700D01*
D31*
X4100Y19800D02*
X15100Y30800D01*
Y33300D01*
X4100Y10700D02*
Y19800D01*
X15800Y3000D02*
X19500Y6700D01*
X11800Y3000D02*
X15800D01*
X5800Y9000D02*
X11800Y3000D01*
X5800Y9000D02*
Y19000D01*
X17100Y30300D01*
Y35400D01*
X8600Y8800D02*
X12800Y4600D01*
X14900D01*
X20800Y10500D01*
Y13800D01*
X24100Y17100D01*
Y25900D01*
D36*
X15600Y41300D02*
D03*
X26700Y53700D02*
D03*
X20400Y62500D02*
D03*
X4700Y59400D02*
D03*
X29100Y24700D02*
D03*
X15600Y43300D02*
D03*
X42400Y38300D02*
D03*
X36600Y62600D02*
D03*
X35700Y55228D02*
D03*
X47246Y61859D02*
D03*
X46000Y19900D02*
D03*
X11450Y49400D02*
D03*
X12084Y43800D02*
D03*
X38400Y30500D02*
D03*
X38500Y28400D02*
D03*
X17100Y35400D02*
D03*
X15100Y33300D02*
D03*
X48800Y2500D02*
D03*
X2200Y56800D02*
D03*
X5400Y63400D02*
D03*
X1700Y61400D02*
D03*
X10300Y28800D02*
D03*
X2500Y9400D02*
D03*
X4300Y8100D02*
D03*
X4100Y10700D02*
D03*
X8600Y8800D02*
D03*
X19500Y6700D02*
D03*
X24100Y25900D02*
D03*
X9100Y10700D02*
D03*
M02*
