%FSLAX25Y25*%
%MOIN*%
G70*
G01*
G75*
G04 Layer_Physical_Order=3*
G04 Layer_Color=16440176*
%ADD10R,0.06496X0.09370*%
%ADD11R,0.02756X0.00984*%
%ADD12R,0.01969X0.01969*%
%ADD13R,0.03100X0.03100*%
%ADD14R,0.01969X0.01969*%
%ADD15R,0.03000X0.03000*%
%ADD16R,0.03000X0.03000*%
%ADD17C,0.03504*%
%ADD18R,0.03701X0.03701*%
%ADD19R,0.04449X0.05787*%
%ADD20R,0.05787X0.04449*%
%ADD21R,0.10709X0.05079*%
%ADD22R,0.12205X0.12205*%
%ADD23R,0.00984X0.02362*%
%ADD24R,0.02362X0.00984*%
%ADD25R,0.06299X0.03543*%
%ADD26R,0.01102X0.01969*%
%ADD27R,0.01181X0.01929*%
%ADD28R,0.01181X0.02047*%
%ADD29R,0.05118X0.02756*%
%ADD30R,0.04921X0.05118*%
%ADD31C,0.00800*%
%ADD32C,0.00600*%
%ADD33C,0.01000*%
%ADD34C,0.02500*%
%ADD35C,0.00500*%
%ADD36C,0.02000*%
%ADD37C,0.01200*%
%ADD38C,0.01969*%
%ADD39C,0.02200*%
%ADD40C,0.01400*%
G36*
X62000Y70000D02*
X62000Y3936D01*
X61500Y3785D01*
X61253Y4154D01*
X60724Y4507D01*
X60100Y4631D01*
X59476Y4507D01*
X58947Y4154D01*
X58593Y3624D01*
X58469Y3000D01*
X58593Y2376D01*
X58947Y1846D01*
X59476Y1493D01*
X59391Y1000D01*
X43124Y1000D01*
X42857Y1500D01*
X42907Y1576D01*
X43031Y2200D01*
X42907Y2824D01*
X42553Y3353D01*
X42024Y3707D01*
X41400Y3831D01*
X40776Y3707D01*
X40246Y3353D01*
X39893Y2824D01*
X39769Y2200D01*
X39893Y1576D01*
X39943Y1500D01*
X39676Y1000D01*
X33057D01*
X32790Y1500D01*
X32907Y1676D01*
X33031Y2300D01*
X32907Y2924D01*
X32553Y3453D01*
X32024Y3807D01*
X31400Y3931D01*
X30776Y3807D01*
X30246Y3453D01*
X29893Y2924D01*
X29769Y2300D01*
X29893Y1676D01*
X30010Y1500D01*
X29743Y1000D01*
X1000Y1000D01*
X1000Y13761D01*
X1462Y13952D01*
X5576Y9838D01*
X5569Y9800D01*
X5693Y9176D01*
X6047Y8647D01*
X6576Y8293D01*
X7200Y8169D01*
X7824Y8293D01*
X8354Y8647D01*
X8707Y9176D01*
X8831Y9800D01*
X8707Y10424D01*
X8354Y10954D01*
X7824Y11307D01*
X7200Y11431D01*
X7162Y11424D01*
X2722Y15865D01*
Y28666D01*
X3093Y28864D01*
X3221Y28884D01*
X3800Y28769D01*
X4424Y28893D01*
X4953Y29247D01*
X5307Y29776D01*
X5431Y30400D01*
X5307Y31024D01*
X4953Y31554D01*
X4424Y31907D01*
X3800Y32031D01*
X3221Y31916D01*
X3093Y31936D01*
X2722Y32134D01*
Y37435D01*
X4593Y39307D01*
X4836Y39671D01*
X4922Y40100D01*
X4922Y40100D01*
Y49000D01*
X4836Y49429D01*
X4593Y49793D01*
X4593Y49793D01*
X4524Y49862D01*
X4531Y49900D01*
X4407Y50524D01*
X4053Y51054D01*
X3524Y51407D01*
X2900Y51531D01*
X2276Y51407D01*
X1746Y51054D01*
X1500Y50685D01*
X1000Y50836D01*
X1000Y69646D01*
X1354Y70000D01*
X62000Y70000D01*
D02*
G37*
%LPC*%
G36*
X58500Y47423D02*
X58032Y47330D01*
X57635Y47065D01*
X57370Y46668D01*
X57331Y46473D01*
X56179Y45321D01*
X55958Y44990D01*
X55880Y44600D01*
Y29634D01*
X55770Y29468D01*
X55677Y29000D01*
X55770Y28532D01*
X55880Y28366D01*
Y18022D01*
X55113Y17255D01*
X54725Y17574D01*
X54830Y17732D01*
X54923Y18200D01*
X54830Y18668D01*
X54565Y19065D01*
X54168Y19330D01*
X53700Y19423D01*
X53232Y19330D01*
X52835Y19065D01*
X52570Y18668D01*
X52477Y18200D01*
X52570Y17732D01*
X52835Y17335D01*
X53232Y17070D01*
X53700Y16976D01*
X54168Y17070D01*
X54326Y17175D01*
X54645Y16787D01*
X53227Y15369D01*
X53032Y15330D01*
X52635Y15065D01*
X52370Y14668D01*
X52276Y14200D01*
X52370Y13732D01*
X52635Y13335D01*
X53032Y13070D01*
X53500Y12977D01*
X53968Y13070D01*
X54365Y13335D01*
X54630Y13732D01*
X54669Y13927D01*
X57621Y16879D01*
X57842Y17210D01*
X57920Y17600D01*
Y26156D01*
X58420Y26512D01*
X58600Y26476D01*
X59068Y26570D01*
X59465Y26835D01*
X59730Y27232D01*
X59824Y27700D01*
X59730Y28168D01*
X59465Y28565D01*
X59068Y28830D01*
X58600Y28923D01*
X58600Y28923D01*
X58600Y28923D01*
X58123Y29000D01*
X58030Y29468D01*
X57920Y29634D01*
Y44178D01*
X58773Y45031D01*
X58968Y45070D01*
X59365Y45335D01*
X59630Y45732D01*
X59724Y46200D01*
X59630Y46668D01*
X59365Y47065D01*
X58968Y47330D01*
X58500Y47423D01*
D02*
G37*
G36*
X53700Y22724D02*
X53232Y22630D01*
X52835Y22365D01*
X52570Y21968D01*
X52477Y21500D01*
X52570Y21032D01*
X52835Y20635D01*
X53232Y20370D01*
X53700Y20277D01*
X54168Y20370D01*
X54565Y20635D01*
X54830Y21032D01*
X54923Y21500D01*
X54830Y21968D01*
X54565Y22365D01*
X54168Y22630D01*
X53700Y22724D01*
D02*
G37*
G36*
X22728Y40424D02*
X22260Y40330D01*
X21863Y40065D01*
X21598Y39668D01*
X21505Y39200D01*
X21598Y38732D01*
X21863Y38335D01*
X22260Y38070D01*
X22728Y37977D01*
X23197Y38070D01*
X23594Y38335D01*
X23859Y38732D01*
X23952Y39200D01*
X23859Y39668D01*
X23594Y40065D01*
X23197Y40330D01*
X22728Y40424D01*
D02*
G37*
G36*
X41333Y32590D02*
X40865Y32497D01*
X40468Y32232D01*
X40203Y31835D01*
X40110Y31367D01*
X40203Y30898D01*
X40468Y30501D01*
X40865Y30236D01*
X41333Y30143D01*
X41802Y30236D01*
X42199Y30501D01*
X42464Y30898D01*
X42557Y31367D01*
X42464Y31835D01*
X42199Y32232D01*
X41802Y32497D01*
X41333Y32590D01*
D02*
G37*
G36*
X18308Y31604D02*
X17840Y31511D01*
X17443Y31246D01*
X17178Y30849D01*
X17085Y30381D01*
X17178Y29913D01*
X17443Y29516D01*
X17840Y29250D01*
X18308Y29157D01*
X18776Y29250D01*
X19173Y29516D01*
X19438Y29913D01*
X19532Y30381D01*
X19438Y30849D01*
X19173Y31246D01*
X18776Y31511D01*
X18308Y31604D01*
D02*
G37*
G36*
X49300Y15623D02*
X48832Y15530D01*
X48435Y15265D01*
X48170Y14868D01*
X48077Y14400D01*
X48170Y13932D01*
X48435Y13535D01*
X48832Y13270D01*
X49300Y13176D01*
X49768Y13270D01*
X50165Y13535D01*
X50430Y13932D01*
X50524Y14400D01*
X50430Y14868D01*
X50165Y15265D01*
X49768Y15530D01*
X49300Y15623D01*
D02*
G37*
G36*
X45632Y11382D02*
X45052Y11267D01*
X44561Y10939D01*
X44233Y10448D01*
X44118Y9868D01*
X44233Y9289D01*
X44561Y8798D01*
X45052Y8470D01*
X45632Y8355D01*
X46211Y8470D01*
X46702Y8798D01*
X47030Y9289D01*
X47145Y9868D01*
X47030Y10448D01*
X46702Y10939D01*
X46211Y11267D01*
X45632Y11382D01*
D02*
G37*
G36*
X49569Y7445D02*
X48989Y7330D01*
X48498Y7002D01*
X48170Y6511D01*
X48055Y5931D01*
X48170Y5352D01*
X48498Y4861D01*
X48989Y4533D01*
X49569Y4418D01*
X50148Y4533D01*
X50639Y4861D01*
X50967Y5352D01*
X51082Y5931D01*
X50967Y6511D01*
X50639Y7002D01*
X50148Y7330D01*
X49569Y7445D01*
D02*
G37*
G36*
X45632D02*
X45052Y7330D01*
X44561Y7002D01*
X44233Y6511D01*
X44118Y5931D01*
X44233Y5352D01*
X44561Y4861D01*
X45052Y4533D01*
X45632Y4418D01*
X46211Y4533D01*
X46702Y4861D01*
X47030Y5352D01*
X47145Y5931D01*
X47030Y6511D01*
X46702Y7002D01*
X46211Y7330D01*
X45632Y7445D01*
D02*
G37*
G36*
X18900Y16331D02*
X18276Y16207D01*
X17747Y15854D01*
X17393Y15324D01*
X17269Y14700D01*
X17393Y14076D01*
X17747Y13546D01*
X18276Y13193D01*
X18900Y13069D01*
X19524Y13193D01*
X20053Y13546D01*
X20407Y14076D01*
X20531Y14700D01*
X20407Y15324D01*
X20053Y15854D01*
X19524Y16207D01*
X18900Y16331D01*
D02*
G37*
G36*
X26700Y30724D02*
X26232Y30630D01*
X25835Y30365D01*
X25570Y29968D01*
X25477Y29500D01*
X25570Y29032D01*
X25835Y28635D01*
X25958Y28552D01*
X26170Y27968D01*
X26076Y27500D01*
X26170Y27032D01*
X26435Y26635D01*
X26832Y26370D01*
X26847Y26366D01*
X38010Y15204D01*
X38374Y14961D01*
X38803Y14875D01*
X38803Y14875D01*
X40060D01*
X40327Y14375D01*
X40293Y14324D01*
X40169Y13700D01*
X40293Y13076D01*
X40646Y12547D01*
X41176Y12193D01*
X41800Y12069D01*
X42424Y12193D01*
X42954Y12547D01*
X43307Y13076D01*
X43392Y13502D01*
X43812Y13782D01*
X43920Y13805D01*
X43950Y13791D01*
X43993Y13576D01*
X44346Y13047D01*
X44876Y12693D01*
X45500Y12569D01*
X46124Y12693D01*
X46654Y13047D01*
X47007Y13576D01*
X47131Y14200D01*
X47007Y14824D01*
X46654Y15353D01*
X46124Y15707D01*
X45500Y15831D01*
X45462Y15824D01*
X44496Y16790D01*
X44132Y17033D01*
X43703Y17118D01*
X43703Y17118D01*
X39268D01*
X28433Y27953D01*
X28430Y27968D01*
X28165Y28365D01*
X28041Y28448D01*
X27830Y29032D01*
X27924Y29500D01*
X27830Y29968D01*
X27565Y30365D01*
X27168Y30630D01*
X26700Y30724D01*
D02*
G37*
G36*
X49569Y11382D02*
X48989Y11267D01*
X48498Y10939D01*
X48170Y10448D01*
X48055Y9868D01*
X48170Y9289D01*
X48498Y8798D01*
X48989Y8470D01*
X49569Y8355D01*
X50148Y8470D01*
X50639Y8798D01*
X50967Y9289D01*
X51082Y9868D01*
X50967Y10448D01*
X50639Y10939D01*
X50148Y11267D01*
X49569Y11382D01*
D02*
G37*
G36*
X16500Y44624D02*
X16032Y44530D01*
X15635Y44265D01*
X15370Y43868D01*
X15277Y43400D01*
X15370Y42932D01*
X15381Y42915D01*
X15275Y42491D01*
X15172Y42328D01*
X14718Y42025D01*
X14365Y41496D01*
X14240Y40872D01*
X14365Y40247D01*
X14718Y39718D01*
X15247Y39364D01*
X15872Y39240D01*
X16496Y39364D01*
X17025Y39718D01*
X17379Y40247D01*
X17503Y40872D01*
X17379Y41496D01*
X17151Y41836D01*
X17051Y42073D01*
X17264Y42467D01*
X17365Y42535D01*
X17630Y42932D01*
X17724Y43400D01*
X17630Y43868D01*
X17365Y44265D01*
X16968Y44530D01*
X16500Y44624D01*
D02*
G37*
G36*
X52172Y67103D02*
X51547Y66979D01*
X51018Y66625D01*
X50665Y66096D01*
X50540Y65472D01*
X50665Y64847D01*
X51018Y64318D01*
X51547Y63964D01*
X52172Y63840D01*
X52796Y63964D01*
X53325Y64318D01*
X53679Y64847D01*
X53803Y65472D01*
X53679Y66096D01*
X53325Y66625D01*
X52796Y66979D01*
X52172Y67103D01*
D02*
G37*
G36*
X10375Y62213D02*
X9796Y62098D01*
X9305Y61770D01*
X9078Y61431D01*
X9031Y61415D01*
X8569D01*
X8522Y61431D01*
X8295Y61770D01*
X7804Y62098D01*
X7225Y62213D01*
X6646Y62098D01*
X6155Y61770D01*
X5827Y61279D01*
X5712Y60700D01*
X5827Y60121D01*
X6155Y59630D01*
X6646Y59302D01*
X7225Y59187D01*
X7804Y59302D01*
X8295Y59630D01*
X8522Y59970D01*
X8569Y59985D01*
X9031D01*
X9078Y59970D01*
X9305Y59630D01*
X9796Y59302D01*
X10375Y59187D01*
X10954Y59302D01*
X11445Y59630D01*
X11773Y60121D01*
X11888Y60700D01*
X11773Y61279D01*
X11445Y61770D01*
X10954Y62098D01*
X10375Y62213D01*
D02*
G37*
G36*
X48900Y59424D02*
X48432Y59330D01*
X48035Y59065D01*
X47770Y58668D01*
X47677Y58200D01*
X47770Y57732D01*
X48035Y57335D01*
X48432Y57070D01*
X48900Y56976D01*
X49368Y57070D01*
X49765Y57335D01*
X50030Y57732D01*
X50124Y58200D01*
X50030Y58668D01*
X49765Y59065D01*
X49368Y59330D01*
X48900Y59424D01*
D02*
G37*
G36*
X30800Y69024D02*
X30332Y68930D01*
X29935Y68665D01*
X29670Y68268D01*
X29530Y68220D01*
X29030Y68168D01*
X28765Y68565D01*
X28368Y68830D01*
X27900Y68923D01*
X27432Y68830D01*
X27035Y68565D01*
X26770Y68168D01*
X26676Y67700D01*
X26688Y67642D01*
X22721Y63674D01*
X22544Y63410D01*
X22482Y63098D01*
X22482Y63098D01*
Y57772D01*
X21982Y57418D01*
X21798Y57454D01*
X21329Y57361D01*
X20933Y57096D01*
X20667Y56699D01*
X20574Y56231D01*
X20667Y55763D01*
X20933Y55366D01*
X21329Y55100D01*
X21798Y55007D01*
X21982Y55044D01*
X22482Y54689D01*
Y50609D01*
X22482Y50609D01*
X22544Y50297D01*
X22721Y50033D01*
X24712Y48042D01*
X24767Y47763D01*
X25032Y47366D01*
X25429Y47100D01*
X25898Y47007D01*
X26366Y47100D01*
X26763Y47366D01*
X27028Y47763D01*
X27581Y47978D01*
X27797Y47833D01*
X28376Y47717D01*
X28956Y47833D01*
X29447Y48161D01*
X29775Y48652D01*
X29890Y49231D01*
X29775Y49810D01*
X29447Y50301D01*
X28956Y50629D01*
X28376Y50744D01*
X27797Y50629D01*
X27563Y50472D01*
X27042Y50596D01*
X26995Y50648D01*
X26763Y50996D01*
X26366Y51261D01*
X25898Y51354D01*
X25839Y51343D01*
X25213Y51969D01*
Y52589D01*
X25713Y52944D01*
X25898Y52907D01*
X26366Y53000D01*
X26638Y53182D01*
X27132Y53168D01*
X27274Y53131D01*
X27306Y53082D01*
X27797Y52754D01*
X28376Y52639D01*
X28956Y52754D01*
X29447Y53082D01*
X29775Y53573D01*
X29890Y54152D01*
X29775Y54731D01*
X29597Y54997D01*
X29898Y55447D01*
X30098Y55407D01*
X30566Y55500D01*
X30734Y55612D01*
X31098Y55724D01*
X31462Y55612D01*
X31629Y55500D01*
X31791Y55468D01*
X32027Y54922D01*
X31900Y54731D01*
X31784Y54152D01*
X31900Y53573D01*
X32228Y53082D01*
X32719Y52754D01*
X33298Y52639D01*
X33877Y52754D01*
X34368Y53082D01*
X34696Y53573D01*
X34811Y54152D01*
X34696Y54731D01*
X34528Y54983D01*
X34561Y55441D01*
X34685Y55580D01*
X34734Y55612D01*
X35098Y55724D01*
X35462Y55612D01*
X35629Y55500D01*
X36098Y55407D01*
X36566Y55500D01*
X36695Y55586D01*
X36979Y55439D01*
X37087Y55129D01*
X36821Y54731D01*
X36706Y54152D01*
X36821Y53573D01*
X37149Y53082D01*
X37640Y52754D01*
X38219Y52639D01*
X38798Y52754D01*
X39289Y53082D01*
X39617Y53573D01*
X39732Y54152D01*
X39617Y54731D01*
X39469Y54953D01*
X39832Y55266D01*
X40229Y55000D01*
X40698Y54907D01*
X41166Y55000D01*
X41563Y55266D01*
X41828Y55663D01*
X41921Y56131D01*
X41828Y56599D01*
X41574Y56978D01*
X41595Y57083D01*
X41741Y57478D01*
X42410D01*
X44185Y55703D01*
X44084Y55097D01*
X43933Y54996D01*
X43667Y54599D01*
X43574Y54131D01*
X43667Y53663D01*
X43933Y53266D01*
Y52996D01*
X43667Y52599D01*
X43574Y52131D01*
X43667Y51663D01*
X43733Y51564D01*
X43896Y51181D01*
X43733Y50797D01*
X43667Y50699D01*
X43574Y50231D01*
X43667Y49763D01*
X43933Y49366D01*
X44330Y49100D01*
X44798Y49007D01*
X45266Y49100D01*
X45663Y49366D01*
X45928Y49763D01*
X46021Y50231D01*
X45928Y50699D01*
X45862Y50797D01*
X45699Y51181D01*
X45862Y51564D01*
X45928Y51663D01*
X46021Y52131D01*
X45928Y52599D01*
X45732Y52893D01*
X45815Y53127D01*
X45903Y53202D01*
X46435Y53235D01*
X46832Y52970D01*
X47300Y52877D01*
X47768Y52970D01*
X48165Y53235D01*
X48430Y53632D01*
X48524Y54100D01*
X48430Y54568D01*
X48165Y54965D01*
X47954Y55106D01*
X43667Y59393D01*
X43303Y59636D01*
X42874Y59722D01*
X42874Y59722D01*
X35521D01*
X35521Y59722D01*
X35092Y59636D01*
X34728Y59393D01*
X34728Y59393D01*
X33305Y57969D01*
X33253Y57893D01*
X32628Y57732D01*
X32596Y57741D01*
X32566Y57761D01*
X32098Y57854D01*
X31629Y57761D01*
X31462Y57649D01*
X31098Y57537D01*
X30734Y57649D01*
X30566Y57761D01*
X30098Y57854D01*
X29629Y57761D01*
X29232Y57496D01*
X28967Y57099D01*
X28874Y56631D01*
X28967Y56163D01*
X29048Y56042D01*
X28747Y55592D01*
X28376Y55665D01*
X27797Y55550D01*
X27306Y55222D01*
X27260Y55152D01*
X27138Y55114D01*
X26618Y55093D01*
X26366Y55261D01*
X25898Y55354D01*
X25713Y55318D01*
X25213Y55672D01*
Y61260D01*
X30575Y66621D01*
X30800Y66576D01*
X31268Y66670D01*
X31665Y66935D01*
X31930Y67332D01*
X32024Y67800D01*
X31930Y68268D01*
X31665Y68665D01*
X31268Y68930D01*
X30800Y69024D01*
D02*
G37*
G36*
X41400Y68224D02*
X40932Y68130D01*
X40535Y67865D01*
X40270Y67468D01*
X40176Y67000D01*
X40270Y66532D01*
X40535Y66135D01*
X40932Y65870D01*
X41400Y65776D01*
X41868Y65870D01*
X42265Y66135D01*
X42530Y66532D01*
X42623Y67000D01*
X42530Y67468D01*
X42265Y67865D01*
X41868Y68130D01*
X41400Y68224D01*
D02*
G37*
G36*
X35100D02*
X34632Y68130D01*
X34235Y67865D01*
X33970Y67468D01*
X33876Y67000D01*
X33970Y66532D01*
X34235Y66135D01*
X34632Y65870D01*
X35100Y65776D01*
X35568Y65870D01*
X35965Y66135D01*
X36230Y66532D01*
X36323Y67000D01*
X36230Y67468D01*
X35965Y67865D01*
X35568Y68130D01*
X35100Y68224D01*
D02*
G37*
G36*
X57900Y54831D02*
X57276Y54707D01*
X56747Y54353D01*
X56393Y53824D01*
X56269Y53200D01*
X56393Y52576D01*
X56747Y52047D01*
X57276Y51693D01*
X57900Y51569D01*
X58524Y51693D01*
X59053Y52047D01*
X59407Y52576D01*
X59531Y53200D01*
X59407Y53824D01*
X59053Y54353D01*
X58524Y54707D01*
X57900Y54831D01*
D02*
G37*
G36*
X28376Y45823D02*
X27797Y45708D01*
X27306Y45380D01*
X26978Y44889D01*
X26863Y44310D01*
X26978Y43730D01*
X27026Y43659D01*
X26665Y43299D01*
X26468Y43430D01*
X26000Y43523D01*
X25532Y43430D01*
X25135Y43165D01*
X24870Y42768D01*
X24777Y42300D01*
X24870Y41832D01*
X25135Y41435D01*
X25532Y41170D01*
X26000Y41076D01*
X26468Y41170D01*
X26865Y41435D01*
X27130Y41832D01*
X27224Y42300D01*
X27133Y42754D01*
X27167Y42801D01*
X27506Y43106D01*
X27797Y42911D01*
X28376Y42796D01*
X28956Y42911D01*
X29447Y43240D01*
X29775Y43730D01*
X29890Y44310D01*
X29775Y44889D01*
X29447Y45380D01*
X28956Y45708D01*
X28376Y45823D01*
D02*
G37*
G36*
X38219D02*
X37640Y45708D01*
X37149Y45380D01*
X36821Y44889D01*
X36706Y44310D01*
X36821Y43730D01*
X37149Y43240D01*
X37640Y42911D01*
X38219Y42796D01*
X38798Y42911D01*
X39289Y43240D01*
X39617Y43730D01*
X39732Y44310D01*
X39617Y44889D01*
X39289Y45380D01*
X38798Y45708D01*
X38219Y45823D01*
D02*
G37*
G36*
X33298D02*
X32719Y45708D01*
X32228Y45380D01*
X31900Y44889D01*
X31784Y44310D01*
X31900Y43730D01*
X32228Y43240D01*
X32719Y42911D01*
X33298Y42796D01*
X33877Y42911D01*
X34368Y43240D01*
X34696Y43730D01*
X34811Y44310D01*
X34696Y44889D01*
X34368Y45380D01*
X33877Y45708D01*
X33298Y45823D01*
D02*
G37*
G36*
Y50744D02*
X32719Y50629D01*
X32228Y50301D01*
X31900Y49810D01*
X31784Y49231D01*
X31900Y48652D01*
X32228Y48161D01*
X32719Y47833D01*
X33298Y47717D01*
X33877Y47833D01*
X34368Y48161D01*
X34696Y48652D01*
X34811Y49231D01*
X34696Y49810D01*
X34368Y50301D01*
X33877Y50629D01*
X33298Y50744D01*
D02*
G37*
G36*
X17900Y47624D02*
X17432Y47530D01*
X17035Y47265D01*
X16770Y46868D01*
X16677Y46400D01*
X16770Y45932D01*
X17035Y45535D01*
X17432Y45270D01*
X17900Y45177D01*
X18368Y45270D01*
X18765Y45535D01*
X19030Y45932D01*
X19124Y46400D01*
X19030Y46868D01*
X18765Y47265D01*
X18368Y47530D01*
X17900Y47624D01*
D02*
G37*
G36*
X38219Y50744D02*
X37640Y50629D01*
X37149Y50301D01*
X36821Y49810D01*
X36706Y49231D01*
X36821Y48652D01*
X37149Y48161D01*
X37640Y47833D01*
X38219Y47717D01*
X38798Y47833D01*
X39103Y48036D01*
X39620Y47873D01*
X39651Y47847D01*
X39667Y47763D01*
X39933Y47366D01*
Y47096D01*
X39667Y46699D01*
X39574Y46231D01*
X39667Y45763D01*
X39933Y45366D01*
X40330Y45100D01*
X40798Y45007D01*
X41266Y45100D01*
X41663Y45366D01*
X41928Y45763D01*
X42021Y46231D01*
X41928Y46699D01*
X41663Y47096D01*
Y47366D01*
X41928Y47763D01*
X42021Y48231D01*
X41928Y48699D01*
X41663Y49096D01*
X41266Y49361D01*
X40798Y49454D01*
X40330Y49361D01*
X40214Y49284D01*
X39674Y49525D01*
X39617Y49810D01*
X39289Y50301D01*
X38798Y50629D01*
X38219Y50744D01*
D02*
G37*
%LPD*%
D32*
X24398Y61598D02*
X30514Y67714D01*
X24398Y51631D02*
Y61598D01*
X23298Y63098D02*
X27900Y67700D01*
X23298Y50609D02*
Y63098D01*
X25676Y48231D02*
X25898D01*
X24398Y51631D02*
X25898Y50131D01*
X23298Y50609D02*
X25676Y48231D01*
D33*
X53500Y14200D02*
X56900Y17600D01*
Y29000D01*
Y44600D01*
X58500Y46200D01*
D37*
X3800Y40100D02*
Y49000D01*
X1600Y37900D02*
X3800Y40100D01*
X1600Y15400D02*
Y37900D01*
X2900Y49900D02*
X3800Y49000D01*
X1600Y15400D02*
X7200Y9800D01*
X38803Y15997D02*
X43703D01*
X45500Y14200D01*
X27300Y27500D02*
X38803Y15997D01*
X34098Y56631D02*
Y57176D01*
X35521Y58600D01*
X42874D01*
X47300Y54174D01*
Y54100D02*
Y54174D01*
D39*
X7200Y9800D02*
D03*
X27700Y6900D02*
D03*
X45500Y14200D02*
D03*
X52300Y60800D02*
D03*
X60500Y39900D02*
D03*
X25700Y68800D02*
D03*
X23200D02*
D03*
X20700D02*
D03*
X16700Y38000D02*
D03*
X2900Y49900D02*
D03*
D40*
X6000Y40900D02*
D03*
X53500Y14200D02*
D03*
X58500Y46200D02*
D03*
X56900Y29000D02*
D03*
X27300Y27500D02*
D03*
X47400Y57000D02*
D03*
X47300Y54100D02*
D03*
X30800Y67800D02*
D03*
X27900Y67700D02*
D03*
X9800Y66400D02*
D03*
X25898Y48231D02*
D03*
X34098Y56631D02*
D03*
X25898Y50131D02*
D03*
X2500Y57400D02*
D03*
M02*
