%FSLAX25Y25*%
%MOIN*%
G70*
G01*
G75*
G04 Layer_Color=8421504*
%ADD10R,0.06496X0.09370*%
%ADD11R,0.02756X0.00984*%
%ADD12R,0.01969X0.01969*%
%ADD13R,0.03100X0.03100*%
%ADD14R,0.01969X0.01969*%
%ADD15R,0.03000X0.03000*%
%ADD16R,0.03000X0.03000*%
%ADD17C,0.03504*%
%ADD18R,0.03701X0.03701*%
%ADD19R,0.04449X0.05787*%
%ADD20R,0.05787X0.04449*%
%ADD21R,0.10709X0.05079*%
%ADD22R,0.12205X0.12205*%
%ADD23R,0.00984X0.02362*%
%ADD24R,0.02362X0.00984*%
%ADD25R,0.06299X0.03543*%
%ADD26R,0.01102X0.01969*%
%ADD27R,0.01181X0.01929*%
%ADD28R,0.01181X0.02047*%
%ADD29R,0.05118X0.02756*%
%ADD30R,0.04921X0.05118*%
%ADD31C,0.00800*%
%ADD32C,0.00600*%
%ADD33C,0.01000*%
%ADD34C,0.02500*%
%ADD35C,0.00500*%
%ADD36C,0.02000*%
%ADD37C,0.01200*%
%ADD38C,0.01969*%
%ADD39C,0.02200*%
%ADD40C,0.01400*%
%ADD41R,0.05000X0.10000*%
%ADD42O,0.01575X0.06299*%
%ADD43O,0.01575X0.07874*%
%ADD44O,0.01575X0.11024*%
%ADD45O,0.06299X0.01575*%
%ADD46O,0.07874X0.01575*%
%ADD47C,0.00394*%
%ADD48C,0.00984*%
%ADD49C,0.00787*%
%ADD50R,0.05512X0.05512*%
%ADD51R,0.05512X0.05906*%
%ADD52R,0.00984X0.01969*%
%ADD53R,0.05118X0.02756*%
%ADD54R,0.02756X0.00000*%
D10*
X47600Y7900D02*
D03*
D11*
X42088Y10853D02*
D03*
Y8884D02*
D03*
Y6916D02*
D03*
Y4947D02*
D03*
X53112Y10853D02*
D03*
Y8884D02*
D03*
Y6916D02*
D03*
Y4947D02*
D03*
D12*
X58972Y56000D02*
D03*
X55428D02*
D03*
X46869Y32831D02*
D03*
X43326D02*
D03*
X46869Y36031D02*
D03*
X43326D02*
D03*
X19626Y34731D02*
D03*
X23169D02*
D03*
X19626Y31531D02*
D03*
X23169D02*
D03*
X26226Y34731D02*
D03*
X29769D02*
D03*
X26226Y31531D02*
D03*
X29769D02*
D03*
X39869Y36031D02*
D03*
X36326D02*
D03*
X39869Y32831D02*
D03*
X36326D02*
D03*
X26828Y19200D02*
D03*
X30372D02*
D03*
X22169Y17931D02*
D03*
X18626D02*
D03*
X56528Y12300D02*
D03*
X60072D02*
D03*
X56528Y5900D02*
D03*
X60072D02*
D03*
X56528Y9100D02*
D03*
X60072D02*
D03*
D13*
X59000Y67050D02*
D03*
Y61150D02*
D03*
D14*
X46400Y61928D02*
D03*
Y65472D02*
D03*
X33600Y65472D02*
D03*
Y61928D02*
D03*
X36800Y65472D02*
D03*
Y61928D02*
D03*
X40000Y65472D02*
D03*
Y61928D02*
D03*
X43200Y65472D02*
D03*
Y61928D02*
D03*
X34500Y17328D02*
D03*
Y20872D02*
D03*
X6800Y22872D02*
D03*
Y19328D02*
D03*
X19600Y41172D02*
D03*
Y37628D02*
D03*
Y47772D02*
D03*
Y44228D02*
D03*
Y54372D02*
D03*
Y50828D02*
D03*
X27200Y65472D02*
D03*
Y61928D02*
D03*
X30400Y65472D02*
D03*
Y61928D02*
D03*
X2500Y62872D02*
D03*
Y59328D02*
D03*
X14900Y6872D02*
D03*
Y3328D02*
D03*
Y10028D02*
D03*
Y13572D02*
D03*
X49600Y65472D02*
D03*
Y61928D02*
D03*
X6800Y25428D02*
D03*
Y28972D02*
D03*
D15*
X19700Y22150D02*
D03*
Y27650D02*
D03*
X15100Y22150D02*
D03*
Y27650D02*
D03*
X15900Y52950D02*
D03*
Y58450D02*
D03*
X58500Y48950D02*
D03*
Y43450D02*
D03*
X3100Y27650D02*
D03*
Y22150D02*
D03*
X10500Y27650D02*
D03*
Y22150D02*
D03*
D16*
X24348Y27631D02*
D03*
X29848D02*
D03*
X42348Y28731D02*
D03*
X36848D02*
D03*
X5850Y53200D02*
D03*
X11350D02*
D03*
X53850Y49000D02*
D03*
X48350D02*
D03*
X24348Y22931D02*
D03*
X29848D02*
D03*
X42348Y24031D02*
D03*
X36848D02*
D03*
D17*
X31500Y8600D02*
D03*
D18*
X36697Y13797D02*
D03*
X26303D02*
D03*
Y3403D02*
D03*
X36697D02*
D03*
D19*
X23384Y63900D02*
D03*
X16416D02*
D03*
X51116Y34200D02*
D03*
X58084D02*
D03*
D20*
X20300Y3747D02*
D03*
Y10715D02*
D03*
D21*
X6900Y3968D02*
D03*
Y15032D02*
D03*
D23*
X26408Y58680D02*
D03*
X28376D02*
D03*
X30345D02*
D03*
X32313D02*
D03*
X34282D02*
D03*
X36250D02*
D03*
X38219D02*
D03*
X40187D02*
D03*
Y39782D02*
D03*
X38219D02*
D03*
X36250D02*
D03*
X34282D02*
D03*
X32313D02*
D03*
X30345D02*
D03*
X28376D02*
D03*
X26408D02*
D03*
D24*
X42746Y56121D02*
D03*
Y54152D02*
D03*
Y52184D02*
D03*
Y50215D02*
D03*
Y48247D02*
D03*
Y46278D02*
D03*
Y44310D02*
D03*
Y42341D02*
D03*
X23849D02*
D03*
Y44310D02*
D03*
Y46278D02*
D03*
Y48247D02*
D03*
Y50215D02*
D03*
Y52184D02*
D03*
Y54152D02*
D03*
Y56121D02*
D03*
D27*
X49931Y45316D02*
D03*
X51900D02*
D03*
X53869D02*
D03*
Y42284D02*
D03*
X51900D02*
D03*
D28*
X49931D02*
D03*
D29*
X57824Y17460D02*
D03*
Y21200D02*
D03*
Y24940D02*
D03*
X48376D02*
D03*
Y21200D02*
D03*
Y17460D02*
D03*
D30*
X3971Y45500D02*
D03*
X12829Y35500D02*
D03*
X3971D02*
D03*
X12829Y45500D02*
D03*
D50*
X30148Y52380D02*
D03*
X36447Y46081D02*
D03*
Y52380D02*
D03*
D51*
X30148Y46278D02*
D03*
D52*
X7816Y56960D02*
D03*
X5847D02*
D03*
X9784Y56960D02*
D03*
X11753D02*
D03*
Y64440D02*
D03*
X9784D02*
D03*
X7816Y64440D02*
D03*
X5847D02*
D03*
D53*
X8800Y60704D02*
D03*
D54*
X8800Y60700D02*
D03*
M02*
