%FSLAX25Y25*%
%MOIN*%
G70*
G01*
G75*
G04 Layer_Physical_Order=1*
G04 Layer_Color=255*
%ADD10R,0.06496X0.09370*%
%ADD11R,0.02756X0.00984*%
%ADD12R,0.01969X0.01969*%
%ADD13R,0.03100X0.03100*%
%ADD14R,0.01969X0.01969*%
%ADD15R,0.03000X0.03000*%
%ADD16R,0.03000X0.03000*%
%ADD17C,0.03504*%
%ADD18R,0.03701X0.03701*%
%ADD19R,0.04449X0.05787*%
%ADD20R,0.05787X0.04449*%
%ADD21R,0.10709X0.05079*%
%ADD22R,0.12205X0.12205*%
%ADD23R,0.00984X0.02362*%
%ADD24R,0.02362X0.00984*%
%ADD25R,0.06299X0.03543*%
%ADD26R,0.01102X0.01969*%
%ADD27R,0.01181X0.01929*%
%ADD28R,0.01181X0.02047*%
%ADD29R,0.05118X0.02756*%
%ADD30R,0.04921X0.05118*%
%ADD31C,0.00800*%
%ADD32C,0.00600*%
%ADD33C,0.01000*%
%ADD34C,0.02500*%
%ADD35C,0.00500*%
%ADD36C,0.02000*%
%ADD37C,0.01200*%
%ADD38C,0.01969*%
%ADD39C,0.02200*%
%ADD40C,0.01400*%
G36*
X12300Y21450D02*
X12300Y13800D01*
X1600Y13800D01*
X1600Y21750D01*
X4349Y21750D01*
X5800Y20300D01*
X7800Y20300D01*
X9250Y21750D01*
X12000Y21750D01*
X12300Y21450D01*
D02*
G37*
G36*
X49800Y47000D02*
X50500Y46300D01*
Y44400D01*
X49300D01*
X48400Y43500D01*
Y40300D01*
X51600Y37100D01*
Y31200D01*
X46500D01*
X45900Y31800D01*
Y49500D01*
X46800Y50400D01*
X49800D01*
Y47000D01*
D02*
G37*
G36*
X52500Y41300D02*
X53100Y40700D01*
X56800Y40700D01*
X60300Y37200D01*
Y31400D01*
X56000Y31400D01*
X56000Y37800D01*
X54500Y39300D01*
X52700D01*
X51300Y40700D01*
X51300Y43200D01*
X52500D01*
Y41300D01*
D02*
G37*
G36*
X12200Y6200D02*
X14100Y4300D01*
X15900D01*
X17400Y5800D01*
Y6000D01*
X23200D01*
Y1500D01*
X1500D01*
Y6500D01*
X12200D01*
Y6200D01*
D02*
G37*
G36*
X55000Y7400D02*
X55500Y6900D01*
X57500D01*
Y4900D01*
X55500Y4900D01*
X55000Y4400D01*
X49000D01*
X48900Y4500D01*
Y7400D01*
X55000Y7400D01*
D02*
G37*
G36*
X19200Y8500D02*
X18500D01*
X15900Y5900D01*
X14000D01*
Y7900D01*
X15900D01*
X17700Y9700D01*
X20400D01*
X19200Y8500D01*
D02*
G37*
G36*
X12300Y56000D02*
X11200D01*
Y58000D01*
X10300Y58900D01*
X7300D01*
X6400Y58000D01*
Y55400D01*
X7100Y54700D01*
X7300D01*
Y51700D01*
X4300D01*
Y61200D01*
X5600Y62500D01*
X10300D01*
X11200Y63400D01*
Y65400D01*
X12300D01*
Y56000D01*
D02*
G37*
G36*
X26500Y67700D02*
X25600Y66800D01*
Y60900D01*
X22300Y57600D01*
X18100D01*
X17400Y56900D01*
X14400D01*
Y59900D01*
X20000D01*
X21100Y61000D01*
Y66800D01*
X19500Y68400D01*
Y70000D01*
X26500D01*
Y67700D01*
D02*
G37*
G36*
X15500Y70000D02*
X18700Y66800D01*
Y64300D01*
X14900D01*
X11500Y67700D01*
X9300Y67700D01*
X8400Y66800D01*
X8400Y65400D01*
X7300Y65200D01*
Y69200D01*
X8100Y70000D01*
X15500Y70000D01*
D02*
G37*
G36*
X60000Y41900D02*
X59400Y41300D01*
X53300D01*
Y43200D01*
X54400D01*
X56100Y44900D01*
X60000D01*
Y41900D01*
D02*
G37*
G36*
Y47400D02*
X57500D01*
X54418Y44318D01*
X53200Y44440D01*
X53200Y46500D01*
X52400Y47300D01*
Y54300D01*
X60000D01*
Y47400D01*
D02*
G37*
G36*
X10300Y56100D02*
X11700Y54700D01*
X12800D01*
Y53300D01*
X10200D01*
X7500Y56000D01*
X7300Y56000D01*
Y57900D01*
X10300D01*
X10300Y56100D01*
D02*
G37*
D10*
X47600Y7900D02*
D03*
D11*
X42088Y10853D02*
D03*
Y8884D02*
D03*
Y6916D02*
D03*
Y4947D02*
D03*
X53112Y10853D02*
D03*
Y8884D02*
D03*
Y6916D02*
D03*
Y4947D02*
D03*
D12*
X58972Y56000D02*
D03*
X55428D02*
D03*
X46869Y32831D02*
D03*
X43326D02*
D03*
X46869Y36031D02*
D03*
X43326D02*
D03*
X19626Y34731D02*
D03*
X23169D02*
D03*
X19626Y31531D02*
D03*
X23169D02*
D03*
X26226Y34731D02*
D03*
X29769D02*
D03*
X26226Y31531D02*
D03*
X29769D02*
D03*
X39869Y36031D02*
D03*
X36326D02*
D03*
X39869Y32831D02*
D03*
X36326D02*
D03*
X26828Y19200D02*
D03*
X30372D02*
D03*
X22169Y17931D02*
D03*
X18626D02*
D03*
X56528Y12300D02*
D03*
X60072D02*
D03*
X56528Y5900D02*
D03*
X60072D02*
D03*
X56528Y9100D02*
D03*
X60072D02*
D03*
D13*
X59000Y67050D02*
D03*
Y61150D02*
D03*
D14*
X46400Y61928D02*
D03*
Y65472D02*
D03*
X33600Y65472D02*
D03*
Y61928D02*
D03*
X36800Y65472D02*
D03*
Y61928D02*
D03*
X40000Y65472D02*
D03*
Y61928D02*
D03*
X43200Y65472D02*
D03*
Y61928D02*
D03*
X34500Y17328D02*
D03*
Y20872D02*
D03*
X6800Y22872D02*
D03*
Y19328D02*
D03*
X19600Y41172D02*
D03*
Y37628D02*
D03*
Y47772D02*
D03*
Y44228D02*
D03*
Y54372D02*
D03*
Y50828D02*
D03*
X27200Y65472D02*
D03*
Y61928D02*
D03*
X30400Y65472D02*
D03*
Y61928D02*
D03*
X2500Y62872D02*
D03*
Y59328D02*
D03*
X14900Y6872D02*
D03*
Y3328D02*
D03*
Y10028D02*
D03*
Y13572D02*
D03*
X49600Y65472D02*
D03*
Y61928D02*
D03*
X6800Y25428D02*
D03*
Y28972D02*
D03*
D15*
X19700Y22150D02*
D03*
Y27650D02*
D03*
X15100Y22150D02*
D03*
Y27650D02*
D03*
X15900Y52950D02*
D03*
Y58450D02*
D03*
X58500Y48950D02*
D03*
Y43450D02*
D03*
X3100Y27650D02*
D03*
Y22150D02*
D03*
X10500Y27650D02*
D03*
Y22150D02*
D03*
D16*
X24348Y27631D02*
D03*
X29848D02*
D03*
X42348Y28731D02*
D03*
X36848D02*
D03*
X5850Y53200D02*
D03*
X11350D02*
D03*
X53850Y49000D02*
D03*
X48350D02*
D03*
X24348Y22931D02*
D03*
X29848D02*
D03*
X42348Y24031D02*
D03*
X36848D02*
D03*
D17*
X31500Y8600D02*
D03*
D18*
X36697Y13797D02*
D03*
X26303D02*
D03*
Y3403D02*
D03*
X36697D02*
D03*
D19*
X23384Y63900D02*
D03*
X16416D02*
D03*
X51116Y34200D02*
D03*
X58084D02*
D03*
D20*
X20300Y3747D02*
D03*
Y10715D02*
D03*
D21*
X6900Y3968D02*
D03*
Y15032D02*
D03*
D22*
X33298Y49231D02*
D03*
D23*
X26408Y58680D02*
D03*
X28376D02*
D03*
X30345D02*
D03*
X32313D02*
D03*
X34282D02*
D03*
X36250D02*
D03*
X38219D02*
D03*
X40187D02*
D03*
Y39782D02*
D03*
X38219D02*
D03*
X36250D02*
D03*
X34282D02*
D03*
X32313D02*
D03*
X30345D02*
D03*
X28376D02*
D03*
X26408D02*
D03*
D24*
X42746Y56121D02*
D03*
Y54152D02*
D03*
Y52184D02*
D03*
Y50215D02*
D03*
Y48247D02*
D03*
Y46278D02*
D03*
Y44310D02*
D03*
Y42341D02*
D03*
X23849D02*
D03*
Y44310D02*
D03*
Y46278D02*
D03*
Y48247D02*
D03*
Y50215D02*
D03*
Y52184D02*
D03*
Y54152D02*
D03*
Y56121D02*
D03*
D25*
X8800Y60700D02*
D03*
D26*
X5847Y64440D02*
D03*
X7816D02*
D03*
X9784D02*
D03*
X11753D02*
D03*
Y56960D02*
D03*
X9784D02*
D03*
X7816D02*
D03*
X5847D02*
D03*
D27*
X49931Y45316D02*
D03*
X51900D02*
D03*
X53869D02*
D03*
Y42284D02*
D03*
X51900D02*
D03*
D28*
X49931D02*
D03*
D29*
X57824Y17460D02*
D03*
Y21200D02*
D03*
Y24940D02*
D03*
X48376D02*
D03*
Y21200D02*
D03*
Y17460D02*
D03*
D30*
X3971Y45500D02*
D03*
X12829Y35500D02*
D03*
X3971D02*
D03*
X12829Y45500D02*
D03*
D31*
X23848Y27631D02*
X26226Y30009D01*
X45420Y58680D02*
X46400Y57700D01*
X47100Y57000D01*
X46400Y57700D02*
Y61928D01*
X40187Y58680D02*
X45420D01*
X18900Y14700D02*
Y17657D01*
X44050Y25950D02*
X46869Y28769D01*
X29248Y27631D02*
Y28931D01*
Y24231D02*
Y27631D01*
X29848D01*
X49000Y61328D02*
X49600Y61928D01*
X49000Y58100D02*
Y61328D01*
X48900Y58200D02*
X49000Y58100D01*
X41333Y31367D02*
X42798Y32831D01*
X39869D02*
X41333Y31367D01*
X33598Y61359D02*
X36798D01*
X56528Y9100D02*
Y12300D01*
X55081Y10853D02*
X56528Y12300D01*
X53112Y10853D02*
X55081D01*
X3100Y27650D02*
X3800Y28350D01*
Y30400D01*
X16500Y43400D02*
X17328Y44228D01*
X19600D01*
X5322Y25428D02*
X6800D01*
X3100Y27650D02*
X5322Y25428D01*
X6800Y22872D02*
Y25428D01*
X27200Y61928D02*
X30400D01*
X23722D02*
X27200D01*
X22900Y62750D02*
X23722Y61928D01*
X41472Y67000D02*
X42500Y65972D01*
X40000Y65472D02*
X41028Y66500D01*
X35772D02*
X36800Y65472D01*
X33600D02*
X34628Y66500D01*
X52172Y65472D02*
X52200Y65500D01*
X49600Y65472D02*
X52172D01*
X27267Y37200D02*
X28376Y38310D01*
X25367Y37200D02*
X27267D01*
X23169Y35002D02*
X25367Y37200D01*
X32313Y20413D02*
Y39782D01*
X31031Y19131D02*
X32313Y20413D01*
X29769Y19131D02*
X31031D01*
X18476Y30381D02*
X19626Y31531D01*
X18308Y30381D02*
X18476D01*
X39998Y61359D02*
X43198D01*
X39998D02*
X40187Y61169D01*
Y58680D02*
Y61169D01*
X33598Y61359D02*
X34282Y60675D01*
Y58680D02*
Y60675D01*
X34098Y56631D02*
X34282Y56815D01*
Y58680D01*
X22169Y17931D02*
X23369Y19131D01*
X26226D01*
X23169Y31531D02*
Y34731D01*
X28376Y38310D02*
Y39782D01*
X30345Y35306D02*
Y39782D01*
X29669Y34631D02*
X30345Y35306D01*
X34282Y21675D02*
Y39782D01*
X29248Y28931D02*
X29669Y29353D01*
Y34631D01*
X37748Y24231D02*
Y28931D01*
Y31409D01*
X36326Y32831D02*
X37748Y31409D01*
X36326Y32831D02*
Y36031D01*
X36250Y36106D02*
X36326Y36031D01*
X36250Y36106D02*
Y39782D01*
X41333Y31367D02*
X43248Y29452D01*
X42798Y32831D02*
X43326D01*
X19626Y31531D02*
Y34731D01*
X26226Y30009D02*
Y31531D01*
Y34731D01*
X43326Y32831D02*
Y36031D01*
X43248Y28931D02*
Y29452D01*
X39869Y32831D02*
Y36031D01*
X19198Y27581D02*
X23848Y22931D01*
X19198Y27581D02*
Y27681D01*
X19319D01*
X23169Y31531D01*
X15100Y22150D02*
X19700D01*
X18626Y21076D02*
X19700Y22150D01*
X18626Y17931D02*
Y21076D01*
Y17931D02*
X18900Y17657D01*
D32*
X47100Y57000D02*
X51100Y53000D01*
X53465Y38100D02*
X54140Y37425D01*
X51731Y38100D02*
X53465D01*
X50500Y39331D02*
X51731Y38100D01*
X55528Y30506D02*
X60640D01*
X60500Y39900D02*
X61109Y39291D01*
Y30975D02*
Y39291D01*
X60640Y30506D02*
X61109Y30975D01*
X54140Y31895D02*
X55528Y30506D01*
X54140Y31895D02*
Y37425D01*
X50500Y39331D02*
Y41716D01*
X49931Y42284D02*
X50500Y41716D01*
X30398Y65003D02*
Y67398D01*
X51100Y47056D02*
Y53000D01*
X46400Y65128D02*
Y65472D01*
Y65128D02*
X49600Y61928D01*
X30398Y67398D02*
X30800Y67800D01*
X27198Y65003D02*
Y66998D01*
X27900Y67700D01*
X51100Y47056D02*
X51900Y46256D01*
Y45316D02*
Y46256D01*
D33*
X3971Y35500D02*
X6000Y37529D01*
Y40900D01*
X2000Y43529D02*
X3971Y45500D01*
X2000Y41800D02*
Y43529D01*
X21515Y9500D02*
X30600D01*
X31500Y8600D01*
X20300Y10715D02*
X21515Y9500D01*
X60416Y27700D02*
X61383Y26732D01*
X58600Y27700D02*
X60416D01*
X61383Y23148D02*
Y26732D01*
X48376Y15424D02*
X49300Y14500D01*
X48376Y15424D02*
Y17460D01*
X60072Y5900D02*
X60072Y5900D01*
X60072Y5900D02*
Y9100D01*
X60036Y21800D02*
X61383Y23148D01*
X58424Y21800D02*
X60036D01*
X57824Y21200D02*
X58424Y21800D01*
X3971Y33229D02*
X6800Y30400D01*
Y28972D02*
Y30400D01*
X25882Y48247D02*
X25898Y48231D01*
X23849Y48247D02*
X25882D01*
X25813Y50215D02*
X25898Y50131D01*
X23849Y50215D02*
X25813D01*
X23849Y46294D02*
X28476D01*
X31313Y49131D02*
Y51115D01*
X28376Y44310D02*
X33298Y49231D01*
X23849Y44310D02*
X28376D01*
X31313Y51115D02*
X33298D01*
X28476Y46294D02*
X31313Y49131D01*
X23849Y46278D02*
Y46294D01*
X16700Y38000D02*
Y38272D01*
X19600Y41172D01*
X14600Y35500D02*
X16500Y37400D01*
X12829Y35500D02*
X14600D01*
X3971Y33229D02*
Y35500D01*
X12829Y43914D02*
X15872Y40872D01*
X12829Y43914D02*
Y45500D01*
X17322Y54372D02*
X19600D01*
X15900Y52950D02*
X17322Y54372D01*
X15900Y48571D02*
Y52950D01*
X12829Y45500D02*
X15900Y48571D01*
X9784Y66384D02*
X9800Y66400D01*
X9784Y64440D02*
Y66384D01*
X2500Y57400D02*
Y59328D01*
X31500Y8600D02*
Y14731D01*
X34298Y17528D01*
X4279Y62872D02*
X5847Y64440D01*
X2500Y62872D02*
X4279D01*
D34*
X8450Y39885D02*
Y48850D01*
X8400Y48900D02*
X8450Y48850D01*
X8400Y39835D02*
X8450Y39885D01*
X8400Y32100D02*
Y39835D01*
X10500Y27650D02*
Y30000D01*
X8400Y32100D02*
X10500Y30000D01*
X8400Y48900D02*
X11650Y52150D01*
Y53200D01*
D35*
X16400Y34534D02*
X19494Y37628D01*
X16400Y29322D02*
Y34534D01*
X15100Y28022D02*
X16400Y29322D01*
X15100Y27650D02*
Y28022D01*
X42768Y54131D02*
X44798D01*
X42746Y54152D02*
X42768Y54131D01*
X44782Y50215D02*
X44798Y50231D01*
X40798Y46231D02*
X40845Y46278D01*
X44745Y52184D02*
X44798Y52131D01*
X36098Y56631D02*
X36398D01*
X36498Y56731D01*
X36148Y57081D02*
X36498Y56731D01*
X36148Y57081D02*
Y58577D01*
X36250Y58680D01*
X38219Y56710D02*
Y58680D01*
Y56710D02*
X38298Y56631D01*
X32098D02*
X32313Y56847D01*
X30098Y56631D02*
X30345Y56878D01*
X21798Y56210D02*
Y56231D01*
X25876Y54152D02*
X25898Y54131D01*
X21708Y56121D02*
X21798Y56210D01*
X23849Y54152D02*
X25876D01*
X21708Y56121D02*
X23849D01*
X40845Y46278D02*
X42746D01*
X40798Y48231D02*
X40813Y48247D01*
X42746D01*
Y50215D02*
X44782D01*
X42746Y52184D02*
X44745D01*
X40698Y56131D02*
X40708Y56121D01*
X42746D01*
X30345Y56878D02*
Y58680D01*
X32313Y56847D02*
Y58680D01*
X23084Y52184D02*
X23849D01*
X21600Y50700D02*
X23084Y52184D01*
X26082Y39782D02*
X26408D01*
X21600Y40328D02*
Y50700D01*
X23849Y42341D02*
X25959D01*
X26000Y42300D01*
X23900Y37600D02*
X26082Y39782D01*
X19600Y37628D02*
X19628Y37600D01*
X23900D01*
X21600Y40328D02*
X22728Y39200D01*
X17900Y46400D02*
X18228D01*
X19600Y47772D01*
Y50828D01*
X19494Y37628D02*
X19600D01*
D36*
X35594Y2300D02*
X36697Y3403D01*
X31400Y2300D02*
X35594D01*
X27406D02*
X31400D01*
X26303Y3403D02*
X27406Y2300D01*
X36794Y13700D02*
X41800D01*
X36697Y13797D02*
X36794Y13700D01*
X18900Y14700D02*
X26303D01*
X60072Y3028D02*
X60100Y3000D01*
X60072Y3028D02*
Y5900D01*
X58500Y41900D02*
Y43450D01*
Y41900D02*
X60500Y39900D01*
X7400Y49900D02*
X8400Y48900D01*
X2900Y49900D02*
X7400D01*
X6900Y15032D02*
X8360Y13572D01*
X6900Y3968D02*
X12960Y10028D01*
X14900D01*
X8360Y13572D02*
X14900D01*
D37*
X42088Y2888D02*
Y4947D01*
X41400Y2200D02*
X42088Y2888D01*
Y4947D02*
Y6916D01*
X55428Y53272D02*
X55700Y53000D01*
X55428Y53272D02*
Y56000D01*
X58972D02*
Y61122D01*
X59000Y61150D01*
X52750Y60800D02*
X59000Y67050D01*
X52300Y60800D02*
X52750D01*
X42348Y24248D02*
X44050Y25950D01*
X42348Y24031D02*
Y24248D01*
X27752Y27631D02*
X29248D01*
X47300Y54100D02*
X48350Y53050D01*
Y49000D02*
Y53050D01*
X42348Y17352D02*
Y24031D01*
Y17352D02*
X45500Y14200D01*
X26303Y13797D02*
Y14700D01*
X60072Y12300D02*
Y15213D01*
X57824Y17460D02*
X60072Y15213D01*
X50700Y21200D02*
X53700Y18200D01*
X48376Y21200D02*
X50700D01*
X50260Y24940D02*
X53700Y21500D01*
X48376Y24940D02*
X50260D01*
X51916Y30849D02*
Y34200D01*
Y30849D02*
X57824Y24940D01*
X46869Y28769D02*
Y32831D01*
D38*
X45632Y9868D02*
D03*
X49569D02*
D03*
X45632Y5931D02*
D03*
X49569D02*
D03*
X38219Y44310D02*
D03*
X33298D02*
D03*
X28376D02*
D03*
X38219Y49231D02*
D03*
X33298D02*
D03*
X28376D02*
D03*
X38219Y54152D02*
D03*
X33298D02*
D03*
X28376D02*
D03*
X10375Y60700D02*
D03*
X7225D02*
D03*
D39*
X7200Y9800D02*
D03*
X31400Y2300D02*
D03*
X41400Y2200D02*
D03*
X27700Y6900D02*
D03*
X18900Y14700D02*
D03*
X41800Y13700D02*
D03*
X57900Y53200D02*
D03*
X45500Y14200D02*
D03*
X52300Y60800D02*
D03*
X60100Y3000D02*
D03*
X3800Y30400D02*
D03*
X60500Y39900D02*
D03*
X25700Y68800D02*
D03*
X23200D02*
D03*
X20700D02*
D03*
X16700Y38000D02*
D03*
X15872Y40872D02*
D03*
X52172Y65472D02*
D03*
X2900Y49900D02*
D03*
D40*
X6000Y40900D02*
D03*
X2000Y41800D02*
D03*
X53500Y14200D02*
D03*
X58500Y46200D02*
D03*
X56900Y29000D02*
D03*
X58600Y27700D02*
D03*
X35100Y67000D02*
D03*
X49300Y14400D02*
D03*
X41400Y67000D02*
D03*
X27300Y27500D02*
D03*
X47400Y57000D02*
D03*
X48900Y58200D02*
D03*
X47300Y54100D02*
D03*
X44798Y54131D02*
D03*
Y50231D02*
D03*
X40798Y46231D02*
D03*
X44798Y52131D02*
D03*
X41333Y31367D02*
D03*
X53700Y18200D02*
D03*
X26700Y29500D02*
D03*
X16500Y43400D02*
D03*
X30800Y67800D02*
D03*
X27900Y67700D02*
D03*
X9800Y66400D02*
D03*
X25898Y48231D02*
D03*
X18308Y30381D02*
D03*
X34098Y56631D02*
D03*
X36098D02*
D03*
X38298D02*
D03*
X53700Y21500D02*
D03*
X32098Y56631D02*
D03*
X30098D02*
D03*
X21798Y56231D02*
D03*
X25898Y54131D02*
D03*
Y50131D02*
D03*
X2500Y57400D02*
D03*
X40798Y48231D02*
D03*
X40698Y56131D02*
D03*
X26000Y42300D02*
D03*
X22728Y39200D02*
D03*
X17900Y46400D02*
D03*
M02*
