%FSLAX25Y25*%
%MOIN*%
G70*
G01*
G75*
G04 Layer_Color=16711935*
%ADD10R,0.06496X0.09370*%
%ADD11R,0.02756X0.00984*%
%ADD12R,0.01969X0.01969*%
%ADD13R,0.03100X0.03100*%
%ADD14R,0.01969X0.01969*%
%ADD15R,0.03000X0.03000*%
%ADD16R,0.03000X0.03000*%
%ADD17C,0.03504*%
%ADD18R,0.03701X0.03701*%
%ADD19R,0.04449X0.05787*%
%ADD20R,0.05787X0.04449*%
%ADD21R,0.10709X0.05079*%
%ADD22R,0.12205X0.12205*%
%ADD23R,0.00984X0.02362*%
%ADD24R,0.02362X0.00984*%
%ADD25R,0.06299X0.03543*%
%ADD26R,0.01102X0.01969*%
%ADD27R,0.01181X0.01929*%
%ADD28R,0.01181X0.02047*%
%ADD29R,0.05118X0.02756*%
%ADD30R,0.04921X0.05118*%
%ADD31C,0.00800*%
%ADD32C,0.00600*%
%ADD33C,0.01000*%
%ADD34C,0.02500*%
%ADD35C,0.00500*%
%ADD36C,0.02000*%
%ADD37C,0.01200*%
%ADD38C,0.01969*%
%ADD39C,0.02200*%
%ADD40C,0.01400*%
%ADD41R,0.05000X0.10000*%
%ADD42O,0.01575X0.06299*%
%ADD43O,0.01575X0.07874*%
%ADD44O,0.01575X0.11024*%
%ADD45O,0.06299X0.01575*%
%ADD46O,0.07874X0.01575*%
%ADD47C,0.00394*%
%ADD48C,0.00984*%
%ADD49C,0.00787*%
%ADD50R,0.05512X0.05512*%
%ADD51R,0.05512X0.05906*%
%ADD52R,0.00984X0.01969*%
%ADD53R,0.05118X0.02756*%
%ADD54R,0.02756X0.00000*%
%ADD55R,0.07299X0.10173*%
%ADD56R,0.03559X0.01787*%
%ADD57R,0.02169X0.02169*%
%ADD58R,0.03300X0.03300*%
%ADD59R,0.02169X0.02169*%
%ADD60R,0.03200X0.03200*%
%ADD61R,0.03200X0.03200*%
%ADD62C,0.03704*%
%ADD63R,0.03901X0.03901*%
%ADD64R,0.04649X0.05987*%
%ADD65R,0.05987X0.04649*%
%ADD66R,0.10909X0.05279*%
%ADD67R,0.12405X0.12405*%
%ADD68R,0.06850X0.04095*%
%ADD69R,0.01654X0.02520*%
%ADD70R,0.01575X0.02323*%
%ADD71R,0.01575X0.02441*%
%ADD72R,0.05318X0.02956*%
%ADD73R,0.05121X0.05318*%
%ADD74C,0.02769*%
%ADD75R,0.05200X0.10200*%
%ADD76O,0.01775X0.06499*%
%ADD77O,0.01775X0.08074*%
%ADD78O,0.01775X0.11224*%
%ADD79O,0.06499X0.01775*%
%ADD80O,0.08074X0.01775*%
D59*
X41800Y10772D02*
D03*
Y7228D02*
D03*
D61*
X37750Y7700D02*
D03*
X32250D02*
D03*
X37750Y12200D02*
D03*
X32250D02*
D03*
D74*
X45632Y9868D02*
D03*
X49569D02*
D03*
X45632Y5931D02*
D03*
X49569D02*
D03*
D75*
X11500Y6100D02*
D03*
X21500D02*
D03*
D76*
X14175Y19080D02*
D03*
X48820D02*
D03*
Y62781D02*
D03*
X14175D02*
D03*
D77*
X17324Y19868D02*
D03*
X20474D02*
D03*
X23624D02*
D03*
X26773D02*
D03*
X33073D02*
D03*
X36222D02*
D03*
X39372D02*
D03*
X42521D02*
D03*
X45671D02*
D03*
Y61994D02*
D03*
X42521D02*
D03*
X39372D02*
D03*
X36222D02*
D03*
X33073D02*
D03*
X29923D02*
D03*
X26773D02*
D03*
X23624D02*
D03*
X20474D02*
D03*
X17324D02*
D03*
D78*
X29923Y21443D02*
D03*
D79*
X53348Y23608D02*
D03*
Y58254D02*
D03*
X9647D02*
D03*
Y23608D02*
D03*
D80*
X52561Y26758D02*
D03*
Y29907D02*
D03*
Y33057D02*
D03*
Y36206D02*
D03*
Y39356D02*
D03*
Y42506D02*
D03*
Y45655D02*
D03*
Y48805D02*
D03*
Y51954D02*
D03*
Y55104D02*
D03*
X10435D02*
D03*
Y51954D02*
D03*
Y48805D02*
D03*
Y45655D02*
D03*
Y42506D02*
D03*
Y39356D02*
D03*
Y36206D02*
D03*
Y33057D02*
D03*
Y29907D02*
D03*
Y26758D02*
D03*
M02*
